<?xml version="1.0" encoding="utf-8"?>
<!-- Generator: Adobe Illustrator 19.0.0, SVG Export Plug-In . SVG Version: 6.00 Build 0)  -->
<svg version="1.1" id="Layer_1" xmlns="http://www.w3.org/2000/svg" xmlns:xlink="http://www.w3.org/1999/xlink" x="0px" y="0px"
	 viewBox="0 0 40 28" style="enable-background:new 0 0 40 28;" xml:space="preserve">
<style type="text/css">
	.st0{fill:#FFFFFF;}
	.st1{fill:#323232;}
</style>
<g id="XMLID_9_">
	<path id="XMLID_41_" class="st0" d="M33.1,12.4h-1.4c-1.3-2.6-3.9-4.2-6.8-4.2H9.5c-2.2,0-4.3,0.9-5.9,2.5l-2.7,2.8l-0.1,0.2
		c-0.1,0.2-0.2,0.3-0.4,0.5l-0.1,0.2c-0.1,0.3-0.2,0.6-0.3,0.9l0,0.2c0,0.2,0,0.3,0,0.5v3.4c0,2.5,1.4,4.9,3.7,6.1
		c1,2.2,3.2,3.6,5.7,3.6c2.1,0,4.1-1.1,5.2-2.8h9.3C25,27.9,27,29,29.1,29c2.1,0,4.2-1.1,5.3-3c3.2-0.6,5.6-3.4,5.6-6.8
		C40,15.5,36.9,12.4,33.1,12.4z"/>
	<path id="XMLID_30_" class="st1" d="M33.1,14.7h-2.9c-0.6-2.4-2.7-4.2-5.3-4.2H9.5c-1.6,0-3.1,0.7-4.2,1.8L2.6,15c0,0,0,0,0,0
		c-0.1,0.1-0.1,0.2-0.2,0.2c0,0,0,0,0,0.1c0,0.1-0.1,0.2-0.1,0.3c0,0,0,0,0,0c0,0.1,0,0.1,0,0.2v3.4c0,2.1,1.3,3.8,3.2,4.4
		c0.4,1.8,2,3.1,3.9,3.1c1.8,0,3.3-1.2,3.8-2.8h12.1c0.5,1.6,2,2.8,3.8,2.8c1.8,0,3.3-1.2,3.8-2.8h0.2c2.6,0,4.6-2.1,4.6-4.6
		C37.8,16.7,35.7,14.7,33.1,14.7z M7,14c0.6-0.7,1.5-1.1,2.5-1.1h15.4c1.2,0,2.2,0.7,2.7,1.7H6.4L7,14z M9.3,24.3
		c-0.8,0-1.5-0.7-1.5-1.5c0-0.8,0.7-1.5,1.5-1.5s1.5,0.7,1.5,1.5C10.8,23.6,10.2,24.3,9.3,24.3z M29.1,24.3c-0.8,0-1.5-0.7-1.5-1.5
		c0-0.8,0.7-1.5,1.5-1.5c0.8,0,1.5,0.7,1.5,1.5C30.6,23.6,29.9,24.3,29.1,24.3z M33.1,21.5h-0.3c-0.5-1.6-2-2.7-3.8-2.7
		s-3.2,1.1-3.8,2.7H13.1c-0.5-1.6-2-2.7-3.8-2.7c-1.6,0-3,1-3.6,2.3c-0.6-0.4-1-1.1-1-1.8v-2.2h24.4h4c1.2,0,2.2,1,2.2,2.2
		C35.3,20.5,34.3,21.5,33.1,21.5z"/>
</g>
</svg>
