<?xml version="1.0" encoding="utf-8"?>
<!-- Generator: Adobe Illustrator 19.0.0, SVG Export Plug-In . SVG Version: 6.00 Build 0)  -->
<svg version="1.1" xmlns="http://www.w3.org/2000/svg" xmlns:xlink="http://www.w3.org/1999/xlink" x="0px" y="0px"
	 viewBox="-29 71.8 100 100" style="enable-background:new -29 71.8 100 100;" xml:space="preserve">
<style type="text/css">
	.st0{fill:#005DA9;}
	.st1{fill:#00ADEE;}
	.st2{fill:none;}
	.st3{fill:#005AA4;}
</style>
<g id="Layer_2">
</g>
<g id="Layer_3">
</g>
<g id="Layer_4">
</g>
<g id="Layer_5">
</g>
<g id="Layer_6">
</g>
<g id="Layer_7">
</g>
<g id="Layer_8">
	<g>
		<g>
			<path class="st0" d="M34.2,110l4.2,10.5h-3.2l-0.9-2.5h-4l-0.9,2.5h-2.6l4.1-10.5H34.2L34.2,110z M33.7,116.3l-1.4-3.8l-1.4,3.8
				H33.7L33.7,116.3z"/>
			<path class="st0" d="M38.7,110h4.5c1.3,0,3.3,0.1,4.8,1.4c1.2,1,1.8,2.6,1.8,3.9c0,0.9-0.3,2.8-2,4.1c-1.3,1-2.8,1.2-4.3,1.2
				h-4.8V110L38.7,110z M41.8,118.6h1.4c0.8,0,1.9-0.1,2.6-1c0.7-0.9,0.7-2,0.7-2.4c0-0.6-0.1-1.7-0.9-2.5c-0.8-0.7-1.8-0.8-2.5-0.8
				h-1.3V118.6L41.8,118.6z"/>
			<path class="st0" d="M56,110l4.2,10.5H57l-0.9-2.5h-4l-0.9,2.5h-2.6l4.1-10.5H56L56,110z M55.5,116.3l-1.4-3.8l-1.4,3.8H55.5
				L55.5,116.3z"/>
			<polygon class="st0" points="21.5,110 21.5,118.6 26.4,118.6 26.4,120.5 18.4,120.5 18.4,110 21.5,110 			"/>
		</g>
		<g>
			<path class="st1" d="M20,132.5h2.1c2.9,0,4.3-1.3,4.3-4.2c0-3.3-1.9-4.2-3.9-4.2H20V132.5L20,132.5z M22.6,122.9
				c1.2,0,5.4,0.1,5.4,5.4c0,5.3-4.1,5.4-6,5.4h-3.6v-10.8H22.6L22.6,122.9z"/>
			<path class="st1" d="M35.3,129.2c0-1.1-0.4-2.6-2.3-2.6c-2.1,0-2.6,1.6-2.6,2.6H35.3L35.3,129.2z M36.7,131.5
				c-0.2,1.1-1.1,2.6-3.6,2.6c-4.1,0-4.2-3.5-4.2-4.2c0-1.1,0.2-4.3,4-4.3c3.3,0,3.8,2.5,3.8,4.2c0,0.1,0,0.3,0,0.4h-6.4
				c0,1.3,0.7,3,2.6,3c1.4,0,2.1-0.8,2.3-1.6H36.7L36.7,131.5z"/>
			<polygon class="st1" points="36.6,126.8 36.6,125.9 43.8,125.9 43.8,126.8 40.9,126.8 40.9,133.7 39.5,133.7 39.5,126.8 
				36.6,126.8 			"/>
			<path class="st1" d="M49.8,129.7c-0.4,0.3-0.9,0.3-1.8,0.4c-1.3,0.2-2.4,0.3-2.4,1.5c0,0.9,0.7,1.5,1.6,1.5
				c1.1,0,2.4-0.5,2.6-2.7L49.8,129.7L49.8,129.7z M44.4,128.2c0-1.1,0.6-2.6,3.5-2.6c1.3,0,3.3,0.4,3.3,2.6l-0.1,3.6
				c0,0.6,0,1,0.9,0.9v1c-0.2,0-0.3,0.1-0.7,0.1c-0.8,0-1.3-0.1-1.5-1.1c-0.6,1-1.7,1.4-2.8,1.4c-1.7,0-2.9-0.7-2.9-2.4
				c0-1.4,0.7-2.2,4.1-2.5c1.2-0.1,1.6-0.1,1.6-1.1c0-0.4,0-1.6-1.9-1.6c-0.5,0-2.2,0-2.2,1.7H44.4L44.4,128.2z"/>
			<path class="st1" d="M52.6,132.7c2,0.4,2-2,2-3.9v-3h5.7v7.9h-1.4v-6.9h-3v2c0,2.7-0.3,5.4-3.3,4.9V132.7L52.6,132.7z"/>
			<path class="st1" d="M63.1,132.8h2c1.9,0,1.9-1.1,1.9-1.5c0-1.4-1.5-1.3-2.2-1.3h-1.7V132.8L63.1,132.8z M63.1,125.9v3.1h2.1
				c1.2,0,3.3,0.1,3.3,2.3c0,2.4-2.1,2.4-2.8,2.4h-4v-7.9H63.1L63.1,125.9z"/>
		</g>
		<g>
			<path class="st2" d="M5.2,119.1c-1-0.8-2.1-1.4-3.3-1.9c-1.7-0.7-3.5-1.1-5.2-1.4c-2.3-0.4-4.6-0.5-6.8-0.5
				c-0.1,0.1-0.1,0.3-0.1,0.4c0,0.2-0.1,0.4-0.1,0.6c0.6,0.3,1,0.8,1,1.4c0,0.4,0,0.9-0.1,1.3c-0.2,0.9-0.7,1.8-1.3,2.5
				c-0.4,0.5-0.8,0.9-1.3,1.3v-3v-4.5c-1.7,0.1-3.4,0.4-5.1,0.7c-1.6,0.4-3.1,0.8-4.6,1.5c-0.9,0.4-1.7,0.9-2.4,1.6
				c-0.5,0.4-0.8,0.9-1.1,1.5c-0.2,0.6-0.3,1.3,0,1.9c0.3,0.8,0.9,1.5,1.6,2.1c1.1,0.8,2.3,1.4,3.6,1.9c1.2,0.4,2.5,0.8,3.7,1
				c1.4,0.3,2.9,0.4,4.3,0.5c0.8,0.1,1.5,0.1,2.3,0.1c2.1,0,4.2-0.1,6.3-0.5c1.8-0.3,3.6-0.7,5.3-1.4c1.1-0.5,2.3-1.1,3.2-1.9
				c0.6-0.5,1.1-1.2,1.3-1.9c0.2-0.6,0.1-1.2-0.1-1.8C6.1,120.1,5.7,119.5,5.2,119.1z M3.7,123.3c-0.5,0.7-1.1,1.2-1.8,1.6
				c-1.1,0.7-2.4,1.2-3.7,1.5c-1.9,0.5-3.9,0.8-6,0.9c-1.4,0.1-2.8,0-4.2-0.1c-0.7-0.1-1.4-0.1-2.1-0.2c-1.2-0.2-2.4-0.4-3.5-0.8
				c-1.3-0.4-2.5-0.9-3.6-1.7c-0.6-0.5-1.3-1.1-1.5-1.8c-0.2-0.6-0.2-1.2,0-1.7c0.2-0.6,0.6-1.1,1.1-1.5c0.6-0.5,1.2-0.9,1.9-1.2
				c1.4-0.7,2.8-1.1,4.3-1.4c1-0.2,2-0.4,3-0.5c0.1,0,0.2,0,0.3,0c0,0.1,0,0.3-0.1,0.4c-0.4,2.3-0.8,4.6-1.3,6.9
				c-0.1,0.4,0.1,0.8,0.5,1c0.2,0.1,0.5,0.1,0.7,0.1c0.1,0,0.2,0,0.4-0.1c1.5-0.2,2.8-0.8,4-1.7c0.3,0.2,0.6,0.5,0.6,0.8
				c0.1,0.3-0.1,0.6-0.4,0.8c-0.4,0.4-0.9,0.6-1.4,0.7c-0.9,0.3-1.9,0.4-2.9,0.3c-0.1,0-0.2,0-0.3,0c-0.8,0-1.5-0.2-2.3-0.4
				c-0.1,0-0.1,0-0.2,0c0,0.2-0.1,0.5-0.1,0.7c0.9,0.2,1.9,0.4,2.8,0.5c0.2,0,0.3,0,0.5,0.1c1,0.1,2.1,0.1,3.1,0
				c0.8-0.1,1.7-0.2,2.4-0.6c0.3-0.2,0.7-0.4,0.9-0.7c0.1-0.2,0.1-0.5,0-0.7c-0.2-0.4-0.5-0.6-0.9-0.8c-0.2-0.1-0.4-0.3-0.5-0.5
				c-0.1-0.1,0-0.2,0.1-0.3c0.3-0.1,0.6,0,1,0c0-0.2-0.1-0.4-0.1-0.6c-0.5-0.1-1.1-0.1-1.6-0.2c0-0.1,0-0.1,0.1-0.2
				c0.9-0.9,1.5-2.1,1.7-3.4c0.1-0.7,0-1.5-0.3-2.2c0,0,0,0,0,0c1.6,0.2,3.2,0.5,4.7,1c0.9,0.3,1.8,0.7,2.7,1.2
				c0.6,0.4,1.3,0.9,1.7,1.5c0.4,0.5,0.6,1,0.6,1.6C4.3,122.3,4,122.8,3.7,123.3z"/>
			<path class="st3" d="M-11.9,102.9v11.9c-2.1,0.1-4.2,0.4-6.2,0.9c-1.8,0.4-3.7,1-5.3,1.9c-1,0.5-1.9,1.2-2.6,2
				c-0.5,0.6-0.9,1.4-0.9,2.2c0,0.8,0.4,1.6,0.9,2.2c0.8,1,2,1.7,3.2,2.3c2.1,1,4.5,1.6,6.8,2c1.4,0.2,2.8,0.4,4.2,0.5v11.9h26
				v-37.8H-11.9z M6.5,122.5c-0.2,0.8-0.7,1.4-1.3,1.9c-0.9,0.8-2.1,1.4-3.2,1.9c-1.7,0.7-3.5,1.1-5.3,1.4c-2.1,0.3-4.2,0.5-6.3,0.5
				c-0.8,0-1.5,0-2.3-0.1c-1.4-0.1-2.9-0.3-4.3-0.5c-1.3-0.3-2.5-0.6-3.7-1c-1.3-0.5-2.5-1.1-3.6-1.9c-0.7-0.6-1.3-1.2-1.6-2.1
				c-0.2-0.6-0.2-1.3,0-1.9c0.2-0.6,0.6-1.1,1.1-1.5c0.7-0.7,1.5-1.2,2.4-1.6c1.4-0.7,3-1.2,4.6-1.5c1.7-0.4,3.4-0.6,5.1-0.7l0.9,0
				l-0.9,7.6c0.5-0.4,0.9-0.8,1.3-1.3c0.6-0.8,1-1.6,1.3-2.5c0.1-0.4,0.1-0.8,0.1-1.3c0-0.6-0.5-1.2-1-1.4c0-0.2,0.1-0.4,0.1-0.6
				c0-0.1,0-0.3,0.1-0.4c2.3,0,4.6,0.1,6.8,0.5c1.8,0.3,3.6,0.7,5.2,1.4c1.2,0.5,2.3,1.1,3.3,1.9c0.5,0.5,1,1,1.3,1.7
				C6.6,121.3,6.7,122,6.5,122.5z"/>
			<path class="st3" d="M1.9,118.6c-0.8-0.5-1.7-0.9-2.7-1.2c-1.5-0.5-3.1-0.8-4.7-1c0,0,0,0,0,0c0.3,0.7,0.4,1.4,0.3,2.2
				c-0.2,1.3-0.8,2.5-1.7,3.4c-0.1,0-0.1,0.1-0.1,0.2c0.5,0,1.1,0.1,1.6,0.2c0,0.2,0.1,0.4,0.1,0.6c-0.3,0-0.6-0.1-1,0
				c-0.1,0-0.1,0.2-0.1,0.3c0.1,0.2,0.3,0.3,0.5,0.5c0.3,0.2,0.7,0.4,0.9,0.8c0.1,0.2,0.1,0.5,0,0.7c-0.2,0.3-0.5,0.6-0.9,0.7
				c-0.8,0.4-1.6,0.5-2.4,0.6c-1,0.1-2.1,0-3.1,0c-0.2,0-0.3,0-0.5-0.1c-1-0.1-1.9-0.2-2.8-0.5c0-0.2,0.1-0.5,0.1-0.7
				c0.1,0,0.1,0,0.2,0c0.7,0.2,1.5,0.4,2.3,0.4c0.1,0,0.2,0,0.3,0c1,0,2-0.1,2.9-0.3c0.5-0.2,1-0.4,1.4-0.7c0.2-0.2,0.4-0.5,0.4-0.8
				c-0.1-0.4-0.4-0.6-0.6-0.8c-1.2,0.9-2.6,1.5-4,1.7c-0.1,0-0.2,0-0.4,0.1c-0.2,0-0.5,0.1-0.7-0.1c-0.3-0.2-0.5-0.6-0.5-1
				c0.4-2.3,0.8-4.6,1.3-6.9c0-0.1,0.1-0.3,0.1-0.4c-0.1,0-0.2,0-0.3,0c-1,0.1-2,0.2-3,0.5c-1.5,0.3-2.9,0.8-4.3,1.4
				c-0.7,0.3-1.3,0.7-1.9,1.2c-0.5,0.4-0.9,0.9-1.1,1.5c-0.2,0.6-0.2,1.2,0,1.7c0.3,0.8,0.9,1.4,1.5,1.8c1.1,0.8,2.4,1.3,3.6,1.7
				c1.1,0.4,2.3,0.6,3.5,0.8c0.7,0.1,1.4,0.2,2.1,0.2c1.4,0.1,2.8,0.1,4.2,0.1c2-0.1,4-0.4,6-0.9c1.3-0.4,2.5-0.8,3.7-1.5
				c0.7-0.4,1.3-0.9,1.8-1.6c0.3-0.5,0.5-1,0.5-1.6c0-0.6-0.3-1.2-0.6-1.6C3.1,119.5,2.5,119,1.9,118.6z"/>
		</g>
	</g>
</g>
</svg>
