<?xml version="1.0" encoding="utf-8"?>
<!-- Generator: Adobe Illustrator 19.0.0, SVG Export Plug-In . SVG Version: 6.00 Build 0)  -->
<svg version="1.1" id="Layer_2" xmlns="http://www.w3.org/2000/svg" xmlns:xlink="http://www.w3.org/1999/xlink" x="0px" y="0px"
	 viewBox="-29 71.8 100 100" style="enable-background:new -29 71.8 100 100;" xml:space="preserve">
<style type="text/css">
	.st0{fill:#005CA1;}
</style>
<g id="_x23_005ca1ff">
	<path class="st0" d="M47.1,111.1c1.1-0.2,2.4-0.3,3.5-0.3c1-0.1,2.2,0,3.2,0c2.1,0.1,4.2,0.2,6.3,0.8c0.9,0.2,1.7,0.7,2.4,1.3
		c0.9,0.7,1.7,1.7,2.1,2.7c0.7,1.7,0.7,3.7,0.7,5.5c0,2.2,0,4.3-0.7,6.5c-0.5,1.5-1.5,2.7-2.9,3.7c-1.1,0.7-2.5,1-3.8,1.3
		c-3.4,0.6-6.9,0.3-10.3,0c-0.7-0.1-1.4-0.2-1.9-0.6c-0.5-0.3-0.6-0.9-0.7-1.4c0-1.7-0.1-3.5-0.1-5.3c0-0.7-0.2-1.3-0.6-1.7
		c-0.6-0.6-1.5-0.9-2.3-1.1c-0.5-0.1-1-0.1-1.4-0.3c0.1-0.3,0.5-0.3,0.8-0.3c0.9-0.2,1.9-0.6,2.5-1.3c0.8-0.9,1.1-2.2,1.1-3.3
		c0.1-1.6-0.6-3.3-1.9-4.2C44.5,111.7,45.9,111.3,47.1,111.1 M51.9,114.8c-0.7,0.1-1.3,0.7-1.4,1.3c-0.1,0.3,0,0.8,0,1.1
		c0,3.1,0,6.2,0,9.3c0,0.5-0.1,1,0.2,1.4c0.5,0.6,1.3,0.8,1.9,0.8c0.8,0,1.6-0.1,2.2-0.7c0.2-0.3,0.3-0.7,0.3-1.1c0-3.4,0-7,0-10.4
		c0-0.6-0.3-1-0.8-1.3C53.6,114.7,52.7,114.5,51.9,114.8z"/>
	<path class="st0" d="M-19.9,111.5c4.6,0,9.1,0,13.7,0c1.7,4.9,3.3,9.7,4.9,14.6c0.7,2.1,1.4,4.2,2.1,6.3c-3.4,0-6.7,0-10.2,0
		c-0.3-1.1-0.7-2.3-0.9-3.4c-1.9,0-3.8,0-5.7,0c-0.3,1.1-0.7,2.3-0.9,3.4c-0.7,0-1.4,0-2.1,0c-2.7,0-5.5,0-8.2,0
		C-24.7,125.4-22.2,118.4-19.9,111.5 M-13,115.3c-0.7,3.3-1.4,6.6-2.2,9.8c1.5,0,2.9,0,4.3,0c-0.7-3.4-1.4-6.9-2.1-10.2
		C-13,115.1-13,115.2-13,115.3z"/>
	<path class="st0" d="M-1.5,111.3c5.4,0,10.7,0,16.1,0c1.7,0,3.5,0.1,5.1,0.8c0.9,0.3,1.8,0.9,2.4,1.8c0.7,1,0.8,2.4,0.5,3.5
		c-0.3,0.9-1,1.7-1.8,2.2c-1.1,0.7-2.5,0.8-3.8,1.1c-0.3,0.1-0.8,0.2-0.7,0.7c0.3,0.2,0.8,0.3,1.3,0.3c1.4,0.2,2.6,0.6,3.9,1.3
		c0.9,0.6,1.7,1.5,1.9,2.5c0.3,1.3,0.2,2.5-0.5,3.7c-0.6,0.9-1.5,1.6-2.4,2.1c-1.5,0.7-3.1,0.9-4.6,1c-4.6,0-9,0-13.6,0
		c-1-3.3-2.2-6.6-3.3-9.9c-0.1-0.3-0.2-0.7-0.2-1C-1.5,118-1.5,114.7-1.5,111.3 M8.5,115.3c0,1.4,0,2.9,0,4.2c0.5,0,0.9,0,1.4,0
		c0.6,0,1,0,1.6-0.1c0.7-0.2,1.3-0.7,1.4-1.4s0.1-1.4-0.3-1.9c-0.5-0.6-1.1-0.8-1.8-0.8C9.8,115.3,9.2,115.3,8.5,115.3 M8.4,123.6
		c0,1.5,0,3.1,0,4.6c0.7,0,1.4,0,2.1,0c0.7,0,1.3-0.2,1.8-0.6c0.5-0.3,0.8-0.9,0.8-1.5c0-0.5,0-0.9-0.1-1.4c-0.2-0.7-1-1.1-1.8-1.1
		C10.2,123.6,9.3,123.6,8.4,123.6z"/>
	<path class="st0" d="M19.9,111.5c1.9,0.1,4,0,5.9,0c3.9,0,7.8,0,11.7,0c1.7,0.1,3.4,0.6,4.8,1.6c0.9,0.7,1.6,1.7,1.7,2.9
		c0.2,1,0.1,2.2-0.6,3.1c-0.6,0.8-1.4,1.3-2.2,1.5c-0.7,0.2-1.4,0.5-2.1,0.6c-0.2,0.1-0.5,0.1-0.7,0.2c-0.1,0.2-0.1,0.5,0.1,0.6
		c0.5,0.2,1,0.3,1.5,0.5c0.9,0.2,1.8,0.6,2.6,1c0.5,0.3,0.9,0.8,1,1.4c0.1,0.3,0.1,0.8,0.1,1.1c0,0.9,0,1.8,0,2.7
		c0,0.8,0,1.7,0.1,2.5c0.1,0.5,0.5,0.8,0.9,1c-1.3,0-2.6,0-3.9,0c-1.8,0-3.8,0-5.6,0c-0.5,0-1-0.1-1.4-0.6c-0.2-0.2-0.3-0.5-0.3-0.7
		c0-1.8,0-3.7,0-5.5c0-0.3-0.1-0.8-0.2-1.1c-0.2-0.3-0.5-0.7-0.8-0.9c-0.5-0.2-0.9-0.3-1.4-0.3c-0.7,0-1.4,0-2.1,0c0,3,0,5.9,0,8.9
		c-3.1,0-6.3,0-9.4,0c1.3-0.3,2.4-0.9,3.3-1.8c1-1,1.5-2.4,1.5-3.9c0-1.3-0.3-2.5-1.3-3.3c-0.8-0.8-1.9-1.3-3.1-1.5
		c-0.3-0.1-0.8-0.1-1.1-0.3c0-0.1,0-0.3,0.2-0.3c0.6-0.2,1.1-0.3,1.7-0.5c1-0.2,2.1-0.9,2.6-1.8c0.6-1.1,0.7-2.5,0.3-3.8
		c-0.2-1.1-0.9-2.3-2.1-2.9C21.4,111.7,20.7,111.6,19.9,111.5 M29.4,115c0,1.5,0,3.1,0,4.6c0.8,0,1.6,0,2.4,0s1.7-0.6,1.9-1.4
		c0.2-0.8,0.2-1.6-0.2-2.3c-0.5-0.6-1.1-0.9-1.9-0.9C30.9,115,30.1,115,29.4,115z"/>
	<path class="st0" d="M66.7,111.8c0.7-0.1,1.4,0.1,1.9,0.6c0.8,0.8,0.8,2.2,0,3c-0.7,0.7-1.7,0.8-2.5,0.3c-0.9-0.5-1.4-1.7-0.9-2.6
		C65.3,112.4,66,111.9,66.7,111.8 M66.8,112.1c-0.3,0.1-0.7,0.2-0.9,0.5c-0.7,0.7-0.6,1.9,0.1,2.5c0.6,0.6,1.7,0.6,2.3-0.1
		c0.7-0.7,0.7-1.8,0-2.5C67.8,112.3,67.2,112,66.8,112.1z"/>
	<path class="st0" d="M66.2,112.7c0.5,0,0.9,0,1.4,0c0.5,0.1,0.6,0.9,0.1,1.1c-0.1,0.1-0.2,0.1-0.3,0.1c0.2,0.3,0.5,0.7,0.7,1
		c-0.1,0-0.2,0-0.3,0c-0.2-0.3-0.5-0.7-0.7-1c-0.1,0-0.2,0-0.3,0c0,0.3,0,0.7,0,1c-0.1,0-0.2,0-0.3,0
		C66.2,114.3,66.2,113.5,66.2,112.7 M66.7,112.9c0,0.2,0,0.5,0,0.7c0.2,0,0.6,0,0.8,0c0.2-0.1,0.2-0.3,0.2-0.6
		C67.4,112.8,66.9,112.9,66.7,112.9z"/>
</g>
</svg>
