<?xml version="1.0" encoding="utf-8"?>
<!-- Generator: Adobe Illustrator 19.0.0, SVG Export Plug-In . SVG Version: 6.00 Build 0)  -->
<svg version="1.1" id="Layer_1" xmlns="http://www.w3.org/2000/svg" xmlns:xlink="http://www.w3.org/1999/xlink" x="0px" y="0px"
	 viewBox="176 -99 100 100" enable-background="new 176 -99 100 100" xml:space="preserve">
<g>
	<g id="_x23_0a589fff">
		<path fill="#0A589F" d="M238-92.3c1.9,2.5,2.8,5.9,2.2,9c2.2,2,2.6,5.3,1.9,8c1.1,1,1.8,2.5,2.2,3.9c0.5,2.2,0,4.5-0.8,6.5
			c-0.9,1.6-2.3,3.1-4.2,3.7c1,1.3,2.1,2.6,3.1,4c1.1-2.7,2.1-5.4,3.2-8.1c5.2,0,10.4,0,15.6,0c4,11.3,8,22.5,12,33.8
			c0.1,0.5,0.5,0.9,0.2,1.4c0.1,0,0.4,0,0.5,0v0.1c-5.9,0-11.8,0-17.7,0c-0.4-0.1-0.9,0.2-1.2-0.1c0.1-0.1,0.2-0.2,0.2-0.2
			c-0.6-1.4-0.9-2.9-1.4-4.4c-0.4,0-0.7,0-1,0c-0.5,1.6-0.9,3.2-1.4,4.7l0.3-0.1c0,0,0,0.1,0,0.1c-5.5,0.1-11,0-16.4,0
			c-0.4,0-0.8,0.1-1.2-0.1c0.1,0,0.3-0.1,0.4-0.1l-0.1-0.4c0-0.1,0.1-0.4,0.1-0.6c-3.6,1.3-7.5,1.9-11.3,1.3c-1.6-0.3-3-0.8-4.4-1.6
			c0.1,0.5,0.1,0.9,0.1,1.4c-6.1,0-12.3,0-18.4,0c-0.5-1.5-0.9-3.1-1.3-4.6c-0.4,0-0.8,0-1.2,0c-0.5,1.5-1,3-1.5,4.6
			c-6.2,0.1-12.4,0-18.5,0.1V-30c0.1,0,0.3-0.1,0.4-0.1c0-0.2,0.1-0.5,0.2-0.7c3.6-10,7.3-20.1,10.9-30.1c0.6-1.5,1-3.1,1.7-4.5
			l-0.2,0c4.3-0.1,8.5,0,12.8,0c0.4,0,0.8,0,1.2,0.1l0,0.2l0.5-0.1c-0.7-3.4,0-7.1,2.1-9.9c2.3-2.9,5.7-4.6,9.2-5.6
			c2.1-0.4,4.2-0.5,6.3-0.7c2.2-0.3,4.3-1,6.3-2C233.1-85.3,236.2-88.5,238-92.3"/>
		<path fill="#0A589F" d="M263-69.8c1.6-0.5,3.3,1,3.1,2.6c0,1.5-1.6,2.7-3.1,2.3c-1.4-0.2-2.3-1.8-1.9-3.2
			C261.4-69,262.1-69.7,263-69.8 M262.8-69.2c-1.3,0.6-1.6,2.6-0.4,3.5c1.1,1,3,0.3,3.3-1.2C266-68.5,264.2-70,262.8-69.2z"/>
		<path fill="#0A589F" d="M262.5-68.8c0.6,0,1.3-0.1,1.9,0.1c0.6,0.2,0.6,1.1,0.1,1.4c0.4,0.3,0.4,0.8,0.4,1.3c-0.3,0-0.5,0-0.8-0.1
			c0-0.3,0-0.6-0.1-0.8c-0.2,0-0.5-0.1-0.7-0.1c0,0.3,0,0.7,0,1c-0.3,0-0.5,0-0.8,0C262.5-66.9,262.5-67.8,262.5-68.8 M263.3-68.2
			c0,0.2,0,0.5,0,0.7c0.3,0,0.7,0,0.8-0.3C264-68.3,263.6-68.3,263.3-68.2z"/>
	</g>
	<g id="_x23_ec403bff">
		<g id="XMLID_1_">
			<g>
				<path fill="#FFFFFF" d="M270.9-32.5c-4.7,0-9.4,0-14.2,0c-0.4-1.3-0.9-2.5-1.3-3.8c-1.4-0.1-2.8,0-4.1,0c-0.4,1.3-0.8,2.7-1.3,4
					c-4.7,0-9.3,0-14,0c0.2-0.7,0.6-1.4,0.7-2.1c-2,1.8-4.8,2.5-7.4,2.7c-4.2,0.3-8.7,0-12.4-2.3c-0.7-0.4-1.2-1-1.8-1.4
					c0.3,1,0.6,2.1,0.9,3.1c-4.7,0-9.3,0-14,0c-0.3-1.4-0.7-2.8-1-4.2c-1.3,0-2.7,0-4,0c-0.6,1.5-1.1,3-1.7,4.4c-4.7,0-9.3,0-14,0
					c3.7-10.4,7.5-20.7,11.2-31.1c4.3,0,8.5,0,12.8,0c1.6,4.5,3.2,8.9,4.8,13.4c0.8-4.3,2.9-8.5,6.5-11.1c3.2-2.4,7.4-2.9,11.3-2.9
					c4.3-0.4,8.4-2.4,11.5-5.3c0.9-0.8,1.7-1.9,2.6-2.8c0.7,2.5,0.4,5.3-1.2,7.4c-1.1,1.5-2.7,2.4-4.3,3.2c2.5,2.3,4.7,5.2,5.5,8.6
					c0.3,0.9,0.2,1.9,0.4,2.8c0.1-0.7,0.4-1.4,0.7-2c1.4-3.6,2.8-7.2,4.1-10.9c4.3,0,8.6,0,12.9,0C263.5-52.7,267.2-42.6,270.9-32.5
					z M258.7-35.4c2.7,0.1,5.3,0,8,0c-2.9-8.2-5.8-16.4-8.8-24.6c-3,0-6,0-9.1,0c-3,8.2-6,16.4-9,24.7c2.7,0,5.4,0,8.1,0.1
					c0.4-1.4,0.9-2.8,1.3-4.2c2.7,0,5.4,0,8.1,0C258-38.2,258.3-36.7,258.7-35.4z M204-35.3c2.7,0,5.4,0,8.1,0
					c-2.9-8.2-5.8-16.4-8.8-24.7c-3,0-6,0-9.1,0c-2.9,8.2-5.9,16.4-8.9,24.7c2.7,0,5.4,0,8,0c0.4-1.4,0.9-2.8,1.3-4.2
					c2.7,0,5.5,0,8.2,0C203.2-38.1,203.6-36.7,204-35.3z"/>
				<path fill="#0A589F" d="M266.7-35.3c-2.7,0-5.3,0-8,0c-0.4-1.4-0.8-2.8-1.3-4.1c-2.7,0-5.4,0-8.1,0c-0.4,1.4-0.9,2.8-1.3,4.2
					c-2.7-0.1-5.4-0.1-8.1-0.1c3-8.2,6-16.4,9-24.7c3,0,6,0,9.1,0C260.9-51.8,263.8-43.6,266.7-35.3z M256-45.2
					c-0.7-2.3-1.4-4.6-2.1-6.8c-0.1-0.4-0.2-0.8-0.4-1.2c-0.9,2.7-1.8,5.3-2.8,8C252.5-45.1,254.2-45.2,256-45.2z"/>
				<path fill="#FFFFFF" d="M253.9-52c0.7,2.3,1.4,4.6,2.1,6.8c-1.8,0-3.6,0.1-5.3,0c0.9-2.7,1.9-5.3,2.8-8
					C253.7-52.9,253.8-52.4,253.9-52z"/>
				<path fill="#FFFFFF" d="M239.3-79.8c0.9,2.1,0.8,4.8-0.5,6.7c-1.4,2.1-3.6,3.5-5.9,4.5c-2.3,1.1-4.9,1.5-7.4,1.7
					c-4.5,0.2-9,1.6-12.3,4.7c-1.5,1.4-2.5,3.2-3.3,5.1c-0.9-2.7-0.7-5.8,0.8-8.2c1.6-2.6,4.4-4.3,7.3-5.3c2.7-1.1,5.7-0.9,8.6-1.2
					c4.8-0.7,9.1-3.5,12.1-7.3C238.8-79.3,239-79.6,239.3-79.8z"/>
				<path fill="#FFFFFF" d="M237.5-87.6c0.8,2.1,0.6,4.6-0.6,6.5c-1.7,2.7-4.6,4.3-7.4,5.4c-2.3,0.7-4.8,1.1-7.2,1.2
					c-3.6,0.4-7.2,1.6-10,3.9c-1.9,1.5-3.3,3.5-4.1,5.8c-0.9-2.7-0.7-5.8,0.8-8.3c1.5-2.6,4.3-4.2,7-5.1c2.8-1,5.8-1,8.7-1.2
					c3.7-0.5,7.2-2.3,9.9-4.9C235.7-85.3,236.5-86.5,237.5-87.6z"/>
				<path fill="#0A589F" d="M212.1-35.3c-2.7,0-5.4,0-8.1,0c-0.4-1.4-0.8-2.7-1.1-4.1c-2.7,0-5.5,0-8.2,0c-0.4,1.4-0.9,2.8-1.3,4.2
					c-2.7,0-5.4-0.1-8,0c3-8.2,6-16.4,8.9-24.7c3,0,6,0,9.1,0C206.3-51.8,209.2-43.6,212.1-35.3z M196.1-45.2c1.8,0,3.5,0,5.3,0
					c-0.8-2.5-1.5-4.9-2.3-7.4c-0.1-0.2-0.1-0.5-0.3-0.6C197.9-50.5,197-47.9,196.1-45.2z"/>
				<path fill="#FFFFFF" d="M196.1-45.2c0.9-2.7,1.9-5.3,2.7-8c0.3,0.1,0.2,0.4,0.3,0.6c0.7,2.5,1.5,4.9,2.3,7.4
					C199.6-45.2,197.9-45.2,196.1-45.2z"/>
			</g>
			<g>
			</g>
		</g>
	</g>
</g>
<path fill="#EC403B" d="M215.6-56.9c2.1-2.5,5.4-3.7,8.6-4c3.5-0.2,7.3,0.3,10.3,2.3c1.5,1,2.8,2.3,3.6,3.9
	c-2.2,1.1-4.3,2.2-6.5,3.2c-1.4-3-5.3-4-8.2-2.7c-2,0.9-2.9,3.1-3.2,5.1c-0.2,2.2,0,4.6,1.2,6.5c1.8,2.9,6.4,3.6,8.9,1.3
	c0.8-0.7,1.4-1.6,1.7-2.6c-2.2,0-4.3,0-6.5,0c0-1.8,0-3.7,0-5.5c4.6,0,9.2-0.1,13.8,0c-0.1,3.7-0.7,7.7-3.1,10.7
	c-2.3,3-6.2,4.6-9.9,4.5c-3.5,0-7.3-0.8-10-3.2c-2.9-2.6-4-6.6-3.8-10.4C212.6-51.1,213.4-54.5,215.6-56.9z"/>
</svg>
