<?xml version="1.0" encoding="utf-8"?>
<!-- Generator: Adobe Illustrator 19.0.0, SVG Export Plug-In . SVG Version: 6.00 Build 0)  -->
<svg version="1.1" xmlns="http://www.w3.org/2000/svg" xmlns:xlink="http://www.w3.org/1999/xlink" x="0px" y="0px"
	 viewBox="0 0 512 512" style="enable-background:new 0 0 512 512;" xml:space="preserve">
<style type="text/css">
	.st0{fill:#FFFFFF;}
	.st1{fill:#017B51;}
	.st2{fill:#C4001C;}
</style>
<g id="Layer_2">
</g>
<g id="Layer_1">
	<g id="XMLID_23_">
		<path id="XMLID_3_" class="st0" d="M88.8,201.5c-8.9,0.1-17.9,0.1-26.6,2c-10.7,2.3-21.1,7-28.9,14.9
			c-8.3,8.7-13.6,20.2-14.8,32.2c-1,9.8,0.8,19.9,5.1,28.8c5.1,10.5,13.3,19.7,24,24.7c11.7,5.6,24.9,6.4,37.6,6.4
			c125.8,0,251.6,0,377.3,0c10.1-36.3,20.1-72.7,30.2-109C358.1,201.5,223.4,201.5,88.8,201.5z"/>
		<g>
			<g>
				<path class="st1" d="M83.2,197.7h414.8v0.2c-10.9,38.8-21.7,77.6-32.5,116.4H76.2c-8.1-0.5-16.2-1.5-23.8-4.1
					c-7-2.3-13.7-6-19.2-11.1c-7.8-6.9-13.7-15.9-16.7-25.9c-1.4-4.4-2.1-8.9-2.5-13.5v-7.5c0.6-7.3,2.3-14.5,5.4-21.1
					c4.1-8.5,10-16.2,17.9-21.4c7.9-5.5,17.2-8.8,26.6-10.4c5.2-0.8,10.4-1.2,15.6-1.5C80.8,197.9,82,197.9,83.2,197.7z M62.2,203.5
					c-10.7,2.3-21.1,7-28.9,14.9c-8.3,8.7-13.6,20.2-14.8,32.2c-1,9.8,0.8,19.9,5.1,28.8c5.1,10.5,13.3,19.7,24,24.7
					c11.7,5.6,24.9,6.4,37.6,6.4c125.8,0,251.6,0,377.3,0c10.1-36.3,20.1-72.7,30.2-109c-134.6,0-269.3,0-403.9,0
					C79.9,201.6,70.9,201.6,62.2,203.5z"/>
			</g>
			<path id="XMLID_20_" class="st1" d="M57.5,214.1c8.7-3.8,18.6-4.1,27.7-1.7c13.8,3.6,25.5,14.1,30.4,27.5c-21.8,0-43.6,0-65.4,0
				C52.5,231.3,55,222.7,57.5,214.1z"/>
			<path id="XMLID_19_" class="st1" d="M28.1,255.6c0-13.8,6.9-27.4,17.9-35.7c-2.8,10.1-5.7,20.2-8.5,30.3c-1,3.6-2.5,7.1-2.3,10.9
				c0.1,2.3,1.1,4.5,2.9,5.9c2.3,1.8,5.2,2.4,8.1,2.4c23.4,0,46.9,0,70.3,0c-3.2,10-9.9,18.9-18.8,24.6c-8.8,5.7-19.7,8.1-30.1,6.7
				c-10.9-1.3-21.3-6.9-28.5-15.2C32,277.4,28,266.5,28.1,255.6z"/>
		</g>
		<g>
			<path id="XMLID_18_" class="st2" d="M141.9,227.5c5.5-6.8,13.5-11.9,22.3-12.9c5.1-0.5,10.6-0.3,15.2,2.2
				c3.4,1.8,5.6,5.4,6.1,9.1c1.1,6.4-1.5,12.6-3,18.7c-5.8,1-11.6,2-17.4,2.9c1.7-5.5,3.1-11,4.1-16.6c0.2-1.9-0.6-4.3-2.6-4.9
				c-2.5-0.7-5,0.9-6.7,2.7c-3.4,3.7-5.5,8.5-7.3,13.1c-2.8,7.4-5.1,14.9-6.9,22.5c-1,4.3-1.9,8.7-2,13.1c0,1.9,0.2,4,1.5,5.5
				c1.3,1.6,3.9,1.7,5.6,0.7c1.9-1.2,3.1-3,4.2-4.9c2.2-4,3.5-8.3,4.9-12.6c6-1.2,12-2.4,17.9-3.5c-1.7,5.7-3.4,11.5-5.9,17
				c-2.4,5.2-5.9,10.2-10.9,13.2c-5.9,3.6-13.1,4.1-19.8,3.1c-4.6-0.6-9.2-2.7-11.8-6.7c-1.9-2.8-2.8-6.3-3.1-9.6
				c-0.7-6.2,0.1-12.5,1.4-18.7c1.5-6.8,3.6-13.5,6.3-19.9C136.1,236.4,138.6,231.6,141.9,227.5z"/>
			<path id="XMLID_17_" class="st2" d="M290,218.2c5.8-1,11.6-2,17.4-2.9c-1.6,5.8-3.1,11.5-4.7,17.3c4,0,8,0,12,0
				c-0.9,3.2-1.8,6.5-2.6,9.7c-4,0-8,0-12,0c-3.2,11.3-6.2,22.7-9.6,34c-0.3,1.9-1.4,3.9-0.7,5.8c0.6,1.5,2.4,1.9,3.8,2
				c2.5,0.1,4.9,0,7.4,0c-0.9,3.2-1.8,6.5-2.6,9.7c-4,0-8,0-12,0c-3.3,0-6.7-0.3-9.6-2c-3-1.8-4.4-5.5-3.9-8.8
				c0.7-4.4,1.6-8.8,3.1-12.9c2.6-9.2,5.1-18.5,7.6-27.8c-1.7,0-3.3,0-5,0c0.9-3.2,1.8-6.5,2.6-9.7c1.7,0,3.3,0,5,0
				C287.5,227.8,288.7,223,290,218.2z"/>
			<path id="XMLID_16_" class="st2" d="M408.4,218.5c5.8-1.2,11.6-2.2,17.4-3.3c-5.3,19-10.5,38-15.8,57c-0.6,2.9-1.9,5.9-1.4,8.9
				c0.4,1.8,2.3,2.8,4,2.9c2.2,0.1,4.5,0,6.7,0c-0.6,3.2-1.4,6.5-2,9.7c-4.7,0-9.4,0.1-14.1-0.1c-3.7-0.1-7.7-1.4-9.8-4.7
				c-2.3-3.5-1.8-8-1.1-11.9c0.5-3.5,2-6.7,2.8-10.2C399.5,250.8,404,234.7,408.4,218.5z"/>
			<g>
				<path class="st2" d="M194.3,233.7c4.3-1.8,9-2.5,13.6-3c5.6-0.4,11.5-0.4,16.7,2c3.3,1.4,6,4.2,6.9,7.7
					c1.1,4.2,0.2,8.5-0.9,12.6c-3.5,13.1-7.1,26.2-10.7,39.3c-7.8,2.2-16,3.1-24.1,2.9c-5.2-0.2-10.6-1.9-14.1-5.8
					c-2.9-3.1-3.8-7.5-3.4-11.5c0.3-4.8,2.3-9.5,5.7-13c4.5-4.6,10.7-7.2,16.8-8.8c4.2-1.1,8.6-1.8,12.9-2.2
					c0.9-2.6,1.9-5.3,1.7-8.1c-0.1-1.5-1.1-3-2.4-3.7c-2.2-1.2-4.9-1.1-7.3-0.9c-4.8,0.4-9.6,1.4-14.3,2.8c0.9-3.4,1.7-6.8,2.6-10.2
					L194.3,233.7z M199.2,268.8c-2.5,2.1-3.9,5.4-3.9,8.7c0,2.1,0.5,4.5,2.3,5.9c1.6,1.2,3.6,1,5.5,1c0.9-0.1,1.9,0.1,2.7-0.4
					c1.8-6.6,3.5-13.2,5.3-19.8C206.9,264.8,202.5,266,199.2,268.8z"/>
			</g>
			<path id="XMLID_13_" class="st2" d="M248.8,233.5c6.5-3.1,14-3.4,21.1-2.6c1.8,0.2,3.5,0.6,5.3,1.1c-1,3.3-2,6.7-2.9,10
				c-2.8-0.6-5.6-0.6-8.5-0.6c-2.7,0.1-5.6,0.7-7.7,2.5c-2.3,1.9-3.3,5.5-1.8,8.2c1.3,2.5,3.6,4.2,5.6,6.1c3.5,3.1,7,6.9,8,11.7
				c1.1,5.5-0.1,11.6-3.6,16.1c-3.2,4.1-8,6.8-13,8.1c-5.9,1.5-12.1,1-18.1,0.1c-2.3-0.4-4.6-0.9-6.9-1.5c0.9-3.4,2-6.7,2.9-10
				c4.5,1.2,9.2,1.9,13.9,1.7c2.6-0.2,5.3-1,7.2-2.9c1.5-1.5,2.2-3.7,2-5.8c-0.3-2.3-1.9-4.2-3.5-5.7c-3.6-3.5-7.7-6.6-10.1-11
				c-2.5-4.4-2.3-9.8-0.6-14.5C239.8,239.5,244,235.6,248.8,233.5z"/>
			<path id="XMLID_12_" class="st2" d="M320.2,234.9c6.4-3.1,13.6-4.2,20.7-4.4c3.8,0,7.8,0,11.3,1.6c-1.9,3.3-4.1,6.3-6.1,9.5
				c-3.9-0.5-8-0.5-11.7,0.8c-4.7,17.1-9.4,34.2-14.1,51.3c-5.5,0-11,0-16.5,0C309.3,274.2,314.7,254.5,320.2,234.9z"/>
			<g>
				<path class="st2" d="M369.5,230.8c4.8-0.6,10-0.3,14.4,1.9c3.4,1.7,5.9,5.1,6.9,8.7c1.3,4.5,1.2,9.4,0.5,14
					c-1.1,6.3-3,12.5-5.6,18.3c-2.7,6.1-6.3,12-11.7,16.1c-4.8,3.8-11,5.5-17.1,5.5c-4.7,0-9.7-0.9-13.4-4c-3.2-2.8-4.7-7-5-11.2
					c-0.5-6.4,0.7-12.8,2.8-18.9c2.2-6.6,5.3-13,9.6-18.5C355.5,236.8,361.9,231.9,369.5,230.8z M371.3,241.3c-2.5,0.7-4,3-5.3,5.1
					c-3.1,5.3-5.3,11-7.3,16.8c-1.8,5.6-3.5,11.3-3.5,17.2c0,1.5,0.6,3.4,2.2,3.8c2.2,0.6,4.4-0.8,5.8-2.4c2.9-3.4,4.5-7.5,6.2-11.6
					c2.7-6.9,4.7-14,5.9-21.3c0.3-2.2,0.8-4.6-0.2-6.7C374.3,241,372.6,240.9,371.3,241.3z"/>
			</g>
			<g>
				<path class="st2" d="M72.9,246.7c14.7-0.1,29.4,0,44.1-0.1c1,5.3,1.2,10.8,0.3,16.1c-16.2,0-32.5,0-48.7,0
					c0.5-2,1.2-3.9,1.4-5.9c-1.4,0-3.2,0.5-4.3-0.7c-1.1-1-0.5-3,0.9-3.3c1.6-0.1,3.2,0,4.7-0.1c-0.4,1.3-0.7,2.7-1.3,4
					c0.3,0.3,0.8,0.5,1.2,0.4c1.7-0.1,3.4,0.1,5.1-0.1c1.9-0.6,2.2-3.7,0.2-4.5c-1.8-0.3-3.6,0-5.3-0.1
					C71.8,250.5,72.4,248.6,72.9,246.7z M80.9,247.8c-1.7,0.5-1.6,3.4,0.2,3.7c1.6,0.1,3.2,0.1,4.8,0c1.9-0.3,2.1-3.3,0.2-3.8
					C84.4,247.7,82.6,247.7,80.9,247.8z M77.6,258.3c-1,0.6-1.1,2.2-0.2,2.9c0.5,0.5,1.2,0.4,1.9,0.4c1.2,0,2.4,0.1,3.7-0.1
					c1.2-0.2,2.1-1.7,1.2-2.7c-0.9-1.1-2.5-0.7-3.7-0.8C79.5,258.1,78.4,257.9,77.6,258.3z"/>
			</g>
			<path id="XMLID_6_" class="st2" d="M48.5,247.9c1.5-0.2,3.2-0.1,4.7,0c1.2,0.2,1.4,2.2,0.2,2.5c-1.6,0.2-3.1,0.1-4.7,0.1
				C47.5,250.2,47.5,248.3,48.5,247.9z"/>
			<path id="XMLID_5_" class="st2" d="M61.6,247.8c1.4-0.1,2.8-0.1,4.2,0c1.3,0.1,1.5,2.2,0.3,2.6c-1.3,0.1-2.6,0-3.9,0.1
				c-0.7,0.1-1.5-0.3-1.8-1C60.3,248.7,60.9,248,61.6,247.8z"/>
			<path id="XMLID_4_" class="st2" d="M53.2,253.6c0.8-0.5,1.9-0.2,2.8-0.3c1.1,0.1,2.6-0.3,3.1,0.9c0.5,0.9-0.5,1.7-1.3,1.7
				c-1.5,0-2.9,0.1-4.4-0.1C52.6,255.5,52.5,254.2,53.2,253.6z"/>
			<path id="XMLID_2_" class="st2" d="M45.5,259c1.4-0.2,2.9-0.1,4.3-0.1c1.1,0,1.7,1.6,0.8,2.3c-0.9,0.6-2,0.3-3,0.4
				c-0.9-0.1-1.9,0.2-2.7-0.4C44.2,260.6,44.6,259.2,45.5,259z"/>
			<path id="XMLID_1_" class="st2" d="M58.2,259c1.5-0.1,3.1-0.1,4.7,0c1,0.5,1.1,2.1,0,2.6c-1.4,0.2-2.9,0.1-4.3,0
				C57.2,261.5,57.1,259.5,58.2,259z"/>
		</g>
	</g>
</g>
</svg>
