<?xml version="1.0" encoding="utf-8"?>
<!-- Generator: Adobe Illustrator 19.0.0, SVG Export Plug-In . SVG Version: 6.00 Build 0)  -->
<svg version="1.1" id="Layer_1" xmlns="http://www.w3.org/2000/svg" xmlns:xlink="http://www.w3.org/1999/xlink" x="0px" y="0px"
	 viewBox="-29 71.8 100 100" style="enable-background:new -29 71.8 100 100;" xml:space="preserve">
<style type="text/css">
	.st0{fill-rule:evenodd;clip-rule:evenodd;fill:#034EA1;}
</style>
<g id="Layer_2">
</g>
<g id="Layer_3">
</g>
<g id="Layer_4">
</g>
<g id="Layer_5">
</g>
<g id="Layer_6">
</g>
<g id="Layer_7">
</g>
<g>
	<path class="st0" d="M36.5,118.4l-2,0l-0.6-1.8l-2.8,0l-0.6,1.8l-2,0l2.9-8l2.1,0L36.5,118.4L36.5,118.4z M33.6,115.3l-0.9-2.7
		c-0.1-0.2-0.1-0.4-0.1-0.7l0,0c0,0.2-0.1,0.5-0.1,0.7l-0.9,2.7L33.6,115.3L33.6,115.3z M44,118.4l-6.4,0l0-1l4.1-5.5l-3.8,0l0-1.5
		l6.1,0l0,1l-4,5.5l4,0L44,118.4L44,118.4z M52.9,118.3l-2,0l-0.6-1.8l-2.8,0l-0.6,1.8l-2,0l2.9-8l2.1,0L52.9,118.3L52.9,118.3z
		 M49.9,115.2l-0.9-2.7c-0.1-0.2-0.1-0.4-0.1-0.7l0,0c0,0.2-0.1,0.5-0.1,0.7l-0.9,2.7L49.9,115.2L49.9,115.2z M61.3,118.3l-2.1,0
		l-1.3-2c-0.1-0.2-0.2-0.3-0.3-0.4c-0.1-0.1-0.2-0.2-0.3-0.3c-0.1-0.1-0.2-0.2-0.3-0.2c-0.1,0-0.2-0.1-0.3-0.1l-0.5,0l0,3.1l-1.8,0
		l0-8l2.9,0c1.9,0,2.9,0.7,2.9,2.2c0,0.3,0,0.5-0.1,0.8c-0.1,0.2-0.2,0.5-0.4,0.6c-0.2,0.2-0.3,0.4-0.6,0.5
		c-0.2,0.1-0.5,0.2-0.7,0.3l0,0c0.1,0,0.2,0.1,0.3,0.2c0.1,0.1,0.2,0.2,0.3,0.3c0.1,0.1,0.2,0.2,0.3,0.4c0.1,0.1,0.2,0.3,0.3,0.4
		L61.3,118.3L61.3,118.3z M56.3,111.7l0,2.2l0.8,0c0.4,0,0.7-0.1,0.9-0.3c0.2-0.2,0.4-0.5,0.4-0.8c0-0.7-0.4-1-1.3-1L56.3,111.7
		L56.3,111.7z M62.6,118.3l0-8l2.8,0c2.8,0,4.3,1.3,4.3,3.9c0,1.2-0.4,2.2-1.1,3c-0.8,0.7-1.8,1.1-3.1,1.1L62.6,118.3L62.6,118.3z
		 M64.4,111.7l0,5.1l0.9,0c0.8,0,1.4-0.2,1.8-0.7c0.4-0.5,0.7-1.1,0.7-1.9c0-0.8-0.2-1.4-0.7-1.8c-0.4-0.4-1.1-0.6-1.9-0.6
		L64.4,111.7z"/>
	<path class="st0" d="M28.7,125.7l0-2.5c0-0.2,0-0.4,0.1-0.6c0.1-0.2,0.2-0.4,0.3-0.5c0.1-0.2,0.3-0.3,0.5-0.4
		c0.2-0.1,0.4-0.1,0.7-0.1l2.5,0c0.2,0,0.4,0,0.6,0.1c0.2,0.1,0.4,0.2,0.5,0.3c0.2,0.1,0.3,0.3,0.4,0.5c0.1,0.2,0.1,0.4,0.2,0.7
		l-0.8,0c0-0.2-0.1-0.4-0.2-0.6c-0.2-0.2-0.4-0.2-0.6-0.2l-2.5,0c-0.2,0-0.4,0.1-0.6,0.2c-0.2,0.2-0.2,0.4-0.2,0.6l0,2.5
		c0,0.2,0.1,0.4,0.2,0.6c0.2,0.2,0.4,0.2,0.6,0.2l2.5,0c0.2,0,0.4-0.1,0.6-0.2c0.2-0.2,0.2-0.4,0.2-0.6l0-0.8l-2.5,0l0-0.8l3.3,0
		l0,1.7c0,0.2,0,0.4-0.1,0.6c-0.1,0.2-0.2,0.4-0.4,0.5c-0.1,0.2-0.3,0.3-0.5,0.4c-0.2,0.1-0.4,0.1-0.6,0.1l-2.5,0
		c-0.2,0-0.4,0-0.6-0.1c-0.2-0.1-0.4-0.2-0.5-0.3c-0.2-0.1-0.3-0.3-0.4-0.5C28.8,126.1,28.7,125.9,28.7,125.7L28.7,125.7z
		 M37.4,127.3l0-5.8l4.2,0c0.2,0,0.4,0,0.6,0.1c0.2,0.1,0.4,0.2,0.5,0.3c0.2,0.1,0.3,0.3,0.4,0.5c0.1,0.2,0.1,0.4,0.1,0.7l0,0.8
		c0,0.2,0,0.3-0.1,0.5c-0.1,0.2-0.1,0.3-0.2,0.5c-0.1,0.1-0.2,0.3-0.4,0.4c-0.1,0.1-0.3,0.2-0.5,0.2l1.2,1.1l0,0.6l-0.6,0l-1.7-1.7
		l-2.7,0l0,1.7L37.4,127.3L37.4,127.3z M38.2,124.8l3.3,0c0.2,0,0.4-0.1,0.6-0.2c0.2-0.2,0.2-0.4,0.2-0.6l0-0.8
		c0-0.2-0.1-0.4-0.2-0.6c-0.2-0.2-0.4-0.2-0.6-0.2l-3.3,0L38.2,124.8L38.2,124.8z M46,125.6l0-2.5c0-0.2,0-0.4,0.1-0.6
		c0.1-0.2,0.2-0.4,0.4-0.5c0.1-0.2,0.3-0.3,0.5-0.4c0.2-0.1,0.4-0.1,0.6-0.1l2.5,0c0.2,0,0.4,0,0.6,0.1c0.2,0.1,0.4,0.2,0.5,0.4
		c0.2,0.1,0.3,0.3,0.4,0.5c0.1,0.2,0.1,0.4,0.1,0.6l0,2.5c0,0.2,0,0.4-0.1,0.6c-0.1,0.2-0.2,0.4-0.4,0.5c-0.1,0.1-0.3,0.3-0.5,0.4
		c-0.2,0.1-0.4,0.1-0.6,0.1l-2.5,0c-0.2,0-0.5,0-0.7-0.1c-0.2-0.1-0.4-0.2-0.5-0.3c-0.2-0.1-0.3-0.3-0.4-0.5
		C46,126,46,125.8,46,125.6L46,125.6z M46.8,125.6c0,0.2,0.1,0.4,0.2,0.6c0.2,0.2,0.4,0.2,0.6,0.2l2.5,0c0.2,0,0.4-0.1,0.6-0.2
		c0.2-0.2,0.2-0.4,0.2-0.6l0-2.5c0-0.2-0.1-0.4-0.2-0.6c-0.2-0.2-0.4-0.2-0.6-0.2l-2.5,0c-0.2,0-0.4,0.1-0.6,0.2
		c-0.2,0.2-0.2,0.4-0.2,0.6L46.8,125.6L46.8,125.6z M54.7,125.5l0-4.2l0.8,0l0,4.2c0,0.2,0.1,0.4,0.2,0.6c0.2,0.2,0.4,0.2,0.6,0.2
		l2.5,0c0.2,0,0.4-0.1,0.6-0.2c0.2-0.2,0.2-0.4,0.2-0.6l0-4.2l0.8,0l0,4.2c0,0.2,0,0.4-0.1,0.6c-0.1,0.2-0.2,0.4-0.3,0.5
		c-0.1,0.2-0.3,0.3-0.5,0.4c-0.2,0.1-0.4,0.1-0.7,0.1l-2.5,0c-0.2,0-0.4,0-0.6-0.1c-0.2-0.1-0.4-0.2-0.5-0.3
		c-0.2-0.1-0.3-0.3-0.4-0.5C54.7,126,54.7,125.8,54.7,125.5L54.7,125.5z M63.4,127.1l0-5.8l4.2,0c0.2,0,0.4,0,0.6,0.1
		c0.2,0.1,0.4,0.2,0.5,0.3c0.1,0.1,0.3,0.3,0.4,0.5c0.1,0.2,0.1,0.4,0.1,0.7l0,0.8c0,0.2,0,0.4-0.1,0.6c-0.1,0.2-0.2,0.4-0.3,0.5
		c-0.1,0.2-0.3,0.3-0.5,0.4c-0.2,0.1-0.4,0.1-0.7,0.1l-3.3,0l0,1.7L63.4,127.1L63.4,127.1z M64.3,124.6l3.3,0c0.2,0,0.4-0.1,0.6-0.2
		c0.2-0.2,0.2-0.4,0.2-0.6l0-0.8c0-0.2-0.1-0.4-0.2-0.6c-0.2-0.2-0.4-0.2-0.6-0.2l-3.3,0L64.3,124.6z"/>
	<path class="st0" d="M-27.7,132.9v-0.4c0-0.1,0-0.1,0-0.2c0-0.1,0.1-0.1,0.1-0.2c0,0,0.1-0.1,0.2-0.1c0.1,0,0.1,0,0.2,0h0.3v-0.2
		h0.2v0.2h0.3c0.1,0,0.1,0,0.2,0c0.1,0,0.1,0.1,0.2,0.1c0,0,0.1,0.1,0.1,0.2c0,0.1,0,0.1,0,0.2v0.4c0,0.1,0,0.1,0,0.2
		c0,0.1-0.1,0.1-0.1,0.2c0,0-0.1,0.1-0.2,0.1c-0.1,0-0.1,0-0.2,0h-0.3v0.2h-0.2v-0.2h-0.3c-0.1,0-0.1,0-0.2,0
		c-0.1,0-0.1-0.1-0.2-0.1c0,0-0.1-0.1-0.1-0.2C-27.7,133-27.7,132.9-27.7,132.9L-27.7,132.9z M-27.5,132.9c0,0.1,0,0.1,0.1,0.2
		c0,0,0.1,0.1,0.2,0.1h0.3v-0.9h-0.3c-0.1,0-0.1,0-0.2,0.1c0,0-0.1,0.1-0.1,0.2V132.9L-27.5,132.9z M-26.7,133.1h0.3
		c0.1,0,0.1,0,0.2-0.1c0,0,0.1-0.1,0.1-0.2v-0.4c0-0.1,0-0.1-0.1-0.2c0,0-0.1-0.1-0.2-0.1h-0.3V133.1L-26.7,133.1z M-25,133.5v-1.7
		h1.7v0.2h-1.4v0.5h1.2v0.2h-1.2v0.5h1.4v0.2H-25L-25,133.5z M-22.6,133.5v-0.2h0.2v-1c0-0.1,0-0.1,0-0.2c0-0.1,0.1-0.1,0.1-0.2
		c0,0,0.1-0.1,0.2-0.1c0.1,0,0.1,0,0.2,0h1.2v1.4h0.2v0.2H-22.6L-22.6,133.5z M-22.2,133.3h1.2v-1.2h-1c-0.1,0-0.1,0-0.2,0.1
		c0,0-0.1,0.1-0.1,0.2V133.3L-22.2,133.3z M-19.7,133.5v-1.7h1.7v0.2h-1.4v0.5h1.2v0.2h-1.2v0.5h1.4v0.2H-19.7L-19.7,133.5z
		 M-17.3,133.5v-1.7h1.2c0.1,0,0.1,0,0.2,0c0.1,0,0.1,0.1,0.2,0.1c0,0,0.1,0.1,0.1,0.2c0,0.1,0,0.1,0,0.2v0.2c0,0.1,0,0.1,0,0.2
		c0,0.1-0.1,0.1-0.1,0.2c0,0-0.1,0.1-0.2,0.1c-0.1,0-0.1,0-0.2,0h-1v0.5H-17.3L-17.3,133.5z M-17,132.8h1c0.1,0,0.1,0,0.2-0.1
		c0,0,0.1-0.1,0.1-0.2v-0.2c0-0.1,0-0.1-0.1-0.2c0,0-0.1-0.1-0.2-0.1h-1V132.8L-17,132.8z M-14.8,133.5v-1.2c0-0.1,0-0.1,0-0.2
		c0-0.1,0.1-0.1,0.1-0.2c0,0,0.1-0.1,0.2-0.1c0.1,0,0.1,0,0.2,0h0.7c0.1,0,0.1,0,0.2,0c0.1,0,0.1,0.1,0.2,0.1c0,0,0.1,0.1,0.1,0.2
		c0,0.1,0,0.1,0,0.2v1.2h-0.2V133h-1.2v0.5H-14.8L-14.8,133.5z M-14.5,132.8h1.2v-0.5c0-0.1,0-0.1-0.1-0.2c0,0-0.1-0.1-0.2-0.1h-0.7
		c-0.1,0-0.1,0-0.2,0.1c0,0-0.1,0.1-0.1,0.2V132.8L-14.5,132.8z M-12.2,133.5v-1.2c0-0.1,0-0.1,0-0.2c0-0.1,0.1-0.1,0.1-0.2
		c0,0,0.1-0.1,0.2-0.1c0.1,0,0.1,0,0.2,0h1.2v1.7h-0.2v-1.4h-1c-0.1,0-0.1,0-0.2,0.1c0,0-0.1,0.1-0.1,0.2v1.2H-12.2L-12.2,133.5z
		 M-9.7,133.5v-1.7h0.2v0.6h1c0.1,0,0.1,0,0.2,0c0.1,0,0.1,0.1,0.2,0.1c0,0,0.1,0.1,0.1,0.2c0,0.1,0,0.1,0,0.2v0.1
		c0,0.1,0,0.1,0,0.2c0,0.1-0.1,0.1-0.1,0.2c0,0-0.1,0.1-0.2,0.1c-0.1,0-0.1,0-0.2,0H-9.7L-9.7,133.5z M-9.5,133.3h1
		c0.1,0,0.1,0,0.2-0.1c0,0,0.1-0.1,0.1-0.2v-0.1c0-0.1,0-0.1-0.1-0.2c0,0-0.1-0.1-0.2-0.1h-1V133.3L-9.5,133.3z M-7.2,133.5v-1.7H-7
		v0.7h1.2v-0.7h0.2v1.7h-0.2v-0.7H-7v0.7H-7.2L-7.2,133.5z M-4.7,133.5v-1.7h0.2v0.6h1c0.1,0,0.1,0,0.2,0c0.1,0,0.1,0.1,0.2,0.1
		c0,0,0.1,0.1,0.1,0.2c0,0.1,0,0.1,0,0.2v0.1c0,0.1,0,0.1,0,0.2c0,0.1-0.1,0.1-0.1,0.2c0,0-0.1,0.1-0.2,0.1c-0.1,0-0.1,0-0.2,0H-4.7
		L-4.7,133.5z M-4.4,133.3h1c0.1,0,0.1,0,0.2-0.1c0,0,0.1-0.1,0.1-0.2v-0.1c0-0.1,0-0.1-0.1-0.2c0,0-0.1-0.1-0.2-0.1h-1V133.3
		L-4.4,133.3z M-2.8,133.5v-1.7h0.2v1.7H-2.8L-2.8,133.5z M-1.7,133.5v-1.7h0.2v1.3l1.2-1.3H0v1.7h-0.2v-1.4l-1.2,1.4H-1.7
		L-1.7,133.5z M-1.3,131.4c0,0.1,0,0.1,0,0.2c0,0.1,0.1,0.1,0.1,0.2c0,0,0.1,0.1,0.2,0.1c0.1,0,0.1,0,0.2,0c0.1,0,0.1,0,0.2,0
		c0.1,0,0.1-0.1,0.2-0.1c0,0,0.1-0.1,0.1-0.2c0-0.1,0-0.1,0-0.2h-0.2c0,0.1,0,0.1-0.1,0.2c0,0-0.1,0.1-0.2,0.1c-0.1,0-0.1,0-0.2-0.1
		c0,0-0.1-0.1-0.1-0.2H-1.3L-1.3,131.4z M1.7,133.5v-0.2H2v-1c0-0.1,0-0.1,0-0.2c0-0.1,0.1-0.1,0.1-0.2c0,0,0.1-0.1,0.2-0.1
		c0.1,0,0.1,0,0.2,0h1.2v1.4h0.2v0.2H1.7L1.7,133.5z M2.2,133.3h1.2v-1.2h-1c-0.1,0-0.1,0-0.2,0.1c0,0-0.1,0.1-0.1,0.2V133.3
		L2.2,133.3z M4.6,133.5v-1.7h0.2v1.3l1.2-1.3h0.2v1.7H6v-1.4l-1.2,1.4H4.6L4.6,133.5z M7.1,133v-0.7c0-0.1,0-0.1,0-0.2
		c0-0.1,0.1-0.1,0.1-0.2c0,0,0.1-0.1,0.2-0.1c0.1,0,0.1,0,0.2,0h0.7c0.1,0,0.1,0,0.2,0c0.1,0,0.1,0.1,0.1,0.1c0,0,0.1,0.1,0.1,0.2
		c0,0.1,0,0.1,0,0.2H8.6c0-0.1,0-0.1-0.1-0.2c0,0-0.1-0.1-0.2-0.1H7.6c-0.1,0-0.1,0-0.2,0.1c0,0-0.1,0.1-0.1,0.2v0.7
		c0,0.1,0,0.1,0.1,0.2c0,0,0.1,0.1,0.2,0.1h0.7c0.1,0,0.1,0,0.2-0.1c0,0,0.1-0.1,0.1-0.2h0.2c0,0.1,0,0.1,0,0.2
		c0,0.1-0.1,0.1-0.1,0.2c0,0-0.1,0.1-0.2,0.1c-0.1,0-0.1,0-0.2,0H7.6c-0.1,0-0.1,0-0.2,0c-0.1,0-0.1-0.1-0.2-0.1
		c0,0-0.1-0.1-0.1-0.2C7.1,133.2,7.1,133.1,7.1,133L7.1,133z M9.5,132.1v-0.2h1.7v0.2h-0.7v1.4h-0.2v-1.4H9.5L9.5,132.1z
		 M11.9,133.5v-1.7h1.2c0.1,0,0.1,0,0.2,0c0.1,0,0.1,0.1,0.2,0.1c0,0,0.1,0.1,0.1,0.2c0,0.1,0,0.1,0,0.2v0.2c0,0.1,0,0.1,0,0.2
		c0,0.1-0.1,0.1-0.1,0.2c0,0-0.1,0.1-0.2,0.1c-0.1,0-0.1,0-0.2,0h-1v0.5H11.9L11.9,133.5z M12.1,132.8h1c0.1,0,0.1,0,0.2-0.1
		c0,0,0.1-0.1,0.1-0.2v-0.2c0-0.1,0-0.1-0.1-0.2c0,0-0.1-0.1-0.2-0.1h-1V132.8L12.1,132.8z M14.4,133.5v-1.7h0.2v1.3l1.2-1.3h0.2
		v1.7h-0.2v-1.4l-1.2,1.4H14.4L14.4,133.5z M16.9,133.5v-1.7h1.4v0.2h-1.2v0.4h1c0.1,0,0.1,0,0.2,0c0.1,0,0.1,0.1,0.2,0.1
		c0,0,0.1,0.1,0.1,0.2c0,0.1,0,0.1,0,0.2v0.1c0,0.1,0,0.1,0,0.2c0,0.1-0.1,0.1-0.1,0.2c0,0-0.1,0.1-0.2,0.1c-0.1,0-0.1,0-0.2,0H16.9
		L16.9,133.5z M17.2,133.3h1c0.1,0,0.1,0,0.2-0.1c0,0,0.1-0.1,0.1-0.2V133c0-0.1,0-0.1-0.1-0.2c0,0-0.1-0.1-0.2-0.1h-1V133.3
		L17.2,133.3z M19.4,133.5v-1.7h0.2v0.6h1c0.1,0,0.1,0,0.2,0c0.1,0,0.1,0.1,0.2,0.1c0,0,0.1,0.1,0.1,0.2c0,0.1,0,0.1,0,0.2v0.1
		c0,0.1,0,0.1,0,0.2c0,0.1-0.1,0.1-0.1,0.2c0,0-0.1,0.1-0.2,0.1c-0.1,0-0.1,0-0.2,0H19.4L19.4,133.5z M19.7,133.3h1
		c0.1,0,0.1,0,0.2-0.1c0,0,0.1-0.1,0.1-0.2v-0.1c0-0.1,0-0.1-0.1-0.2c0,0-0.1-0.1-0.2-0.1h-1V133.3L19.7,133.3z M21.9,133.5v-1.7
		h0.2v0.7h0.2v-0.2c0-0.1,0-0.1,0-0.2c0-0.1,0.1-0.1,0.1-0.2c0,0,0.1-0.1,0.2-0.1c0.1,0,0.1,0,0.2,0h0.7c0.1,0,0.1,0,0.2,0
		c0.1,0,0.1,0.1,0.2,0.1c0,0,0.1,0.1,0.1,0.2c0,0.1,0,0.1,0,0.2v0.7c0,0.1,0,0.1,0,0.2c0,0.1-0.1,0.1-0.1,0.2c0,0-0.1,0.1-0.2,0.1
		c-0.1,0-0.1,0-0.2,0h-0.7c-0.1,0-0.1,0-0.2,0c-0.1,0-0.1-0.1-0.2-0.1c0,0-0.1-0.1-0.1-0.2c0-0.1,0-0.1,0-0.2v-0.2h-0.2v0.7H21.9
		L21.9,133.5z M22.6,133c0,0.1,0,0.1,0.1,0.2c0,0,0.1,0.1,0.2,0.1h0.7c0.1,0,0.1,0,0.2-0.1c0,0,0.1-0.1,0.1-0.2v-0.7
		c0-0.1,0-0.1-0.1-0.2c0,0-0.1-0.1-0.2-0.1h-0.7c-0.1,0-0.1,0-0.2,0.1c0,0-0.1,0.1-0.1,0.2V133L22.6,133z M24.8,132.1v-0.2h1.7v0.2
		h-0.7v1.4h-0.2v-1.4H24.8L24.8,132.1z M27.2,133v-0.7c0-0.1,0-0.1,0-0.2c0-0.1,0.1-0.1,0.1-0.2c0,0,0.1-0.1,0.2-0.1
		c0.1,0,0.1,0,0.2,0h0.7c0.1,0,0.1,0,0.2,0c0.1,0,0.1,0.1,0.2,0.1c0,0,0.1,0.1,0.1,0.2c0,0.1,0,0.1,0,0.2v0.7c0,0.1,0,0.1,0,0.2
		c0,0.1-0.1,0.1-0.1,0.2c0,0-0.1,0.1-0.2,0.1c-0.1,0-0.1,0-0.2,0h-0.7c-0.1,0-0.1,0-0.2,0c-0.1,0-0.1-0.1-0.2-0.1
		c0,0-0.1-0.1-0.1-0.2C27.2,133.2,27.2,133.1,27.2,133L27.2,133z M27.4,133c0,0.1,0,0.1,0.1,0.2c0,0,0.1,0.1,0.2,0.1h0.7
		c0.1,0,0.1,0,0.2-0.1c0,0,0.1-0.1,0.1-0.2v-0.7c0-0.1,0-0.1-0.1-0.2c0,0-0.1-0.1-0.2-0.1h-0.7c-0.1,0-0.1,0-0.2,0.1
		c0,0-0.1,0.1-0.1,0.2V133L27.4,133z M29.7,133.5v-1.7h1.2c0.1,0,0.1,0,0.2,0c0.1,0,0.1,0.1,0.2,0.1c0,0,0.1,0.1,0.1,0.2
		c0,0.1,0,0.1,0,0.2v0.2c0,0.1,0,0.1,0,0.2c0,0.1-0.1,0.1-0.1,0.2c0,0-0.1,0.1-0.2,0.1c-0.1,0-0.1,0-0.2,0h-1v0.5H29.7L29.7,133.5z
		 M29.9,132.8h1c0.1,0,0.1,0,0.2-0.1c0,0,0.1-0.1,0.1-0.2v-0.2c0-0.1,0-0.1-0.1-0.2c0,0-0.1-0.1-0.2-0.1h-1V132.8L29.9,132.8z
		 M33.1,133.5v-1.2c0-0.1,0-0.1,0-0.2c0-0.1,0.1-0.1,0.1-0.2c0,0,0.1-0.1,0.2-0.1c0.1,0,0.1,0,0.2,0h0.7c0.1,0,0.1,0,0.2,0
		c0.1,0,0.1,0.1,0.2,0.1c0,0,0.1,0.1,0.1,0.2c0,0.1,0,0.1,0,0.2v1.2h-0.2V133h-1.2v0.5H33.1L33.1,133.5z M33.4,132.8h1.2v-0.5
		c0-0.1,0-0.1-0.1-0.2c0,0-0.1-0.1-0.2-0.1h-0.7c-0.1,0-0.1,0-0.2,0.1c0,0-0.1,0.1-0.1,0.2V132.8L33.4,132.8z M35.7,133.5v-1.7h1.2
		c0.1,0,0.1,0,0.2,0c0.1,0,0.1,0.1,0.2,0.1c0,0,0.1,0.1,0.1,0.2c0,0.1,0,0.1,0,0.2c0,0.1-0.1,0.3-0.2,0.4c0.1,0.1,0.2,0.2,0.2,0.4
		c0,0.1,0,0.1,0,0.2c0,0.1-0.1,0.1-0.1,0.1c0,0-0.1,0.1-0.2,0.1c-0.1,0-0.1,0-0.2,0H35.7L35.7,133.5z M35.9,133.3h1
		c0.1,0,0.1,0,0.2-0.1c0,0,0.1-0.1,0.1-0.2c0-0.1,0-0.1-0.1-0.2c0,0-0.1-0.1-0.2-0.1h-1V133.3L35.9,133.3z M35.9,132.6h1
		c0.1,0,0.1,0,0.2-0.1c0,0,0.1-0.1,0.1-0.2c0-0.1,0-0.1-0.1-0.2c0,0-0.1-0.1-0.2-0.1h-1V132.6L35.9,132.6z M38.1,132.1v-0.2h1.7v0.2
		H39v1.4h-0.2v-1.4H38.1L38.1,132.1z M40.5,133v-0.7c0-0.1,0-0.1,0-0.2c0-0.1,0.1-0.1,0.1-0.2c0,0,0.1-0.1,0.2-0.1
		c0.1,0,0.1,0,0.2,0h0.7c0.1,0,0.1,0,0.2,0c0.1,0,0.1,0.1,0.2,0.1c0,0,0.1,0.1,0.1,0.2c0,0.1,0,0.1,0,0.2v0.7c0,0.1,0,0.1,0,0.2
		c0,0.1-0.1,0.1-0.1,0.2c0,0-0.1,0.1-0.2,0.1c-0.1,0-0.1,0-0.2,0h-0.7c-0.1,0-0.1,0-0.2,0c-0.1,0-0.1-0.1-0.2-0.1
		c0,0-0.1-0.1-0.1-0.2C40.5,133.2,40.5,133.1,40.5,133L40.5,133z M40.7,133c0,0.1,0,0.1,0.1,0.2c0,0,0.1,0.1,0.2,0.1h0.7
		c0.1,0,0.1,0,0.2-0.1c0,0,0.1-0.1,0.1-0.2v-0.7c0-0.1,0-0.1-0.1-0.2c0,0-0.1-0.1-0.2-0.1h-0.7c-0.1,0-0.1,0-0.2,0.1
		c0,0-0.1,0.1-0.1,0.2V133L40.7,133z M43,133.5v-1.2c0-0.1,0-0.1,0-0.2c0-0.1,0.1-0.1,0.1-0.2c0,0,0.1-0.1,0.2-0.1
		c0.1,0,0.1,0,0.2,0h0.7c0.1,0,0.1,0,0.2,0c0.1,0,0.1,0.1,0.2,0.1c0,0,0.1,0.1,0.1,0.2c0,0.1,0,0.1,0,0.2v1.2h-0.2V133h-1.2v0.5H43
		L43,133.5z M43.2,132.8h1.2v-0.5c0-0.1,0-0.1-0.1-0.2c0,0-0.1-0.1-0.2-0.1h-0.7c-0.1,0-0.1,0-0.2,0.1c0,0-0.1,0.1-0.1,0.2V132.8
		L43.2,132.8z M45.5,133.5v-1.7h0.2v0.7h0.4l0.7-0.7h0.3l-0.8,0.8l0.8,0.8h-0.3l-0.7-0.7h-0.4v0.7H45.5L45.5,133.5z M47.9,133v-0.7
		c0-0.1,0-0.1,0-0.2c0-0.1,0.1-0.1,0.1-0.2c0,0,0.1-0.1,0.2-0.1c0.1,0,0.1,0,0.2,0h0.7c0.1,0,0.1,0,0.2,0c0.1,0,0.1,0.1,0.2,0.1
		c0,0,0.1,0.1,0.1,0.2c0,0.1,0,0.1,0,0.2h-0.2c0-0.1,0-0.1-0.1-0.2c0,0-0.1-0.1-0.2-0.1h-0.7c-0.1,0-0.1,0-0.2,0.1
		c0,0-0.1,0.1-0.1,0.2v0.7c0,0.1,0,0.1,0.1,0.2c0,0,0.1,0.1,0.2,0.1h0.7c0.1,0,0.1,0,0.2-0.1c0,0,0.1-0.1,0.1-0.2h0.2
		c0,0.1,0,0.1,0,0.2c0,0.1-0.1,0.1-0.1,0.2c0,0-0.1,0.1-0.2,0.1c-0.1,0-0.1,0-0.2,0h-0.7c-0.1,0-0.1,0-0.2,0c-0.1,0-0.1-0.1-0.2-0.1
		c0,0-0.1-0.1-0.1-0.2C47.9,133.2,47.9,133.1,47.9,133L47.9,133z M50.4,133.5v-1.7h1.7v0.2h-1.4v0.5h1.2v0.2h-1.2v0.5h1.4v0.2H50.4
		L50.4,133.5z M52.9,133v-0.7c0-0.1,0-0.1,0-0.2c0-0.1,0.1-0.1,0.1-0.2c0,0,0.1-0.1,0.2-0.1c0.1,0,0.1,0,0.2,0H54c0.1,0,0.1,0,0.2,0
		c0.1,0,0.1,0.1,0.1,0.1c0,0,0.1,0.1,0.1,0.2c0,0.1,0,0.1,0,0.2h-0.2c0-0.1,0-0.1-0.1-0.2c0,0-0.1-0.1-0.2-0.1h-0.7
		c-0.1,0-0.1,0-0.2,0.1c0,0-0.1,0.1-0.1,0.2v0.7c0,0.1,0,0.1,0.1,0.2c0,0,0.1,0.1,0.2,0.1H54c0.1,0,0.1,0,0.2-0.1
		c0,0,0.1-0.1,0.1-0.2h0.2c0,0.1,0,0.1,0,0.2c0,0.1-0.1,0.1-0.1,0.2c0,0-0.1,0.1-0.2,0.1c-0.1,0-0.1,0-0.2,0h-0.7
		c-0.1,0-0.1,0-0.2,0c-0.1,0-0.1-0.1-0.2-0.1c0,0-0.1-0.1-0.1-0.2C52.9,133.2,52.9,133.1,52.9,133L52.9,133z M55.3,133v-0.7
		c0-0.1,0-0.1,0-0.2c0-0.1,0.1-0.1,0.1-0.2c0,0,0.1-0.1,0.2-0.1c0.1,0,0.1,0,0.2,0h0.7c0.1,0,0.1,0,0.2,0c0.1,0,0.1,0.1,0.1,0.1
		c0,0,0.1,0.1,0.1,0.2c0,0.1,0,0.1,0,0.2h-0.2c0-0.1,0-0.1-0.1-0.2c0,0-0.1-0.1-0.2-0.1h-0.7c-0.1,0-0.1,0-0.2,0.1
		c0,0-0.1,0.1-0.1,0.2v0.7c0,0.1,0,0.1,0.1,0.2c0,0,0.1,0.1,0.2,0.1h0.7c0.1,0,0.1,0,0.2-0.1c0,0,0.1-0.1,0.1-0.2H57
		c0,0.1,0,0.1,0,0.2c0,0.1-0.1,0.1-0.1,0.2c0,0-0.1,0.1-0.2,0.1c-0.1,0-0.1,0-0.2,0h-0.7c-0.1,0-0.1,0-0.2,0c-0.1,0-0.1-0.1-0.2-0.1
		c0,0-0.1-0.1-0.1-0.2C55.3,133.2,55.3,133.1,55.3,133L55.3,133z M57.8,132.3v-0.5H58v0.5c0,0.1,0,0.1,0.1,0.2c0,0,0.1,0.1,0.2,0.1
		h1v-0.7h0.2v1.2c0,0.1,0,0.1,0,0.2c0,0.1-0.1,0.1-0.1,0.2c0,0-0.1,0.1-0.2,0.1c-0.1,0-0.1,0-0.2,0h-0.7c-0.1,0-0.1,0-0.2,0
		c-0.1,0-0.1-0.1-0.2-0.1c0,0-0.1-0.1-0.1-0.2c0-0.1,0-0.1,0-0.2h0.2c0,0.1,0,0.1,0.1,0.2c0,0,0.1,0.1,0.2,0.1H59
		c0.1,0,0.1,0,0.2-0.1c0,0,0.1-0.1,0.1-0.2v-0.2h-1c-0.1,0-0.1,0-0.2,0c-0.1,0-0.1-0.1-0.2-0.1c0,0-0.1-0.1-0.1-0.2
		C57.8,132.5,57.8,132.4,57.8,132.3L57.8,132.3z M60.3,133.5v-1.2c0-0.1,0-0.1,0-0.2c0-0.1,0.1-0.1,0.1-0.2c0,0,0.1-0.1,0.2-0.1
		c0.1,0,0.1,0,0.2,0h0.7c0.1,0,0.1,0,0.2,0c0.1,0,0.1,0.1,0.2,0.1c0,0,0.1,0.1,0.1,0.2c0,0.1,0,0.1,0,0.2v1.2h-0.2V133h-1.2v0.5
		H60.3L60.3,133.5z M60.6,132.8h1.2v-0.5c0-0.1,0-0.1-0.1-0.2c0,0-0.1-0.1-0.2-0.1h-0.7c-0.1,0-0.1,0-0.2,0.1c0,0-0.1,0.1-0.1,0.2
		V132.8L60.6,132.8z M62.9,133.5v-1.7H64c0.1,0,0.1,0,0.2,0c0.1,0,0.1,0.1,0.2,0.1c0,0,0.1,0.1,0.1,0.2c0,0.1,0,0.1,0,0.2v0.2
		c0,0.1,0,0.1,0,0.2c0,0.1-0.1,0.1-0.1,0.2c0,0-0.1,0.1-0.2,0.1c-0.1,0-0.1,0-0.2,0h-1v0.5H62.9L62.9,133.5z M63.1,132.8h1
		c0.1,0,0.1,0,0.2-0.1c0,0,0.1-0.1,0.1-0.2v-0.2c0-0.1,0-0.1-0.1-0.2c0,0-0.1-0.1-0.2-0.1h-1V132.8L63.1,132.8z M65.3,133v-0.7
		c0-0.1,0-0.1,0-0.2c0-0.1,0.1-0.1,0.1-0.2c0,0,0.1-0.1,0.2-0.1c0.1,0,0.1,0,0.2,0h0.7c0.1,0,0.1,0,0.2,0c0.1,0,0.1,0.1,0.2,0.1
		c0,0,0.1,0.1,0.1,0.2c0,0.1,0,0.1,0,0.2v0.7c0,0.1,0,0.1,0,0.2c0,0.1-0.1,0.1-0.1,0.2c0,0-0.1,0.1-0.2,0.1c-0.1,0-0.1,0-0.2,0h-0.7
		c-0.1,0-0.1,0-0.2,0c-0.1,0-0.1-0.1-0.2-0.1c0,0-0.1-0.1-0.1-0.2C65.3,133.2,65.3,133.1,65.3,133L65.3,133z M65.6,133
		c0,0.1,0,0.1,0.1,0.2c0,0,0.1,0.1,0.2,0.1h0.7c0.1,0,0.1,0,0.2-0.1c0,0,0.1-0.1,0.1-0.2v-0.7c0-0.1,0-0.1-0.1-0.2
		c0,0-0.1-0.1-0.2-0.1h-0.7c-0.1,0-0.1,0-0.2,0.1c0,0-0.1,0.1-0.1,0.2V133L65.6,133z M67.8,133.5v-1.7H69c0.1,0,0.1,0,0.2,0
		c0.1,0,0.1,0.1,0.2,0.1c0,0,0.1,0.1,0.1,0.2c0,0.1,0,0.1,0,0.2c0,0.1-0.1,0.3-0.2,0.4c0.1,0.1,0.2,0.2,0.2,0.4c0,0.1,0,0.1,0,0.2
		c0,0.1-0.1,0.1-0.1,0.1c0,0-0.1,0.1-0.2,0.1c-0.1,0-0.1,0-0.2,0H67.8L67.8,133.5z M68.1,133.3h1c0.1,0,0.1,0,0.2-0.1
		c0,0,0.1-0.1,0.1-0.2c0-0.1,0-0.1-0.1-0.2c0,0-0.1-0.1-0.2-0.1h-1V133.3L68.1,133.3z M68.1,132.6h1c0.1,0,0.1,0,0.2-0.1
		c0,0,0.1-0.1,0.1-0.2c0-0.1,0-0.1-0.1-0.2c0,0-0.1-0.1-0.2-0.1h-1V132.6z"/>
	<path class="st0" d="M11.2,127.1l8.8-9.6h-5.4l-4.8,5.3l-4.1,0l0-7.6l16.2,0L26,110l-25.4,0l-0.1,17.1H11.2L11.2,127.1z M-12.1,110
		l-15,17.1h5.6l10.5-11.9l4.6,0l-0.1,7.5l-8.3,0l-3.6,4.4l17.2,0l0-17.1H-12.1z"/>
</g>
</svg>
