<?xml version="1.0" encoding="utf-8"?>
<!-- Generator: Adobe Illustrator 19.0.0, SVG Export Plug-In . SVG Version: 6.00 Build 0)  -->
<svg version="1.1" id="Layer_1" xmlns="http://www.w3.org/2000/svg" xmlns:xlink="http://www.w3.org/1999/xlink" x="0px" y="0px"
	 viewBox="0 0 512 512" style="enable-background:new 0 0 512 512;" xml:space="preserve">
<style type="text/css">
	.st0{fill:#EBEBEB;}
	.st1{fill:#D8D8D8;}
	.st2{fill:#FFFFFF;}
	.st3{fill:#E2E2E2;}
	.st4{fill:#AFAFAF;}
	.st5{fill:#4F4E4D;}
	.st6{fill:#231F20;}
</style>
<g>
	<polygon id="XMLID_67_" points="218.4,204.1 224.4,204 197.6,164.5 194.9,169.5 	"/>
	<path id="XMLID_66_" d="M224.4,204l-6,0l-69.1,104.6l9.3-5C167.5,290.2,224.4,204.1,224.4,204"/>
	<path id="XMLID_65_" d="M216.5,308.6l5-5c0,0-49,0-62.8,0l-9.3,5H216.5"/>
	<polygon id="XMLID_64_" points="216.5,343.7 221.5,348.7 221.5,303.6 216.5,308.6 	"/>
	<polygon id="XMLID_63_" points="125,343.7 122.3,348.7 221.5,348.7 216.5,343.7 	"/>
	<polygon id="XMLID_62_" points="101.1,309.1 95,309.1 122.3,348.7 125,343.7 	"/>
	<path id="XMLID_61_" d="M171.8,204.4l-9.5,5c-9.1,13.4-67.3,99.7-67.3,99.7l6.1,0L171.8,204.4"/>
	<polygon id="XMLID_60_" points="105,204.4 100,209.4 162.3,209.4 171.8,204.4 	"/>
	<polygon id="XMLID_59_" points="105,169.5 100,164.5 100,209.4 105,204.4 	"/>
	<polygon id="XMLID_58_" points="194.9,169.5 197.6,164.5 194.9,164.5 100,164.5 105,169.5 	"/>
	<g>
		<polygon id="XMLID_57_" points="385.4,169.5 387.6,164.5 385.4,164.5 325.7,164.5 327.9,169.5 		"/>
		<polygon id="XMLID_56_" points="412,198.4 417,196.5 387.6,164.5 385.4,169.5 		"/>
		<polygon id="XMLID_55_" points="412,241.8 417,246.7 417,196.5 412,198.4 		"/>
	</g>
	<polygon id="XMLID_54_" points="417,246.9 417,246.7 412,241.8 371.1,241.8 366.1,246.7 366.1,246.9 	"/>
	<polygon id="XMLID_53_" points="371.1,204 366.1,209.1 366.1,246.7 371.1,241.8 	"/>
	<polygon id="XMLID_52_" points="342.3,204 347.3,209.1 366.1,209.1 371.1,204 	"/>
	<polygon id="XMLID_51_" points="342.3,309.4 347.3,304.4 347.3,209.1 342.3,204 	"/>
	<polygon id="XMLID_50_" points="371.1,309.4 366.1,304.4 347.3,304.4 342.3,309.4 	"/>
	<g>
		<polygon id="XMLID_49_" points="371.1,275.9 366.1,271.1 366.1,304.4 371.1,309.4 		"/>
		<polygon id="XMLID_48_" points="412,275.9 417,271.1 417,270.9 366.1,270.9 366.1,271.1 371.1,275.9 		"/>
		<polygon id="XMLID_47_" points="412,315.1 417,317 417,271.1 412,275.9 		"/>
	</g>
	<polygon id="XMLID_46_" points="385.4,343.7 387.7,348.7 417,317 412,315.1 	"/>
	<polygon id="XMLID_45_" points="327.7,343.7 325.5,348.7 387.7,348.7 385.4,343.7 	"/>
	<polygon id="XMLID_44_" points="301.2,315.1 296.2,317 325.5,348.7 327.7,343.7 	"/>
	<polygon id="XMLID_43_" points="301.2,198.4 296.2,196.5 296.2,317 301.2,315.1 	"/>
	<polygon id="XMLID_42_" points="327.9,169.5 325.7,164.5 296.2,196.5 301.2,198.4 	"/>
	<polygon id="XMLID_41_" points="238.2,343.7 238.2,169.5 233.1,164.5 233.1,348.7 	"/>
	<polygon id="XMLID_40_" points="279.1,169.5 284.1,164.5 279.1,164.5 233.1,164.5 238.2,169.5 	"/>
	<polygon id="XMLID_39_" points="279.1,169.5 279.1,343.7 284.1,348.7 284.1,164.5 	"/>
	<polygon id="XMLID_38_" points="279.1,169.5 279.1,169.5 284.1,164.5 	"/>
	<polygon id="XMLID_37_" points="238.2,343.7 233.1,348.7 284.1,348.7 279.1,343.7 	"/>
	<g>
		<path id="XMLID_36_" d="M238.2,343.7l-5,5L238.2,343.7z"/>
		<polygon id="XMLID_35_" class="st0" points="218.4,202.8 224.4,202.8 197.6,163.3 194.9,168.3 		"/>
	</g>
	<path id="XMLID_34_" class="st1" d="M224.4,202.8l-6,0l-69.1,104.6l9.3-5C167.5,289,224.4,202.8,224.4,202.8"/>
	<path id="XMLID_33_" class="st2" d="M216.5,307.4l5-5c0,0-49,0-62.8,0l-9.3,5H216.5"/>
	<polygon id="XMLID_32_" class="st3" points="216.5,342.5 221.5,347.5 221.5,302.4 216.5,307.4 	"/>
	<polygon id="XMLID_31_" class="st4" points="125,342.5 122.3,347.5 221.5,347.5 216.5,342.5 	"/>
	<polygon id="XMLID_30_" class="st2" points="101.1,307.8 95,307.8 122.3,347.5 125,342.5 	"/>
	<path id="XMLID_29_" class="st2" d="M171.8,203.1l-9.5,5c-9.1,13.4-67.3,99.7-67.3,99.7l6.1,0L171.8,203.1"/>
	<g>
		<polygon id="XMLID_28_" class="st4" points="105,203.1 100,208.1 162.3,208.1 171.8,203.1 		"/>
		<polygon id="XMLID_27_" class="st2" points="105,168.3 100,163.3 100,208.1 105,203.1 		"/>
		<polygon id="XMLID_26_" class="st2" points="194.9,168.3 197.6,163.3 194.9,163.3 100,163.3 105,168.3 		"/>
		<polygon id="XMLID_25_" class="st2" points="385.4,168.3 387.6,163.3 385.4,163.3 325.7,163.3 327.9,168.3 		"/>
		<polygon id="XMLID_24_" class="st0" points="412,197.2 417,195.2 387.6,163.3 385.4,168.3 		"/>
		<polygon id="XMLID_23_" class="st1" points="412,240.6 417,245.4 417,195.2 412,197.2 		"/>
	</g>
	<polygon id="XMLID_22_" class="st4" points="417,245.6 417,245.4 412,240.6 371.1,240.6 366.1,245.4 366.1,245.6 	"/>
	<polygon id="XMLID_21_" class="st2" points="371.1,202.8 366.1,207.8 366.1,245.4 371.1,240.6 	"/>
	<polygon id="XMLID_20_" class="st4" points="342.3,202.8 347.3,207.8 366.1,207.8 371.1,202.8 	"/>
	<polygon id="XMLID_19_" class="st0" points="342.3,308.2 347.3,303.1 347.3,207.8 342.3,202.8 	"/>
	<polygon id="XMLID_18_" class="st2" points="371.1,308.2 366.1,303.1 347.3,303.1 342.3,308.2 	"/>
	<g>
		<polygon id="XMLID_17_" class="st2" points="371.1,274.7 366.1,269.9 366.1,303.1 371.1,308.2 		"/>
		<polygon id="XMLID_16_" class="st2" points="412,274.7 417,269.9 417,269.6 366.1,269.6 366.1,269.9 371.1,274.7 		"/>
		<polygon id="XMLID_15_" class="st1" points="412,313.9 417,315.8 417,269.9 412,274.7 		"/>
	</g>
	<polygon id="XMLID_14_" class="st1" points="385.4,342.5 387.7,347.5 417,315.8 412,313.9 	"/>
	<polygon id="XMLID_13_" class="st4" points="327.7,342.5 325.5,347.5 387.7,347.5 385.4,342.5 	"/>
	<polygon id="XMLID_12_" class="st3" points="301.2,313.9 296.2,315.8 325.5,347.5 327.7,342.5 	"/>
	<g>
		<polygon id="XMLID_11_" class="st2" points="301.2,197.2 296.2,195.2 296.2,315.8 301.2,313.9 		"/>
		<polygon id="XMLID_10_" class="st2" points="327.9,168.3 325.7,163.3 296.2,195.2 301.2,197.2 		"/>
		<polygon id="XMLID_9_" class="st2" points="238.2,342.5 238.2,168.3 233.1,163.3 233.1,347.5 		"/>
		<polygon id="XMLID_8_" class="st2" points="279.1,168.3 284.1,163.3 279.1,163.3 233.1,163.3 238.2,168.3 		"/>
		<polygon id="XMLID_7_" class="st1" points="279.1,168.3 279.1,342.5 284.1,347.5 284.1,163.3 		"/>
		<polygon id="XMLID_6_" class="st5" points="279.1,168.3 279.1,168.3 284.1,163.3 		"/>
	</g>
	<polygon id="XMLID_5_" class="st4" points="238.2,342.5 233.1,347.5 284.1,347.5 279.1,342.5 	"/>
	<path id="XMLID_4_" class="st5" d="M238.2,342.5l-5,5L238.2,342.5z"/>
	<polygon id="XMLID_3_" class="st6" points="371.1,274.7 371.1,308.2 342.3,308.2 342.3,202.8 371.1,202.8 371.1,240.6 412,240.6 
		412,197.2 385.4,168.3 327.9,168.3 301.3,197.2 301.2,313.9 327.7,342.5 385.4,342.5 412,313.9 412,274.7 	"/>
	<polygon id="XMLID_2_" class="st6" points="105,168.3 105,203.1 171.8,203.1 101.1,307.8 125,342.5 216.5,342.5 216.5,307.4 
		149.3,307.4 218.4,202.8 194.9,168.3 	"/>
	<rect id="XMLID_1_" x="238.2" y="168.3" class="st6" width="40.9" height="174.2"/>
</g>
</svg>
