<?xml version="1.0" encoding="utf-8"?>
<!-- Generator: Adobe Illustrator 19.0.0, SVG Export Plug-In . SVG Version: 6.00 Build 0)  -->
<svg version="1.1" xmlns="http://www.w3.org/2000/svg" xmlns:xlink="http://www.w3.org/1999/xlink" x="0px" y="0px"
	 viewBox="126 -33 100 100" enable-background="new 126 -33 100 100" xml:space="preserve">
<g id="Layer_1">
	<g id="_x23_fdfffeff">
		<path fill="#0F7DFC" d="M147.2,19.8C147.2,19.8,147.2,19.7,147.2,19.8C147.2,19.7,147.2,19.7,147.2,19.8
			C147.2,19.7,147.2,19.8,147.2,19.8z"/>
		<path fill="#0F7DFC" d="M172,16.1c-2.6-6.9-5.3-13.7-7.9-20.6c-2.5,0-5.1,0-7.6,0c-3.1,7.9-6.1,16.3-9.3,24.2
			c1.9,0,3.8,0.1,5.8,0.1c0.7-1.8,1.5-3.7,2.1-5.5c3,0,6,0,9.1,0c0.6,1.9,1.5,3.7,2.1,5.5c2.3,0,4.6,0,7,0
			C173.3,18.4,172.5,17.3,172,16.1z M156.5,10c1-2.9,2.1-5.8,3.1-8.7c1,2.9,2.2,5.8,3.2,8.7C160.7,10,158.6,10,156.5,10z"/>
		<path fill="#0F7DFC" d="M173.9-4.5c3.6,0,7.3,0,10.9,0c3.3,0,6.7,0.7,9.4,2.6c3,2.1,4.7,5.8,4.8,9.4c0,3.5-1.4,7-4,9.3
			c-2.5,1.6-5.4,2.8-8.5,2.8c-4.2,0-8.4,0-12.6,0C173.9,11.6,173.9,3.5,173.9-4.5 M180.9,0c0,5.2,0,10.3,0,15.5
			c2.6-0.1,5.6,0.3,7.9-1.4c2.3-1.8,2.9-4.9,2.7-7.7c-0.1-2.2-1.2-4.4-3.2-5.5C186.1-0.3,183.4,0.1,180.9,0z"/>
		<path fill="#0F7DFC" d="M198.3,15.1c2.5-6.5,5-13,7.5-19.6c2.5,0,5.1,0,7.6,0c2.6,6.8,5.3,13.6,7.9,20.4c0.5,1.3,1.2,2.5,1.5,3.9
			c-2.4,0-4.8,0-7.2,0c-0.7-1.8-1.5-3.7-2.1-5.5c-3,0-6,0-9,0c-0.7,1.9-1.5,3.7-2.2,5.6c-1.9,0-3.9,0-5.8,0
			C196.9,18.2,197.8,16.7,198.3,15.1 M205.7,10c2.1,0,4.2,0,6.3,0c-0.9-2.9-2.1-5.8-3.1-8.7C207.8,4.2,206.7,7.1,205.7,10z"/>
		<path fill="#0F7DFC" d="M139.2,27.1c1.5,0,2.9,0,4.4,0c1.5,2.7,2.9,5.4,4.4,8.2c0.3-0.4,0.6-0.7,0.8-1.2c1.2-2.4,2.4-4.6,3.6-7
			c1.5,0,2.9,0,4.4,0c0,3.8,0,7.6,0,11.4c-1,0-2,0-3.1,0c-0.1-2.7,0.1-5.5-0.1-8.2c-1.3,2.8-2.7,5.5-4.1,8.2c-1,0-2.1,0-3.1,0
			c-1.4-2.8-2.7-5.6-4.1-8.3c0,2.8,0,5.6,0,8.4c-1,0-2,0-3,0C139.2,34.7,139.2,30.9,139.2,27.1z"/>
		<path fill="#0F7DFC" d="M161.4,29.6c-0.1-1.3,1.1-2.6,2.5-2.5c4.9,0,9.8,0,14.7,0c0,3.8,0,7.6,0,11.4c-1,0-2,0-3,0
			c0-1.1,0-2.2-0.1-3.2c-3.7,0-7.4,0-11.1,0c0,1.1,0,2.1,0,3.2c-1,0-2,0-3,0C161.4,35.6,161.4,32.6,161.4,29.6 M164.4,30.1
			c0,0.8,0,1.6,0,2.4c3.7,0,7.4,0,11.1,0c0-0.8,0-1.6-0.1-2.4C171.7,30.1,168,30.1,164.4,30.1z"/>
		<path fill="#0F7DFC" d="M183.2,29.3c0-1.2,1.2-2.2,2.4-2.2c5,0,10,0,15,0c0,1,0,1.9,0,2.9c-4.8,0-9.6,0-14.3,0
			c0,1.8-0.2,3.6,0,5.5c2.2,0.1,4.5,0,6.7,0.1c1.4,0,2.9,0.1,4.3-0.2c0.1-0.5,0.2-1,0.2-1.5c-1.9,0-3.8,0-5.6,0c0-0.8,0-1.6,0-2.4
			c2.9,0,5.8,0,8.7,0c0,1.6,0,3.3,0,4.9c0,1.2-1.2,2.2-2.5,2.2c-4.2,0-8.3,0-12.5,0c-1.2,0.1-2.4-0.9-2.4-2.1
			C183.2,34,183.2,31.7,183.2,29.3z"/>
	</g>
</g>
<g id="Layer_2">
	<polygon fill="#0F7DFC" points="135.9,15.5 135.9,-4.5 129,-4.5 129,15.5 129,19.8 135.9,19.8 147.3,19.8 147.3,15.5 	"/>
	<rect x="129" y="27.1" fill="#0F7DFC" width="3.1" height="11.4"/>
	<polygon fill="#0F7DFC" points="222.8,30 222.8,27.1 208.4,27.1 205.3,27.1 205.3,30 205.3,31.6 205.3,33.9 205.3,35.4 205.3,38.5 
		208.4,38.5 222.8,38.5 222.8,35.4 208.4,35.4 208.4,33.9 222.7,33.9 222.7,31.6 208.4,31.6 208.4,30 	"/>
</g>
</svg>
