<?xml version="1.0" encoding="utf-8"?>
<!-- Generator: Adobe Illustrator 19.0.0, SVG Export Plug-In . SVG Version: 6.00 Build 0)  -->
<svg version="1.1" id="Layer_1" xmlns="http://www.w3.org/2000/svg" xmlns:xlink="http://www.w3.org/1999/xlink" x="0px" y="0px"
	 viewBox="474 -191 100 100" enable-background="new 474 -191 100 100" xml:space="preserve">
<g id="_x23_e3000fff">
	<path fill="#E3000F" d="M522.7-163h2.7c0.4,0.1,0.8,0,1.1,0c8.5,0.2,17,1.4,25.1,4c3.3,1.1,6.5,2.4,9.6,4.1
		c2.3,1.3,4.5,2.9,6.4,4.8c1.6,1.7,3,3.7,3.7,6c0.6,2,0.6,4.2-0.1,6.2c-0.7,2.2-2.1,4.2-3.7,5.8c-2,2-4.4,3.7-6.8,5
		c-5.2,2.8-10.8,4.6-16.5,5.9c-5.7,1.2-11.5,1.9-17.4,2c-0.5,0-1,0-1.5,0.1h-2.7c-0.4-0.1-0.8,0-1.1-0.1c-8.1-0.2-16.2-1.3-24-3.7
		c-4.5-1.4-8.9-3.2-12.8-5.8c-2.5-1.7-4.8-3.7-6.5-6.2c-1.2-1.9-2-4.1-2-6.4c0-2.7,1.1-5.3,2.8-7.3c1.6-2,3.5-3.6,5.6-5.1
		c2.6-1.8,5.5-3.2,8.5-4.3c4-1.5,8.1-2.7,12.3-3.5c4.4-0.9,8.8-1.4,13.3-1.6C520-163,521.4-162.9,522.7-163"/>
	<g id="XMLID_1_">
		<g>
			<path fill="#FFFFFF" d="M569.6-141c0,1.7-0.6,3.4-1.5,4.9c-1.2,1.9-2.9,3.5-4.7,4.8c-2.4,1.8-5,3.1-7.7,4.3
				c-3.8,1.6-7.9,2.8-12,3.7c-7.8,1.6-15.9,2.2-23.8,1.9c-4.6-0.2-9.3-0.7-13.9-1.5c-4.7-0.9-9.3-2.1-13.6-3.9c-3.2-1.3-6.3-3-9-5.2
				c-1.9-1.6-3.7-3.5-4.6-5.8c-0.7-1.9-0.8-4-0.2-5.9c0.5-1.5,1.4-2.8,2.4-4c1.5-1.7,3.3-3.1,5.1-4.3c3.5-2.2,7.5-3.8,11.5-5.1
				c8-2.4,16.4-3.5,24.7-3.6c8.3-0.1,16.7,0.7,24.7,2.8c4,1.1,8,2.4,11.7,4.4c2.5,1.3,4.9,2.9,6.9,4.8c1,1,2,2.2,2.7,3.5
				C569.2-144,569.7-142.5,569.6-141z M563.5-144.3c0.1-1,0.2-2.1,0.3-3.1c-0.9,0-1.9-0.1-2.8,0c-1.8,0-3.8,0-5.5,0.7
				c-1.3,0.5-2.4,1.4-3.1,2.6c-0.9,1.4-1.2,3.1-1,4.8c0.2,1.6,1.1,3.1,2.5,3.9c1.2,0.7,2.6,0.9,3.9,1c1.6,0.1,3.3,0,4.9,0
				c0.1-1.1,0.2-2.1,0.3-3.2c-0.8,0-1.6,0-2.4,0c-0.8,0-1.6,0-2.4-0.1c-0.7-0.1-1.5-0.4-1.9-1c-0.6-0.8-0.7-1.9-0.4-2.9
				c0.3-1,1-1.8,1.9-2.2c0.9-0.4,2-0.4,2.9-0.4C561.7-144.3,562.6-144.4,563.5-144.3z M550.8-147.5c-3.9,0-7.9,0-11.8,0
				c-0.4,4.3-0.7,8.7-1.1,13c4,0,8,0,11.9,0c0.1-1.1,0.2-2.2,0.3-3.3c-2.2,0-4.5,0-6.7,0c0-0.6,0.1-1.2,0.2-1.8c2.1,0,4.2,0,6.3,0
				c0.1-1,0.2-2,0.3-3c-2.1,0-4.2,0-6.3,0c0.1-0.6,0.1-1.2,0.2-1.9c2.2,0,4.4,0,6.6,0C550.6-145.4,550.7-146.5,550.8-147.5z
				 M537-144.4c0.1-1,0.2-2.1,0.3-3.1c-4.8,0-9.5,0-14.3,0c-0.1,1-0.2,2-0.2,3.1c1.5,0,3,0,4.5,0c-0.3,3.3-0.6,6.6-0.8,9.9
				c1.7,0,3.5,0,5.2,0c0.3-3.3,0.6-6.6,0.9-9.9C534-144.4,535.5-144.4,537-144.4z M521.3-147.5c-1.5,0-3,0-4.5,0
				c-0.2,2.7-0.5,5.4-0.7,8.1c-0.4-0.5-0.7-1-1-1.5c-1.5-2.2-3-4.4-4.4-6.6c-1.4,0-2.7,0-4.1,0c-0.4,4.3-0.7,8.6-1.1,13
				c1.4,0,2.7,0,4.1,0c0.2-2.7,0.5-5.4,0.7-8.1c1.8,2.7,3.6,5.4,5.5,8.1c1.5,0,3,0,4.5,0C520.6-138.8,521-143.2,521.3-147.5z
				 M504.8-147.5c-1.8,0-3.5,0-5.3,0c-0.1,0.6-0.1,1.2-0.2,1.8c-0.3,3.7-0.7,7.5-1,11.2c1.8,0,3.6,0,5.4,0
				C504.1-138.8,504.4-143.2,504.8-147.5z M497.7-147.5c-1.3,0-2.6,0-3.9,0c-1,0.1-2,0-3,0c-1.1,0.1-2.3,0.2-3.4,0.6
				c-1.1,0.5-2.1,1.5-2.3,2.7c-0.2,0.9-0.1,2,0.4,2.8c0.5,0.7,1.3,1.1,2.1,1.4c1.1,0.4,2.2,0.5,3.2,0.8c0.3,0.1,0.8,0.3,0.8,0.7
				c0,0.4-0.3,0.6-0.6,0.8c-0.8,0.3-1.7,0.2-2.5,0.2c-1.3,0-2.7,0.1-4,0c-0.1,1-0.2,1.9-0.3,2.9c2.2,0,4.3,0,6.5,0
				c1.1,0,2.2-0.1,3.2-0.4c0.8-0.3,1.6-0.7,2.2-1.4c0.8-0.9,1.1-2.2,0.9-3.4c-0.1-0.8-0.6-1.4-1.2-1.9c-1.1-0.8-2.4-0.9-3.7-1.2
				c-0.5-0.1-1.1-0.1-1.6-0.5c-0.3-0.3-0.1-0.8,0.2-1c0.5-0.3,1.1-0.3,1.6-0.3c1.7,0,3.5,0,5.2,0
				C497.5-145.5,497.6-146.5,497.7-147.5z"/>
			<path fill="#E3000F" d="M563.8-147.4c-0.1,1-0.2,2.1-0.3,3.1c-0.9-0.1-1.8,0-2.7,0c-1,0-2-0.1-2.9,0.4c-0.9,0.4-1.7,1.2-1.9,2.2
				c-0.3,1-0.2,2.1,0.4,2.9c0.5,0.6,1.2,0.9,1.9,1c0.8,0.1,1.6,0.1,2.4,0.1c0.8,0,1.6,0,2.4,0c-0.1,1.1-0.2,2.1-0.3,3.2
				c-1.6,0.1-3.3,0.1-4.9,0c-1.3-0.1-2.7-0.3-3.9-1c-1.4-0.8-2.3-2.3-2.5-3.9c-0.2-1.6,0.1-3.4,1-4.8c0.7-1.2,1.8-2.1,3.1-2.6
				c1.7-0.7,3.6-0.7,5.5-0.7C561.9-147.5,562.9-147.5,563.8-147.4z"/>
			<path fill="#E3000F" d="M538.9-147.5c3.9,0,7.9,0,11.8,0c-0.1,1-0.2,2.1-0.3,3.1c-2.2,0-4.4,0-6.6,0c-0.1,0.6-0.1,1.2-0.2,1.9
				c2.1,0,4.2,0,6.3,0c-0.1,1-0.2,2-0.3,3c-2.1,0-4.2,0-6.3,0c-0.1,0.6-0.1,1.2-0.2,1.8c2.2,0,4.5,0,6.7,0c-0.1,1.1-0.2,2.2-0.3,3.3
				c-4,0-8,0-11.9,0C538.2-138.8,538.6-143.2,538.9-147.5z"/>
			<path fill="#E3000F" d="M537.2-147.5c-0.1,1-0.2,2.1-0.3,3.1c-1.5,0-3,0-4.5,0c-0.3,3.3-0.6,6.6-0.9,9.9c-1.7,0-3.5,0-5.2,0
				c0.3-3.3,0.6-6.6,0.8-9.9c-1.5,0-3,0-4.5,0c0.1-1,0.2-2,0.2-3.1C527.7-147.5,532.5-147.5,537.2-147.5z"/>
			<path fill="#E3000F" d="M516.8-147.5c1.5,0,3,0,4.5,0c-0.4,4.3-0.7,8.6-1.1,13c-1.5,0-3,0-4.5,0c-1.8-2.7-3.6-5.4-5.5-8.1
				c-0.2,2.7-0.5,5.4-0.7,8.1c-1.4,0-2.7,0-4.1,0c0.4-4.3,0.7-8.6,1.1-13c1.4,0,2.7,0,4.1,0c1.5,2.2,3,4.4,4.4,6.6
				c0.4,0.5,0.7,1,1,1.5C516.4-142.1,516.6-144.8,516.8-147.5z"/>
			<path fill="#E3000F" d="M499.5-147.5c1.8,0,3.5,0,5.3,0c-0.4,4.3-0.7,8.7-1.1,13c-1.8,0-3.6,0-5.4,0c0.3-3.7,0.7-7.5,1-11.2
				C499.4-146.3,499.4-146.9,499.5-147.5z"/>
			<path fill="#E3000F" d="M493.8-147.5c1.3,0,2.6,0,3.9,0c-0.1,1-0.2,2-0.3,2.9c-1.7,0-3.5-0.1-5.2,0c-0.5,0-1.1,0-1.6,0.3
				c-0.3,0.2-0.5,0.7-0.2,1c0.4,0.4,1,0.4,1.6,0.5c1.3,0.3,2.6,0.4,3.7,1.2c0.6,0.4,1.1,1.1,1.2,1.9c0.2,1.2-0.1,2.5-0.9,3.4
				c-0.6,0.7-1.3,1.1-2.2,1.4c-1,0.3-2.1,0.4-3.2,0.4c-2.2,0-4.3,0-6.5,0c0.1-1,0.2-1.9,0.3-2.9c1.3,0,2.7,0,4,0
				c0.8-0.1,1.7,0.1,2.5-0.2c0.3-0.1,0.6-0.4,0.6-0.8c-0.1-0.4-0.5-0.6-0.8-0.7c-1.1-0.3-2.2-0.4-3.2-0.8c-0.8-0.3-1.6-0.7-2.1-1.4
				c-0.6-0.8-0.6-1.9-0.4-2.8c0.3-1.2,1.2-2.2,2.3-2.7c1.1-0.5,2.2-0.6,3.4-0.6C491.8-147.5,492.8-147.4,493.8-147.5z"/>
		</g>
		<g>
		</g>
	</g>
</g>
</svg>
