<?xml version="1.0" encoding="utf-8"?>
<!-- Generator: Adobe Illustrator 19.0.0, SVG Export Plug-In . SVG Version: 6.00 Build 0)  -->
<svg version="1.1" id="Layer_1" xmlns="http://www.w3.org/2000/svg" xmlns:xlink="http://www.w3.org/1999/xlink" x="0px" y="0px"
	 viewBox="216 -68 100 100" enable-background="new 216 -68 100 100" xml:space="preserve">
<g id="_x23_d2202eff">
	<path fill="#D2202E" d="M266.7-37.6c3-0.7,6-1.1,9.1-1.4c0.8-0.1,1.6,0.1,2.3,0c0.8-0.1,1.6,0.3,2.5,0.1c1.4-0.1,2.7-0.3,4.1,0
		c1,0.2,2,0.1,3,0.2c1.1,0.1,2.1,0.6,3.2,0.9c1,0.2,2.1,0.6,3.1,0.9c0.8,0.2,1.6-0.1,2.4-0.1c0.9,0,1.9,0,2.8-0.3
		c-0.3-0.2-0.5-0.5-0.8-0.7c0.4,0.2,0.8,0.4,1.2,0.7c0.9,0,1.7,0,2.6-0.1c2.4-0.2,4.8,0.1,7.3,0.2c0,0.1,0,0.2,0,0.3
		c-0.4-0.1-0.8-0.1-1.3-0.2c0.2,0.7,1.1,0.5,1.6,0.5l-0.3-0.3c0.7-0.3,1.6-0.2,2.3-0.1c0.5,0,0.9,0.2,1.3,0.4c0,0.1,0.1,0.2,0.1,0.3
		v0.1c-0.7,1-1.5,2.1-2.4,2.9c-0.6,0.8-1.4,1.3-2.1,1.9c-0.5,0.6-1,1.1-1.6,1.5c-1.5,0.8-2.7,2-4.3,2.7c-1.6,1-3.4,1.8-5.3,2
		c0.7-0.3,1.5-0.4,2.1-0.8c0.5-0.3,1-0.6,1.4-0.9c0.3-0.3,0.5-0.7,0.7-1.1c0.1-0.3,0.3-0.6,0.4-0.9c0.2-1.6,0.1-3.2-0.5-4.7
		c-0.1,0-0.4-0.1-0.5-0.1c0.1-0.1,0.3-0.2,0.4-0.3c-0.2-0.9-0.9-1.7-1.7-2.2c-1.1-0.6-2.5-0.4-3.6-0.2c-0.9,0.4-1.9,0.1-2.8,0.4
		c-1.4,0.6-2.9,0-4.4,0.4c-0.8,0.2-1.6,0.3-2.4,0.2c-0.7-0.1-1.3,0.3-2,0.4c-1.2,0.2-2.3,0.6-3.5,0.7c-1,0-2,0.4-3,0.6
		c-1.3,0.1-2.6,0.5-3.9,0.7c-0.8,0-1.7,0-2.5-0.1c-0.8-0.2-1.8,0.2-2.1,1c-1.5,0.4-2.9,0.8-4.5,0.9c-0.1,0.1-0.2,0.2-0.3,0.3
		c-0.8,0.3-1.7,0.7-2.6,0.8c-0.1,0.1-0.2,0.3-0.2,0.3c-0.3,0-0.7,0-1,0c-1,0.5-1.8,1.3-3,1.2c-0.1,0.3-0.2,0.6-0.4,0.8
		c-0.2,0.2-0.6,0.1-0.8,0.1c-0.8,0.2-1.7,0.4-2.5,0.4c0,1.1,0,2.2,0,3.3c0.5-0.1,1-0.2,1.6-0.3c0,1.4,0,2.9,0,4.3
		c-0.5,0.1-1,0.3-1.5,0.4c0,2.5,0,5,0,7.5c-1.8,0.4-3.6,1-5.4,1.4c0-2.5,0.1-5-0.1-7.4c-0.5,0.1-1,0.3-1.5,0.3c0-1.4,0-2.9,0-4.3
		c0.5-0.1,1-0.3,1.5-0.3c0-1.1,0-2.2,0-3.3c-1.2,0.3-2.5,0.1-3.7,0.4c-0.6,0.2-1.2,0.4-1.8,0.1c-0.3,0.1-0.7,0.3-0.9,0.6
		c-0.9-0.2-1.7,0.3-2.5,0.6c-0.3,0.2-0.6,0.5-1,0.4c-0.8-0.1-1.5,0.2-2.2,0.5c0,0.1-0.1,0.3-0.1,0.4c-0.4,0.1-0.9,0.3-1.2,0.6
		c-1.1,0.5-2.5,0.3-3.6,1c-1,0.6-2.1,0.9-3.1,1.5c-1.9,0.9-3.6,2.1-5.2,3.4c1.4-1.4,3-2.5,4.8-3.4c1.1-0.8,2.4-1.4,3.4-2.3
		c2-0.9,4-1.8,6-2.7c1.2-0.4,2.3-0.8,3.4-1.3c0.5-0.5,1.3-0.7,1.6-1.4c0.8-0.5,1.7-0.9,2.3-1.6c0.8,0,1.3-0.7,1.9-1.1
		c0.4-0.2,0.1-0.6,0.1-0.9c0.4,0,0.8,0.1,1.2,0.3c0.6-0.1,1.1-0.5,1.5-0.9c0.3-0.1,0.6-0.2,0.9-0.3c0.2-0.2,0.3-0.5,0.5-0.8
		c1-0.5,1.9-1,3-1.3c0.9-0.3,1.8-0.8,2.7-1c1-1,2.5-0.8,3.7-1.5c0.8-0.4,1.8-0.4,2.6-0.7c0.5-0.1,1-0.2,1.6-0.3
		c0.2-0.1,0.4-0.3,0.6-0.4C265.8-37.5,266.3-37.5,266.7-37.6 M278.6-38c-3.1,0.2-6.1,1-9,1.9c-1.6,0.6-3.2,1.3-4.8,2
		c-1.3,0.4-2.7,1.1-3.4,2.3c3-0.3,6-1.1,9-1.6c0.7-0.3,1.5-0.2,2.1-0.5c0.9,0,1.8-0.4,2.7-0.4c1.2-0.2,2.5-0.4,3.7-0.6
		c1.3-0.1,2.6-0.3,3.9-0.6c0.9-0.3,1.9-0.1,2.9-0.3c1.5-0.2,3.1-0.2,4.6-0.4c0.7-0.1,1.5-0.1,2.2-0.2c-0.1-0.4-0.4-0.5-0.7-0.6
		c-1.6-0.4-3.2-0.7-4.7-1.1C284.2-38.3,281.4-38.5,278.6-38 M304.1-36.9c0,0.1-0.1,0.2-0.1,0.3c0.8,0.2,1.7,0.2,2.5,0.2v-0.3
		C305.7-36.8,304.9-37.1,304.1-36.9 M302.1-36.8c0,0.1,0,0.3,0,0.4c0.5-0.1,0.9-0.1,1.4-0.1c0-0.1,0-0.2,0-0.3
		C303-36.8,302.5-36.8,302.1-36.8 M310.7-36.5c0,0.1,0,0.3,0,0.4c0.5,0,0.9,0.1,1.4,0.1c0-0.1,0-0.3,0-0.5
		C311.7-36.5,311.2-36.5,310.7-36.5 M304.7-35.5c-0.9,0-1.8,0.4-2.7,0.2c0.2,0.5,0.5,1,0.9,1.3c0.9-0.2,1.7-0.8,2.6-0.9
		c0.6-0.1,1.2-0.2,1.9-0.4c0-0.1,0.1-0.3,0.1-0.3C306.5-35.8,305.6-35.7,304.7-35.5z"/>
	<path fill="#D2202E" d="M286.3-31.7c1-1.2,2.7-1.9,4.3-1.6c1.3,0.3,2,1.7,2,2.9c0,2.8,0,5.6,0,8.4c-1.8,0.5-3.6,1-5.4,1.4
		c0-1.9,0-3.8,0-5.8c0-0.5-0.1-1-0.2-1.5c-0.8-0.2-1.5,0.4-1.5,1.2c-0.1,2.2,0,4.4-0.1,6.6c-1.8,0.4-3.6,0.9-5.4,1.4
		c-0.1-4,0-7.9,0-11.9c1.7-0.4,3.5-0.9,5.2-1.4c0,0.4,0,0.8,0,1.2C285.8-30.8,286-31.3,286.3-31.7z"/>
	<path fill="#D2202E" d="M273.5-29c1.1-0.1,2.2,0,3.1,0.5c1.6,0.9,2.3,3,2.2,4.8c-0.1,1.9-1,3.8-2.2,5.2c-1.2,1.4-3,2.4-4.9,2.5
		c-1.4,0-2.9-0.6-3.7-1.8c-1.2-1.6-1.2-3.8-0.6-5.6C268.3-26.1,270.6-28.5,273.5-29 M272.3-24c-0.8,0.8-1.1,2.2-0.3,3.1
		c0.4,0,0.9,0.1,1.3-0.1c1.1-0.6,1.4-2.3,0.5-3.2c-0.2-0.1-0.4-0.1-0.6-0.2C272.9-24.3,272.6-24.1,272.3-24z"/>
	<path fill="#D2202E" d="M263.5-25.4c0.7-0.9,1.8-1.5,2.9-1.7c0.1,1.9,0,3.8,0,5.7c-1-0.3-2.1-0.1-2.8,0.6c-0.6,0.6-0.8,1.4-0.8,2.2
		c0,1.6,0,3.1,0,4.7c-1.8,0.5-3.6,0.9-5.4,1.4c0-4,0-7.9,0-11.9c1.7-0.4,3.5-0.9,5.2-1.3c0,0.4,0,0.8,0,1.1
		C263-24.7,263.2-25.1,263.5-25.4z"/>
	<path fill="#D2202E" d="M240.7-19.9c1.7-0.5,3.4-0.9,5.1-1.4c0,4,0,7.9,0,11.9c-1.7,0.3-3.3,1-5,1.2c0-0.4,0-0.9,0-1.3
		c-0.4,0.2-0.6,0.6-0.9,0.9c-0.7,0.9-1.7,1.7-2.9,1.9c-1.1,0.3-2.2-0.1-3-0.9c-1.1-1.2-1.3-3-1.3-4.5c0-2.1,0.7-4.3,2.1-5.9
		c1-1.1,2.5-1.8,3.9-1.5c0.6,0.1,1.1,0.4,1.5,0.8c0.1,0,0.3,0.1,0.3,0.1C240.7-19,240.7-19.5,240.7-19.9 M239.5-15.3
		c-1.2,0.3-1.7,1.7-1.3,2.8c0.1,0.5,0.6,0.8,1.1,0.7c1.2-0.2,1.8-1.7,1.5-2.7C240.5-15.2,239.9-15.5,239.5-15.3z"/>
	<path fill="#D2202E" d="M225.7-15.8c1.1-0.9,2.7-1.4,4-0.8c1.1,0.6,1.8,1.8,2,3c0.5,2.6,0.1,5.6-1.6,7.8c-0.9,1.2-2.2,1.9-3.7,2
		c-0.9,0-1.7-0.5-2.3-1.1c0.1,2.2,0,4.4,0.1,6.5c-1.8,0.5-3.6,1-5.4,1.4v-16.1c0-0.2,0.1-0.7,0.1-1c1.7-0.5,3.4-0.9,5.1-1.4
		c0,0.4,0,0.8,0,1.2C224.7-14.6,225-15.4,225.7-15.8 M224.3-10.8c-0.4,0.8-0.4,1.8,0,2.5c0.6,0.2,1.3,0.2,1.7-0.3
		c0.8-0.8,1-2.4,0-3.1C225.4-11.7,224.7-11.4,224.3-10.8z"/>
</g>
</svg>
