<?xml version="1.0" encoding="UTF-8"?>
<svg width="86px" height="32px" viewBox="0 0 86 32" version="1.1" xmlns="http://www.w3.org/2000/svg" xmlns:xlink="http://www.w3.org/1999/xlink">
    <!-- Generator: Sketch 46.2 (44496) - http://www.bohemiancoding.com/sketch -->
    <title>gr_meteor_logo_white</title>
    <desc>Created with Sketch.</desc>
    <defs></defs>
    <g id="Symbols" stroke="none" stroke-width="1" fill="none" fill-rule="evenodd">
        <g id="gr_meteor_logo_white" fill-rule="nonzero" fill="#FFFFFF">
            <g id="METEOR_logowhite" transform="translate(2.000000, 0.000000)">
                <path d="M73.9460639,12.106076 L73.9460639,8.40493654 L76.7300067,8.40493654 C77.8701448,8.40493654 78.3962323,9.28219217 78.3962323,10.2233746 C78.3962323,11.1648018 77.8480996,12.106076 76.7300067,12.106076 L73.9460639,12.106076 Z M79.9967601,14.6731819 C81.5093561,13.6678279 82.2548035,12.0203609 82.2765984,10.309059 C82.2765984,7.67775103 80.4568672,5.01660646 76.7520525,5.00350898 C74.4939153,4.99561377 75.9371747,5.00350898 73.657337,5.00350898 L70,8.56412596 L70,20 L74.0118566,20 L74.0118566,15.2935066 L76.1163946,15.2935066 L78.7470829,20 L83,20 L83,19.4403276 L79.9967601,14.6731819 Z" id="Fill-2"></path>
                <path d="M50.809584,5.04260825 L41.5656159,5.04260825 L41.5656159,20 L51,20 L51,16.431727 L45.4365716,16.431727 L45.4365716,13.995782 L50.3863902,13.995782 L50.3863902,10.5768824 L45.4365716,10.5768824 L45.4365716,8.4400204 L50.809584,8.4400204 L50.809584,5.04260825 Z M32.2159553,8.46150788 L32.2159553,20 L35.9600073,20 L35.9600073,8.46150788 L39.577428,8.46150788 L39.577428,5.04260825 L28.5778682,5.04260825 L28.5778682,8.46150788 L32.2159553,8.46150788 Z M26.9066974,5.04260825 L17.6627293,5.04260825 L17.6627293,20 L27.0970226,20 L27.0970226,16.431727 L21.533685,16.431727 L21.533685,13.995782 L26.4834128,13.995782 L26.4834128,10.5768824 L21.533685,10.5768824 L21.533685,8.4400204 L26.9066974,8.4400204 L26.9066974,5.04260825 Z M7.25550777,11.4743148 L1.37482016,5 L0,5 L0,20 L3.87095568,20 L3.87095568,13.0983495 L7.02263921,16.431727 L7.46686262,16.431727 L10.6187882,13.0983495 L10.6187882,20 L14.4897742,20 L14.4897742,5 L13.1149237,5 L7.25550777,11.4743148 Z" id="Fill-3"></path>
                <path d="M64.7111601,6.55492273 C64.5584949,6.42511484 64.4017995,6.30219274 64.2419211,6.18603619 L61.682356,8.72533354 C61.8592372,8.82047186 62.030663,8.92887066 62.1950872,9.05110116 L56.3675221,14.8325889 C56.1129597,14.4959363 55.9172565,14.1292448 55.7801403,13.746707 L61.1007025,8.4680932 L63.7391314,5.85052623 L67.9589135,1.6642292 L66.2769656,1.6642292 L62.6243182,5.28799529 C62.4208564,5.20530553 62.2143331,5.13157633 62.0059005,5.06704824 L58.6960445,8.35064366 C59.0121337,8.27300554 59.3355267,8.23250258 59.6593143,8.22928517 L55.5393987,12.3168957 C55.5498855,11.2771096 55.9535968,10.2408114 56.7506232,9.44608762 L56.7580791,9.43860043 L56.7766584,9.42052894 L61.3402316,4.89300884 L62.9170998,3.32833812 L61.2351823,3.32833812 L59.8321946,4.72014214 C57.8179421,4.68613409 55.793173,5.4312741 54.2558273,6.95613344 C51.2480576,9.94012135 51.2480576,14.7779535 54.2558273,17.7619415 C57.263597,20.7460195 62.1400167,20.7460195 65.1477861,17.7619415 C67.244963,15.681467 67.8793534,12.6994336 67.0519881,10.0732368 L63.7421619,13.3568323 C63.566008,14.0612288 63.2006374,14.7288809 62.6455346,15.2794745 C61.8435375,16.0754912 60.7954644,16.4784159 59.7441176,16.4888799 L63.8645788,12.4010288 L66.8293102,9.45973891 L71.3320845,4.99256732 L69.650136,4.99256732 L66.2621749,8.35362051 L66.2569312,8.34520121 L66.2522334,8.33753361 L66.2469902,8.3290842 L66.2366547,8.3129672 L66.2267138,8.29703066 L66.2211976,8.2886113 L66.2163783,8.28091365 L66.2061644,8.26482675 L66.2056493,8.26404495 L66.1958592,8.24889015 L66.1898584,8.23950864 L66.1853723,8.2327732 L66.1751584,8.21683661 L66.1741283,8.2151227 L66.1645808,8.20099027 L66.1581556,8.1908269 L66.1543669,8.18487327 L66.1437894,8.16893667 L66.1420613,8.16647101 L66.1330599,8.15309034 L66.1258466,8.14217527 L66.1225729,8.13712369 L66.111844,8.1212773 L66.1095103,8.11802984 L66.1012659,8.10543097 L66.0932646,8.09400472 L66.0905369,8.08973494 L66.079777,8.07388855 L66.0767769,8.06961877 L66.0688054,8.05795201 L66.0602886,8.04559365 L66.0579549,8.04234619 L66.0469833,8.02668021 L66.0437102,8.02171884 L66.036224,8.01080377 L66.0269495,7.99760351 L66.0252215,7.99513785 L66.0142499,7.97953202 L66.0099462,7.9738189 L66.002975,7.9638661 L65.9929428,7.94997419 L65.9919122,7.94826028 L65.9806378,7.93256425 L65.9759097,7.92618964 L65.9693933,7.91698848 L65.9586638,7.90231482 L65.9581487,7.90153302 L65.9468738,7.8859573 L65.941388,7.87844006 L65.9356292,7.87026127 L65.9241122,7.85492607 L63.3648196,10.3939829 L63.3645466,10.3942535 C63.4663532,10.5809219 63.5529752,10.7738747 63.623746,10.9711875 L58.3029112,16.2499817 C57.9173245,16.1139495 57.5476496,15.9193429 57.2083751,15.6667933 L63.0361828,9.885065 L63.0364552,9.88530556 L65.5522855,7.3893677 L65.5520125,7.38912713 L73,0 L71.3183245,0 L64.7111601,6.55492273 Z" id="Fill-4"></path>
                <path d="M22,28.0123773 C22,29.9848979 23.3863942,30.9670049 24.7424841,30.9670049 C25.7328526,30.9670049 26.7384037,30.5048757 27.1269446,29.2916051 C27.3021075,28.7304246 27.3097748,28.1774847 27.2716814,27.6162053 L24.7577276,27.6162053 L24.7577276,28.8872255 L25.8928329,28.8872255 C25.6414223,29.4401655 25.2910052,29.5887259 24.7424841,29.5887259 C23.9273393,29.5887259 23.4092746,28.9697298 23.4092746,28.0041368 C23.4092746,27.1293215 23.8816393,26.394826 24.7424841,26.394826 C25.2604575,26.394826 25.5957223,26.568141 25.831859,27.0302702 L27.1879185,27.0302702 C26.9059905,25.6272366 25.8014026,25.0413016 24.7424841,25.0413016 C23.3863942,25.0413016 22,26.0316162 22,28.0123773 Z M34.3299511,28.8376834 C34.8556223,28.4498508 35.1146394,27.8142748 35.1222155,27.1540761 C35.1222155,26.138875 34.4899618,25.1072588 33.2024523,25.1072588 C32.417764,25.0990512 31.6483496,25.1072588 30.8560852,25.1072588 L30.8560852,30.8927412 L32.2502077,30.8927412 L32.2502077,29.0770875 L32.9815591,29.0770875 L33.8957103,30.8927412 L35.373626,30.8927412 L35.373626,30.6768062 L34.3299511,28.8376834 Z M32.2273273,27.8473688 L32.2273273,26.4195806 L33.1948762,26.4195806 C33.5909932,26.4195806 33.7738234,26.7579041 33.7738234,27.121081 C33.7738234,27.4841919 33.5834171,27.8473688 33.1948762,27.8473688 L32.2273273,27.8473688 Z M44.0241223,28.0041368 C44.0241223,26.0068616 42.6680629,25 41.3044274,25 C39.9179114,25 38.5543368,26.0068616 38.5543368,28.0041368 C38.5543368,30.0096524 39.8722115,31 41.2815774,31 C42.8966235,31 44.0241223,29.7702814 44.0241223,28.0041368 Z M39.9484288,28.0041368 C39.9484288,26.947766 40.6111694,26.4360287 41.3044274,26.4360287 C41.9672288,26.4360287 42.6300303,26.9725206 42.6300303,28.0041368 C42.6300303,29.0357859 41.9519549,29.5721789 41.2892447,29.5721789 C40.6035629,29.5721789 39.9484288,29.0357859 39.9484288,28.0041368 Z M49.7415456,30.9670049 C50.8614683,30.9670049 51.8975368,30.2820186 51.8975368,28.9862438 L51.8975368,25.1155653 L50.5186274,25.1155653 L50.5186274,28.9532817 C50.5186274,29.4319579 50.1225104,29.638268 49.7492129,29.638268 C49.353096,29.638268 48.9645551,29.4319579 48.9645551,28.9532817 L48.9645551,25.1155653 L47.5704327,25.1155653 L47.5704327,28.9862438 C47.5704327,30.2820186 48.6141077,30.9670049 49.7415456,30.9670049 Z M57.1274128,30.8927412 L57.1274128,29.3906563 L58.0873247,29.3906563 C59.351893,29.3906563 59.9994207,28.3342526 59.9994207,27.2778819 C60.0223009,26.1884171 59.367167,25.1072588 58.0873247,25.1072588 C57.2949693,25.0990512 56.5255852,25.1072588 55.7332903,25.1072588 L55.7332903,30.8927412 L57.1274128,30.8927412 Z M57.1045326,28.0784334 L57.1045326,26.4195806 L58.0873247,26.4195806 C58.4681981,26.4195806 58.6663026,26.8239602 58.6663026,27.2365803 C58.6663026,27.6575069 58.4529246,28.0784334 58.0873247,28.0784334 L57.1045326,28.0784334 Z" id="Fill-5"></path>
            </g>
        </g>
    </g>
</svg>