<?xml version="1.0" encoding="UTF-8"?>
<svg width="48px" height="48px" viewBox="0 0 48 48" version="1.1" xmlns="http://www.w3.org/2000/svg" xmlns:xlink="http://www.w3.org/1999/xlink">
    <!-- Generator: Sketch 49.3 (51167) - http://www.bohemiancoding.com/sketch -->
    <title>gr_noimage_48px</title>
    <desc>Created with Sketch.</desc>
    <defs></defs>
    <g id="gr_noimage_48px" stroke="none" stroke-width="1" fill="none" fill-rule="evenodd">
        <g id="Group-2">
            <rect id="Rectangle-18" fill="#F8F6F6" x="0" y="0" width="48" height="48"></rect>
            <g id="Page-1" transform="translate(14.000000, 14.000000)" fill="#E2DEDE">
                <path d="M13.7273,9.9173 C13.5803,8.3993 12.3843,7.2033 10.8663,7.0563 L13.7273,9.9173 Z" id="Fill-1"></path>
                <path d="M8.816,7.546 C7.94,8.117 7.358,9.101 7.358,10.225 C7.358,11.992 8.791,13.425 10.558,13.425 C11.682,13.425 12.666,12.843 13.237,11.967 L8.816,7.546 Z" id="Fill-3"></path>
                <path d="M9.2348,5.4248 C9.6588,5.3078 10.0968,5.2248 10.5578,5.2248 C13.3178,5.2248 15.5578,7.4648 15.5578,10.2248 C15.5578,10.6858 15.4758,11.1238 15.3588,11.5488 L20.4978,16.6878 C20.5338,16.5388 20.5578,16.3848 20.5578,16.2248 L20.5578,4.2248 C20.5578,3.1248 19.6578,2.2248 18.5578,2.2248 L15.3888,2.2248 L13.5578,0.2248 L7.5578,0.2248 L5.8748,2.0648 L9.2348,5.4248 Z" id="Fill-5"></path>
                <path d="M14.5168,13.2468 C13.6028,14.4418 12.1778,15.2248 10.5588,15.2248 C7.7988,15.2248 5.5588,12.9848 5.5588,10.2248 C5.5588,8.6058 6.3418,7.1808 7.5368,6.2668 L3.4948,2.2248 L2.5588,2.2248 C1.4588,2.2248 0.5588,3.1248 0.5588,4.2248 L0.5588,16.2248 C0.5588,17.3248 1.4588,18.2248 2.5588,18.2248 L18.5588,18.2248 C18.8338,18.2248 19.0968,18.1688 19.3368,18.0668 L14.5168,13.2468 Z" id="Fill-7"></path>
                <polygon id="Fill-9" points="20.7 19.43 1.27 0 0 1.27 19.43 20.7"></polygon>
            </g>
        </g>
    </g>
</svg>