<?xml version="1.0" encoding="UTF-8"?>
<svg width="24px" height="24px" viewBox="0 0 24 24" version="1.1" xmlns="http://www.w3.org/2000/svg" xmlns:xlink="http://www.w3.org/1999/xlink">
    <!-- Generator: Sketch 53.2 (72643) - https://sketchapp.com -->
    <title>ic_account_circle_white_bold</title>
    <desc>Created with Sketch.</desc>
    <g id="ic_account_circle_white_bold" stroke="none" stroke-width="1" fill="none" fill-rule="evenodd">
        <g id="Group-3" transform="translate(2.000000, 2.000000)" fill="#FFFFFF">
            <path d="M10,17.2002 C7.5,17.2002 5.29,15.9202 4,13.9802 C4.03,11.9902 8,10.9002 10,10.9002 C11.99,10.9002 15.97,11.9902 16,13.9802 C14.71,15.9202 12.5,17.2002 10,17.2002 M10,3.0002 C11.66,3.0002 13,4.3402 13,6.0002 C13,7.6602 11.66,9.0002 10,9.0002 C8.34,9.0002 7,7.6602 7,6.0002 C7,4.3402 8.34,3.0002 10,3.0002 M10,0.0002 C4.48,0.0002 0,4.4802 0,10.0002 C0,15.5192 4.48,20.0002 10,20.0002 C15.52,20.0002 20,15.5192 20,10.0002 C20,4.4802 15.52,0.0002 10,0.0002" id="Fill-1"></path>
        </g>
    </g>
</svg>