<?xml version="1.0" encoding="UTF-8"?>
<svg width="24px" height="24px" viewBox="0 0 24 24" version="1.1" xmlns="http://www.w3.org/2000/svg" xmlns:xlink="http://www.w3.org/1999/xlink">
    <!-- Generator: Sketch 49.3 (51167) - http://www.bohemiancoding.com/sketch -->
    <title>ic_cart_grey</title>
    <desc>Created with Sketch.</desc>
    <defs></defs>
    <g id="ic_cart_grey" stroke="none" stroke-width="1" fill="none" fill-rule="evenodd">
        <path d="M8.9834374,18.9265625 C8.9834374,19.6441624 8.40103743,20.2265624 7.68343745,20.2265624 C6.96583748,20.2265624 6.3834375,19.6441624 6.3834375,18.9265625 C6.3834375,18.2089625 6.96583748,17.6265625 7.68343745,17.6265625 C8.40103743,17.6265625 8.9834374,18.2089625 8.9834374,18.9265625" id="Fill-1" fill="#9299A2"></path>
        <path d="M17.4209374,18.9265625 C17.4209374,19.6441624 16.8385374,20.2265624 16.1209375,20.2265624 C15.4033375,20.2265624 14.8209375,19.6441624 14.8209375,18.9265625 C14.8209375,18.2089625 15.4033375,17.6265625 16.1209375,17.6265625 C16.8385374,17.6265625 17.4209374,18.2089625 17.4209374,18.9265625" id="Fill-3" fill="#9299A2"></path>
        <path d="M3,4.5 L5.390625,4.5 L8.835375,11.6923077 L7.366125,14.2567179 C7.048875,14.8106667 7.447125,15.5 8.08275,15.5 L17.90625,15.5" id="Stroke-5" stroke="#9299A2" stroke-width="1.4"></path>
        <path d="M8.5531125,12.5 L15.6226125,12.5 C15.8161125,12.5 15.9927375,12.3904367 16.0793625,12.2176205 L18.5847375,7.24548193 C18.7568625,6.90323795 18.5093625,6.5 18.1279875,6.5 L6.2018625,6.5" id="Stroke-7" stroke="#9299A2" stroke-width="1.4"></path>
    </g>
</svg>