<?xml version="1.0" encoding="UTF-8"?>
<svg width="18px" height="18px" viewBox="0 0 18 18" version="1.1" xmlns="http://www.w3.org/2000/svg" xmlns:xlink="http://www.w3.org/1999/xlink">
    <!-- Generator: Sketch 53.2 (72643) - https://sketchapp.com -->
    <title>ic_cart_black</title>
    <desc>Created with Sketch.</desc>
    <g id="ic_cart_black" stroke="none" stroke-width="1" fill="none" fill-rule="evenodd">
        <g id="Group-9" transform="translate(1.000000, 1.000000)" fill="#000000">
            <g id="Group-8">
                <path d="M6.2446,9 L10.7546,9 C11.5956,9 12.3516,8.533 12.7276,7.781 L14.7766,3.685 C14.9566,3.321 14.9376,2.897 14.7236,2.552 C14.5096,2.206 14.1396,2 13.7336,2 L3.6186,2 L2.6186,0 L-0.0004,0 L-0.0004,2 L1.3816,2 L4.2726,7.781 C4.3226,7.882 4.3956,7.962 4.4586,8.053 L3.5506,9.73 C3.2896,10.211 3.3006,10.778 3.5806,11.249 C3.8606,11.719 4.3546,12 4.9026,12 L12.9996,12 L12.9996,10 L5.6786,10 L6.2216,8.997 C6.2286,8.997 6.2366,9 6.2446,9" id="Fill-1"></path>
                <path d="M7,14.5 C7,15.328 6.329,16 5.5,16 C4.671,16 4,15.328 4,14.5 C4,13.672 4.671,13 5.5,13 C6.329,13 7,13.672 7,14.5" id="Fill-4"></path>
                <path d="M13,14.5 C13,15.328 12.328,16 11.5,16 C10.672,16 10,15.328 10,14.5 C10,13.672 10.672,13 11.5,13 C12.328,13 13,13.672 13,14.5" id="Fill-6"></path>
            </g>
        </g>
    </g>
</svg>