<?xml version="1.0" encoding="UTF-8"?>
<svg width="24px" height="24px" viewBox="0 0 24 24" version="1.1" xmlns="http://www.w3.org/2000/svg" xmlns:xlink="http://www.w3.org/1999/xlink">
    <!-- Generator: Sketch 50.2 (55047) - http://www.bohemiancoding.com/sketch -->
    <title>ic_discount_white</title>
    <desc>Created with Sketch.</desc>
    <defs></defs>
    <g id="ic_discount_white" stroke="none" stroke-width="1" fill="none" fill-rule="evenodd">
        <path d="M8.16,12.16 C7.2399954,12.16 6.4833363,11.8100035 5.89,11.11 C5.2966637,10.4099965 5,9.5666716 5,8.58 C5,7.6066618 5.299997,6.7666702 5.9,6.06 C6.500003,5.3533298 7.266662,5 8.2,5 C9.1200046,5 9.8733304,5.3499965 10.46,6.05 C11.0466696,6.7500035 11.34,7.5933284 11.34,8.58 C11.34,9.5533382 11.040003,10.3933298 10.44,11.1 C9.839997,11.8066702 9.0800046,12.16 8.16,12.16 Z M6.44,19.16 L16.72,5.16 L18.14,5.16 L7.88,19.16 L6.44,19.16 Z M16.4,19.32 C15.4799954,19.32 14.7266696,18.9700035 14.14,18.27 C13.5533304,17.5699965 13.26,16.7266716 13.26,15.74 C13.26,14.7666618 13.559997,13.9266702 14.16,13.22 C14.760003,12.5133298 15.5199954,12.16 16.44,12.16 C17.3600046,12.16 18.1133304,12.5099965 18.7,13.21 C19.2866696,13.9100035 19.58,14.7533284 19.58,15.74 C19.58,16.7266716 19.2833363,17.5699965 18.69,18.27 C18.0966637,18.9700035 17.333338,19.32 16.4,19.32 Z M8.2,11.04 C8.733336,11.04 9.1699983,10.8033357 9.51,10.33 C9.8500017,9.8566643 10.02,9.2733368 10.02,8.58 C10.02,7.8866632 9.8400018,7.3033357 9.48,6.83 C9.1199982,6.3566643 8.6800026,6.12 8.16,6.12 C7.626664,6.12 7.1900017,6.3566643 6.85,6.83 C6.5099983,7.3033357 6.34,7.8866632 6.34,8.58 C6.34,9.2733368 6.5199982,9.8566643 6.88,10.33 C7.2400018,10.8033357 7.6799974,11.04 8.2,11.04 Z M16.44,18.2 C16.9866694,18.2 17.426665,17.966669 17.76,17.5 C18.093335,17.033331 18.26,16.4466702 18.26,15.74 C18.26,15.0466632 18.0800018,14.4633357 17.72,13.99 C17.3599982,13.5166643 16.9200026,13.28 16.4,13.28 C15.866664,13.28 15.4300017,13.5166643 15.09,13.99 C14.7499983,14.4633357 14.58,15.0466632 14.58,15.74 C14.58,16.4333368 14.7599982,17.0166643 15.12,17.49 C15.4800018,17.9633357 15.9199974,18.2 16.44,18.2 Z" id="ic" fill="#FFFFFF"></path>
    </g>
</svg>