<?xml version="1.0" encoding="UTF-8"?>
<svg width="24px" height="24px" viewBox="0 0 24 24" version="1.1" xmlns="http://www.w3.org/2000/svg" xmlns:xlink="http://www.w3.org/1999/xlink">
    <!-- Generator: Sketch 49.3 (51167) - http://www.bohemiancoding.com/sketch -->
    <title>ic_delivery</title>
    <desc>Created with Sketch.</desc>
    <defs></defs>
    <g id="ic_delivery" stroke="none" stroke-width="1" fill="none" fill-rule="evenodd">
        <g id="Page-1" transform="translate(12.500000, 12.000000) scale(-1, 1) translate(-12.500000, -12.000000) translate(3.000000, 6.000000)" stroke="#9299A2" stroke-width="1.3">
            <path d="M17,10 C17,11.1041937 16.1048649,12 14.9995676,12 C13.8951351,12 13,11.1041937 13,10 C13,8.89580631 13.8951351,8 14.9995676,8 C16.1048649,8 17,8.89580631 17,10 Z" id="Stroke-1"></path>
            <path d="M6,10 C6,11.1041937 5.10486486,12 3.99956757,12 C2.89513514,12 2,11.1041937 2,10 C2,8.89580631 2.89513514,8 3.99956757,8 C5.10486486,8 6,8.89580631 6,10 Z" id="Stroke-3"></path>
            <path d="M8,9 L6,9" id="Stroke-6" stroke-linejoin="round"></path>
            <path d="M8,2 L3.10622388,2 C2.38662855,2 1.73389048,2.41288654 1.43743127,3.0559207 L0,6.17541213 L0,10 L1.92390587,10" id="Stroke-8" stroke-linejoin="round"></path>
            <path d="M13.1935684,10 L8,10 L8,1.74709677 C8,0.781935484 8.77481596,0 9.73033708,0 L17.8424642,0 C18.4817513,0 19,0.523010753 19,1.16817204 L19,10 L17.1358388,10" id="Stroke-11" stroke-linejoin="round"></path>
        </g>
    </g>
</svg>