<?xml version="1.0" encoding="UTF-8"?>
<svg width="24px" height="24px" viewBox="0 0 24 24" version="1.1" xmlns="http://www.w3.org/2000/svg" xmlns:xlink="http://www.w3.org/1999/xlink">
    <!-- Generator: Sketch 50.2 (55047) - http://www.bohemiancoding.com/sketch -->
    <title>ic_footer_soc_vk</title>
    <desc>Created with Sketch.</desc>
    <defs></defs>
    <g id="ic_footer_soc_vk" stroke="none" stroke-width="1" fill="none" fill-rule="evenodd">
        <path d="M17.5375028,12.0239687 C17.5375028,12.0239687 19.8433465,8.77137613 20.0724775,7.70244115 C20.1488116,7.32070622 19.9808379,7.10681633 19.5837333,7.10681633 L17.5833548,7.10681633 C17.1252214,7.10681633 16.9572477,7.3053365 16.8198206,7.5954962 C16.8198206,7.5954962 15.7382812,9.89998934 14.4223374,11.3521383 C13.9998953,11.82159 13.7851051,11.9628757 13.5519226,11.9628757 C13.3638204,11.9628757 13.2770683,11.8060917 13.2770683,11.3826206 L13.2770683,7.67189464 C13.2770683,7.15273256 13.2159753,7 12.7884528,7 L9.58164784,7 C9.33727575,7 9.18454319,7.14205736 9.18454319,7.33588301 C9.18454319,7.82482012 9.93283626,7.93523772 9.93283626,9.2599917 L9.93283626,11.9934222 C9.93283626,12.5431951 9.90228975,12.7569563 9.64267655,12.7569563 C8.95554082,12.7569563 7.32159184,10.390084 6.40538942,7.70244115 C6.22211035,7.15273256 6.02359018,7 5.50436379,7 L3.50398529,7 C3.21382558,7 3,7.19845586 3,7.48855126 C3,8.02301875 3.62610702,10.4969003 6.0846832,13.8106502 C7.73387328,16.0400954 9.90228975,17.2464575 11.8568806,17.2464575 C13.0480017,17.2464575 13.3381614,17.0480017 13.3381614,16.5440164 L13.3381614,14.8337333 C13.3381614,14.4061464 13.506135,14.2229317 13.7504428,14.2229317 C14.0252971,14.2229317 14.51044,14.3112272 15.644005,15.4292938 C16.9877943,16.7120543 17.0794338,17.2464575 17.8124858,17.2464575 L20.057172,17.2464575 C20.2862387,17.2464575 20.5,17.1395769 20.5,16.757842 C20.5,16.2538567 19.8433465,15.3529597 18.8355045,14.2839604 C18.4232231,13.7342518 17.7513284,13.1387556 17.5375028,12.8639013 C17.2321663,12.5431951 17.3237416,12.3598517 17.5375028,12.0239687" id="Fill-1" fill="#FFFFFF"></path>
    </g>
</svg>