<?xml version="1.0" encoding="UTF-8"?>
<svg width="24px" height="24px" viewBox="0 0 24 24" version="1.1" xmlns="http://www.w3.org/2000/svg" xmlns:xlink="http://www.w3.org/1999/xlink">
    <!-- Generator: Sketch 50.2 (55047) - http://www.bohemiancoding.com/sketch -->
    <title>ic_footer_soc_inst</title>
    <desc>Created with Sketch.</desc>
    <defs></defs>
    <g id="ic_footer_soc_inst" stroke="none" stroke-width="1" fill="none" fill-rule="evenodd">
        <path d="M20.9457831,15.7107133 C20.9021243,16.6684737 20.7500317,17.3229099 20.5274572,17.8952196 C20.2974635,18.4872741 19.9895688,18.9891897 19.4893469,19.4893884 C18.9891249,19.9898733 18.4871909,20.2974898 17.895371,20.5275583 C17.3226696,20.7499006 16.668643,20.902135 15.7107166,20.9459167 C14.7507926,20.9896984 14.4443247,21 12,21 C9.55567533,21 9.24920736,20.9896984 8.28928345,20.9459167 C7.33135701,20.902135 6.67704502,20.7499006 6.10462904,20.5275583 C5.51280913,20.2974898 5.01087508,19.9898733 4.51065314,19.4893884 C4.01014585,18.9891897 3.70253646,18.4872741 3.4725428,17.8952196 C3.24996829,17.3229099 3.09787571,16.6684737 3.05421687,15.7107133 C3.01027267,14.7506637 3,14.4441919 3,11.9998569 C3,9.55580815 3.01027267,9.24905012 3.05421687,8.28928668 C3.09787571,7.33124016 3.24996829,6.67709012 3.4725428,6.10449422 C3.70253646,5.51272594 4.01014585,5.0108103 4.51065314,4.51061158 C5.01087508,4.0101267 5.51280913,3.70251021 6.10462904,3.4724417 C6.67704502,3.25009936 7.33135701,3.09786497 8.28928345,3.05408327 C9.24920736,3.01030158 9.55567533,3 12,3 C14.4443247,3 14.7507926,3.01030158 15.7107166,3.05408327 C16.668643,3.09786497 17.3226696,3.25009936 17.895371,3.4724417 C18.4871909,3.70251021 18.9891249,4.0101267 19.4893469,4.51061158 C19.9895688,5.0108103 20.2974635,5.51272594 20.5274572,6.10449422 C20.7500317,6.67709012 20.9021243,7.33124016 20.9457831,8.28928668 C20.989442,9.24905012 21,9.55580815 21,11.9998569 C21,14.4441919 20.989442,14.7506637 20.9457831,15.7107133 Z M19.3258402,8.36311464 C19.2858909,7.4857638 19.13922,7.00902978 19.015948,6.69197018 C18.8527267,6.27189482 18.657546,5.97200451 18.3428028,5.65723415 C18.0277743,5.34217764 17.7278694,5.14730617 17.3078313,4.98391174 C16.9908053,4.86057899 16.5142676,4.71406769 15.6368104,4.67400601 C14.6877299,4.63079662 14.4029486,4.62163967 12,4.62163967 C9.59676601,4.62163967 9.31227013,4.63079662 8.3631896,4.67400601 C7.4857324,4.71406769 7.00919467,4.86057899 6.69216867,4.98391174 C6.27184528,5.14730617 5.97222575,5.34217764 5.65719721,5.65723415 C5.34216867,5.97200451 5.1472733,6.27189482 4.984052,6.69197018 C4.86077996,7.00902978 4.71410907,7.4857638 4.6741598,8.36311464 C4.6307863,9.31229035 4.62165504,9.5967283 4.62165504,11.9998569 C4.62165504,14.4029855 4.6307863,14.6877096 4.6741598,15.6368854 C4.71410907,16.5142362 4.86077996,16.9906841 4.984052,17.3080298 C5.1472733,17.7281052 5.34216867,18.0277093 5.65719721,18.3427658 C5.97222575,18.6578224 6.27184528,18.8526938 6.69216867,19.0160883 C7.00919467,19.1391349 7.4857324,19.2859323 8.3631896,19.325994 C9.31198478,19.3692034 9.59676601,19.3783603 12,19.3783603 C14.403234,19.3783603 14.6877299,19.3692034 15.6368104,19.325994 C16.5142676,19.2859323 16.9908053,19.1391349 17.3078313,19.0160883 C17.7278694,18.8526938 18.0277743,18.6578224 18.3428028,18.3427658 C18.657546,18.0277093 18.8527267,17.7281052 19.015948,17.3080298 C19.13922,16.9906841 19.2858909,16.5142362 19.3258402,15.6368854 C19.3692137,14.6877096 19.378345,14.4029855 19.378345,11.9998569 C19.378345,9.5967283 19.3692137,9.31229035 19.3258402,8.36311464 Z M16.8041852,8.2758374 C16.2077996,8.2758374 15.7241281,7.79223566 15.7241281,7.19560275 C15.7241281,6.599256 16.2077996,6.11565426 16.8041852,6.11565426 C17.4005707,6.11565426 17.8842422,6.599256 17.8842422,7.19560275 C17.8842422,7.79223566 17.4005707,8.2758374 16.8041852,8.2758374 Z M12,16.6215443 C9.44752695,16.6215443 7.37844008,14.5523584 7.37844008,11.9998569 C7.37844008,9.44735545 9.44752695,7.37845572 12,7.37845572 C14.5524731,7.37845572 16.6215599,9.44735545 16.6215599,11.9998569 C16.6215599,14.5523584 14.5524731,16.6215443 12,16.6215443 Z M12,9.00009538 C10.3432467,9.00009538 9.00009512,10.3430202 9.00009512,11.9998569 C9.00009512,13.6566936 10.3432467,14.9999046 12,14.9999046 C13.6567533,14.9999046 14.9999049,13.6566936 14.9999049,11.9998569 C14.9999049,10.3430202 13.6567533,9.00009538 12,9.00009538 Z" id="Shape" fill="#FFFFFF"></path>
    </g>
</svg>