<?xml version="1.0" encoding="UTF-8"?>
<svg width="24px" height="24px" viewBox="0 0 24 24" version="1.1" xmlns="http://www.w3.org/2000/svg" xmlns:xlink="http://www.w3.org/1999/xlink">
    <!-- Generator: Sketch 50.2 (55047) - http://www.bohemiancoding.com/sketch -->
    <title>ic_footer_soc_fb</title>
    <desc>Created with Sketch.</desc>
    <defs></defs>
    <g id="ic_footer_soc_fb" stroke="none" stroke-width="1" fill="none" fill-rule="evenodd">
        <path d="M15.5162051,9.72416121 C15.7583725,9.72416121 15.9453482,9.93535369 15.9171892,10.1752684 L15.6654478,12.2967673 C15.6417942,12.4995121 15.4694611,12.652697 15.2650268,12.652697 L12.9920325,12.652697 L12.9802057,19.2340182 L10.1102406,19.2340182 L10.1215042,12.652697 L8.41168978,12.652697 C8.18923369,12.652697 8.0090161,12.4730426 8.00845292,12.2505865 L8.00000522,10.1290876 C7.99887886,9.90550516 8.18022281,9.72416121 8.40324208,9.72416121 L10.1102406,9.72416121 L10.1102406,7.67418612 C10.1102406,5.29531393 11.5632449,4 13.685307,4 L15.4266595,4 C15.6491156,4 15.8298963,4.18078077 15.8298963,4.40380004 L15.8298963,6.19245962 C15.8298963,6.41491571 15.6496787,6.59569648 15.4266595,6.59569648 L14.3583071,6.59625966 C13.2037881,6.59625966 12.9802057,7.14479695 12.9802057,7.94958112 L12.9802057,9.72416121 L15.5162051,9.72416121 Z" id="Fill-1" fill="#FFFFFF"></path>
    </g>
</svg>