<?xml version="1.0" encoding="UTF-8"?>
<svg width="52px" height="24px" viewBox="0 0 52 24" version="1.1" xmlns="http://www.w3.org/2000/svg" xmlns:xlink="http://www.w3.org/1999/xlink">
    <!-- Generator: Sketch 50.2 (55047) - http://www.bohemiancoding.com/sketch -->
    <title>ic_footer_soc_youtube</title>
    <desc>Created with Sketch.</desc>
    <defs></defs>
    <g id="ic_footer_soc_youtube" stroke="none" stroke-width="1" fill="none" fill-rule="evenodd">
        <g id="Group" transform="translate(4.000000, 4.000000)" fill="#FFFFFF">
            <path d="M10.6361226,12.0472021 C10.7563504,11.73234 10.8167355,11.2180833 10.8167355,10.5038882 L10.8167355,7.49611181 C10.8167355,6.80312506 10.7563504,6.29684413 10.6361226,5.97636268 C10.515714,5.65624377 10.3034622,5.49600305 9.9999096,5.49600305 C9.70666225,5.49600305 9.49983427,5.65624377 9.37960647,5.97636268 C9.25901709,6.29684413 9.19899358,6.80312506 9.19899358,7.49611181 L9.19899358,10.5038882 C9.19899358,11.2180833 9.25630518,11.73234 9.37165155,12.0472021 C9.48681713,12.3622455 9.69617621,12.519586 9.9999096,12.519586 C10.3034622,12.519586 10.515714,12.3622455 10.6361226,12.0472021 M8.20155483,13.5589755 C7.76692681,13.2653217 7.4579504,12.8085268 7.2748064,12.1889535 C7.0914816,11.5695615 7,10.7455182 7,9.71646093 L7,8.31507967 C7,7.27569018 7.10449875,6.44095202 7.31403863,5.81104646 C7.52339772,5.1811409 7.85063428,4.7219896 8.29574834,4.43304874 C8.74068159,4.14447043 9.32464519,4 10.0470968,4 C10.7590623,4 11.3296472,4.14718944 11.7592129,4.44102453 C12.1884172,4.73504088 12.5024558,5.19437345 12.7015096,5.81884097 C12.9003827,6.44367104 13,7.27569018 13,8.31507967 L13,9.71646093 C13,10.7455182 12.9030946,11.5724618 12.7092838,12.1969293 C12.5154729,12.8215781 12.2014343,13.2783729 11.7669871,13.5669513 C11.3323591,13.8555296 10.7433332,14 9.9999096,14 C9.23551391,14 8.63600205,13.8528106 8.20155483,13.5589755" id="Fill-1"></path>
            <path d="M41.4999686,5.67193174 C41.3852444,5.80864198 41.3086358,6.03213508 41.2705202,6.34222948 C41.2320272,6.65250545 41.2131581,7.12291213 41.2131581,7.75399419 L41.2131581,8.44789397 L42.8687339,8.44789397 L42.8687339,7.75399419 C42.8687339,7.13362382 42.8468457,6.66303558 42.8032581,6.34222948 C42.7594817,6.02160494 42.6804202,5.79557008 42.5655073,5.66412491 C42.4507831,5.53267974 42.273036,5.4667756 42.0328323,5.4667756 C41.7922511,5.4667756 41.6146927,5.53540305 41.4999686,5.67193174 Z M41.2131581,9.7412854 L41.2131581,10.2302106 C41.2131581,10.8507625 41.2320272,11.3160857 41.2705202,11.6261801 C41.3086358,11.9364561 41.3876973,12.1624909 41.508271,12.3044662 C41.6284672,12.4464415 41.8139506,12.5174292 42.0656645,12.5174292 C42.4041764,12.5174292 42.6364551,12.3912491 42.7623121,12.1388889 C42.8877917,11.8865287 42.9560979,11.4660494 42.9672306,10.8770879 L44.9179194,10.9874728 C44.9288635,11.0717139 44.9343355,11.1873638 44.9343355,11.3344227 C44.9343355,12.2283951 44.6801686,12.8959695 44.1720234,13.3375091 C43.6640669,13.7792302 42.9451538,14 42.0164161,14 C40.9018177,14 40.1200704,13.6637618 39.6721177,12.9905592 C39.2239764,12.3177197 39,11.27687 39,9.86764706 L39,8.17973856 C39,6.72875817 39.2322788,5.66938998 39.6968363,5.00163399 C40.1612051,4.333878 40.9563495,4 42.0818919,4 C42.8577898,4 43.4532989,4.13671024 43.8687968,4.41013072 C44.2839172,4.6835512 44.5761998,5.10947712 44.7458331,5.68754539 C44.9152777,6.26597676 45,7.06535948 45,8.08514887 L45,9.7412854 L41.2131581,9.7412854 Z" id="Fill-4"></path>
            <path d="M2.43143446,9.78526841 L0,1 L2.12162265,1 L2.97333775,4.9819868 C3.19027732,5.96343856 3.35017444,6.80007134 3.45356388,7.49206349 L3.51541929,7.49206349 C3.58761364,6.99625468 3.74768902,6.16497236 3.99546716,4.99750312 L4.87819909,1 L7,1 L4.5375487,9.78526841 L4.5375487,14 L2.43143446,14 L2.43143446,9.78526841 Z" id="Fill-7"></path>
            <path d="M20,4 L20,13.8394428 L18.2673273,13.8394428 L18.0747261,12.6357254 L18.0267143,12.6357254 C17.5560138,13.5453034 16.8500554,14 15.9090238,14 C15.256617,14 14.7752062,13.7860469 14.4651607,13.3579558 C14.1549304,12.9300495 14,12.261215 14,11.3514522 L14,4 L16.2138988,4 L16.2138988,11.2232281 C16.2138988,11.6620353 16.2620953,11.9750203 16.3583036,12.1621831 C16.4545119,12.3495307 16.6149821,12.4430197 16.8395297,12.4430197 C17.032131,12.4430197 17.2166072,12.3842658 17.3929583,12.2663883 C17.569494,12.1488803 17.7004186,11.999224 17.7861012,11.8170497 L17.7861012,4 L20,4 Z" id="Fill-10"></path>
            <path d="M31,4 L31,13.8394428 L29.2673273,13.8394428 L29.0747261,12.6357254 L29.0267143,12.6357254 C28.5560138,13.5453034 27.8500554,14 26.9090238,14 C26.256617,14 25.7752062,13.7860469 25.4651607,13.3579558 C25.1549304,12.9300495 25,12.261215 25,11.3514522 L25,4 L27.2138988,4 L27.2138988,11.2232281 C27.2138988,11.6620353 27.2620953,11.9750203 27.3583036,12.1621831 C27.4545119,12.3495307 27.6149821,12.4430197 27.8395297,12.4430197 C28.032131,12.4430197 28.2166072,12.3842658 28.3929583,12.2663883 C28.569494,12.1488803 28.7004186,11.999224 28.7861012,11.8170497 L28.7861012,4 L31,4 Z" id="Fill-12"></path>
            <polygon id="Fill-14" points="26 2.71986171 23.6552403 2.71986171 23.6552403 14 21.3447597 14 21.3447597 2.71986171 19 2.71986171 19 1 26 1"></polygon>
            <path d="M35.8393272,9.63656125 C35.8393272,10.3480652 35.8106996,10.9055719 35.7538021,11.3088981 C35.6967257,11.7125908 35.600823,11.9993191 35.466273,12.1688994 C35.3313652,12.3390297 35.1499374,12.4237281 34.9221685,12.4237281 C34.7459295,12.4237281 34.5827518,12.3815622 34.4326355,12.2963138 C34.2821614,12.2114319 34.1604938,12.0842009 34.067275,11.9140706 L34.067275,6.37145289 C34.1397388,6.10617429 34.2639113,5.88856151 34.4403292,5.71843122 C34.6163893,5.54885091 34.8080157,5.46360244 35.0153874,5.46360244 C35.2331365,5.46360244 35.401324,5.5512342 35.5206656,5.72649774 C35.6396493,5.90157795 35.7226695,6.19637268 35.7693684,6.61051529 C35.8160673,7.02447456 35.8393272,7.6138807 35.8393272,8.37836705 L35.8393272,9.63656125 Z M37.8056897,5.65408237 C37.6759707,5.03846003 37.4660941,4.59260132 37.1760601,4.31632292 C36.8858472,4.04041118 36.4868492,3.90218032 35.9792449,3.90218032 C35.5852568,3.90218032 35.2175702,4.01639495 34.8756486,4.24464087 C34.533548,4.47307012 34.2692789,4.7729981 34.0828413,5.14460813 L34.0670961,5.14460813 L34.067275,0 L32,0 L32,13.8566359 L33.7718733,13.8566359 L33.9894435,12.9328357 L34.0361424,12.9328357 C34.201825,13.2620965 34.4505278,13.5220585 34.7822508,13.7132718 C35.113795,13.904485 35.4818393,14 35.8860261,14 C36.6112006,14 37.1449275,13.6575394 37.4870281,12.9728017 C37.8289497,12.2878806 38,11.2181497 38,9.76342565 L38,8.21850324 C38,7.12493944 37.935051,6.2702547 37.8056897,5.65408237 Z" id="Fill-16"></path>
        </g>
    </g>
</svg>