<?xml version="1.0" encoding="UTF-8"?>
<svg width="32px" height="32px" viewBox="0 0 32 32" version="1.1" xmlns="http://www.w3.org/2000/svg" xmlns:xlink="http://www.w3.org/1999/xlink">
    <!-- Generator: Sketch 46.2 (44496) - http://www.bohemiancoding.com/sketch -->
    <title>ic_footer_soc_inst</title>
    <desc>Created with Sketch.</desc>
    <defs></defs>
    <g id="Symbols" stroke="none" stroke-width="1" fill="none" fill-rule="evenodd">
        <g id="ic_footer_soc_inst" fill="#C8CCD8">
            <path d="M27.58375,20.3927262 C27.526375,21.6279286 27.3265,22.4719405 27.034,23.2100357 C26.73175,23.9735952 26.327125,24.6209048 25.66975,25.266 C25.012375,25.9114643 24.35275,26.3081905 23.575,26.6049048 C22.822375,26.8916548 21.962875,27.0879881 20.704,27.1444524 C19.4425,27.2009167 19.03975,27.2142024 15.8275,27.2142024 C12.61525,27.2142024 12.2125,27.2009167 10.951,27.1444524 C9.692125,27.0879881 8.83225,26.8916548 8.08,26.6049048 C7.30225,26.3081905 6.642625,25.9114643 5.98525,25.266 C5.3275,24.6209048 4.92325,23.9735952 4.621,23.2100357 C4.3285,22.4719405 4.128625,21.6279286 4.07125,20.3927262 C4.0135,19.1545714 4,18.7593214 4,15.6069167 C4,12.454881 4.0135,12.0592619 4.07125,10.8214762 C4.128625,9.58590476 4.3285,8.7422619 4.621,8.00379762 C4.92325,7.24060714 5.3275,6.59329762 5.98525,5.94820238 C6.642625,5.3027381 7.30225,4.9060119 8.08,4.60929762 C8.83225,4.32254762 9.692125,4.12621429 10.951,4.06975 C12.2125,4.01328571 12.61525,4 15.8275,4 C19.03975,4 19.4425,4.01328571 20.704,4.06975 C21.962875,4.12621429 22.822375,4.32254762 23.575,4.60929762 C24.35275,4.9060119 25.012375,5.3027381 25.66975,5.94820238 C26.327125,6.59329762 26.73175,7.24060714 27.034,8.00379762 C27.3265,8.7422619 27.526375,9.58590476 27.58375,10.8214762 C27.641125,12.0592619 27.655,12.454881 27.655,15.6069167 C27.655,18.7593214 27.641125,19.1545714 27.58375,20.3927262 Z M25.454875,10.9166905 C25.402375,9.78519048 25.209625,9.17035714 25.047625,8.76145238 C24.833125,8.21969048 24.576625,7.83292857 24.163,7.42697619 C23.749,7.02065476 23.354875,6.76933333 22.802875,6.55860714 C22.38625,6.39954762 21.76,6.21059524 20.606875,6.15892857 C19.359625,6.10320238 18.985375,6.09139286 15.8275,6.09139286 C12.66925,6.09139286 12.295375,6.10320238 11.048125,6.15892857 C9.895,6.21059524 9.26875,6.39954762 8.852125,6.55860714 C8.29975,6.76933333 7.906,7.02065476 7.492,7.42697619 C7.078,7.83292857 6.821875,8.21969048 6.607375,8.76145238 C6.445375,9.17035714 6.252625,9.78519048 6.200125,10.9166905 C6.143125,12.1408214 6.131125,12.5076548 6.131125,15.6069167 C6.131125,18.7061786 6.143125,19.073381 6.200125,20.2975119 C6.252625,21.4290119 6.445375,22.0434762 6.607375,22.45275 C6.821875,22.9945119 7.078,23.3809048 7.492,23.7872262 C7.906,24.1935476 8.29975,24.444869 8.852125,24.6555952 C9.26875,24.8142857 9.895,25.0036071 11.048125,25.0552738 C12.295,25.111 12.66925,25.1228095 15.8275,25.1228095 C18.98575,25.1228095 19.359625,25.111 20.606875,25.0552738 C21.76,25.0036071 22.38625,24.8142857 22.802875,24.6555952 C23.354875,24.444869 23.749,24.1935476 24.163,23.7872262 C24.576625,23.3809048 24.833125,22.9945119 25.047625,22.45275 C25.209625,22.0434762 25.402375,21.4290119 25.454875,20.2975119 C25.511875,19.073381 25.523875,18.7061786 25.523875,15.6069167 C25.523875,12.5076548 25.511875,12.1408214 25.454875,10.9166905 Z M22.141,10.804131 C21.35725,10.804131 20.721625,10.1804405 20.721625,9.41097619 C20.721625,8.64188095 21.35725,8.01819048 22.141,8.01819048 C22.92475,8.01819048 23.560375,8.64188095 23.560375,9.41097619 C23.560375,10.1804405 22.92475,10.804131 22.141,10.804131 Z M15.8275,21.5674048 C12.473125,21.5674048 9.754,18.8988214 9.754,15.6069167 C9.754,12.3150119 12.473125,9.64679762 15.8275,9.64679762 C19.181875,9.64679762 21.901,12.3150119 21.901,15.6069167 C21.901,18.8988214 19.181875,21.5674048 15.8275,21.5674048 Z M15.8275,11.7381905 C13.65025,11.7381905 11.885125,13.470131 11.885125,15.6069167 C11.885125,17.7437024 13.65025,19.4760119 15.8275,19.4760119 C18.00475,19.4760119 19.769875,17.7437024 19.769875,15.6069167 C19.769875,13.470131 18.00475,11.7381905 15.8275,11.7381905 Z" id="Shape"></path>
        </g>
    </g>
</svg>