<?xml version="1.0" encoding="UTF-8"?>
<svg width="32px" height="32px" viewBox="0 0 32 32" version="1.1" xmlns="http://www.w3.org/2000/svg" xmlns:xlink="http://www.w3.org/1999/xlink">
    <!-- Generator: Sketch 46.2 (44496) - http://www.bohemiancoding.com/sketch -->
    <title>ic_footer_soc_youtube</title>
    <desc>Created with Sketch.</desc>
    <defs></defs>
    <g id="Symbols" stroke="none" stroke-width="1" fill="none" fill-rule="evenodd">
        <g id="ic_footer_soc_youtube" fill="#C8CCD8">
            <path d="M31.4428661,22.04825 C31.4428661,22.04825 31.1423214,24.179 30.2205536,25.117625 C29.0513214,26.349125 27.7404196,26.355125 27.1393304,26.4275 C22.8365268,26.74025 16.375,26.75 16.375,26.75 C16.375,26.75 8.38,26.6765 5.92,26.4395 C5.2358125,26.310125 3.69941071,26.349125 2.52944643,25.117625 C1.60767857,24.179 1.3075,22.04825 1.3075,22.04825 C1.3075,22.04825 1,19.5455 1,17.043125 L1,14.697125 C1,12.19475 1.3075,9.692 1.3075,9.692 C1.3075,9.692 1.60767857,7.56125 2.52944643,6.622625 C3.69941071,5.391125 5.00958036,5.38475 5.61066964,5.31275 C9.91383929,5 16.3684107,5 16.3684107,5 L16.3815893,5 C16.3815893,5 22.8365268,5 27.1393304,5.31275 C27.7404196,5.38475 29.0513214,5.391125 30.2205536,6.622625 C31.1423214,7.56125 31.4428661,9.692 31.4428661,9.692 C31.4428661,9.692 31.75,12.19475 31.75,14.697125 L31.75,17.043125 C31.75,19.5455 31.4428661,22.04825 31.4428661,22.04825 Z M13.1989643,11.19725 L13.2004286,19.886 L21.5076875,15.557 L13.1989643,11.19725 Z" id="Shape"></path>
        </g>
    </g>
</svg>