<?xml version="1.0" encoding="UTF-8"?>
<svg width="32px" height="32px" viewBox="0 0 32 32" version="1.1" xmlns="http://www.w3.org/2000/svg" xmlns:xlink="http://www.w3.org/1999/xlink">
    <!-- Generator: Sketch 46.2 (44496) - http://www.bohemiancoding.com/sketch -->
    <title>ic_footer_soc_vk</title>
    <desc>Created with Sketch.</desc>
    <defs></defs>
    <g id="Symbols" stroke="none" stroke-width="1" fill="none" fill-rule="evenodd">
        <g id="ic_footer_soc_vk" fill="#C8CCD8">
            <path d="M24.0961231,4 L7.66092308,4 C5.63901538,4 4,5.63458462 4,7.65058462 L4,24.0396308 C4,26.056 5.63901538,27.6902154 7.66092308,27.6902154 L24.0961231,27.6902154 C26.1176615,27.6902154 27.7566769,26.056 27.7566769,24.0396308 L27.7566769,7.65058462 C27.7566769,5.63458462 26.1176615,4 24.0961231,4 Z M23.5027692,20.6788923 L21.5044923,20.6788923 C20.8520615,20.6788923 20.7704615,20.2044308 19.5741538,19.0657231 C18.5646769,18.0732308 18.1330462,17.9945846 17.8882462,17.9945846 C17.6707692,17.9945846 17.5212308,18.1574154 17.5212308,18.5369846 L17.5212308,20.0552615 C17.5212308,20.5027692 17.2631385,20.6788923 16.2027077,20.6788923 C14.4625231,20.6788923 12.5321846,19.6077538 11.0637538,17.6286769 C8.87495385,14.6870154 8.31778462,12.4904615 8.31778462,12.016 C8.31778462,11.7586462 8.50793846,11.5825231 8.7664,11.5825231 L10.5472,11.5825231 C11.0094769,11.5825231 11.1859692,11.7180308 11.3491692,12.2057846 C12.1648,14.5921231 13.6195692,16.6930462 14.2313846,16.6930462 C14.4625231,16.6930462 14.4894769,16.5036308 14.4894769,16.0155077 L14.4894769,13.5889231 C14.4894769,12.4125538 13.8233846,12.3147077 13.8233846,11.8804923 C13.8233846,11.7084308 13.9592615,11.5825231 14.1771077,11.5825231 L17.032,11.5825231 C17.4126769,11.5825231 17.4669538,11.7180308 17.4669538,12.1788308 L17.4669538,15.4731077 C17.4669538,15.8489846 17.5441231,15.9881846 17.7113846,15.9881846 C17.9192615,15.9881846 18.1105231,15.8626462 18.4864,15.4461538 C19.6579692,14.1568 20.6209231,12.1108923 20.6209231,12.1108923 C20.7431385,11.8535385 20.8926769,11.6774154 21.3006769,11.6774154 C21.8988308,11.6774154 23.0814769,11.6774154 23.0814769,11.6774154 C23.4348308,11.6774154 23.5843692,11.8672 23.5164308,12.2057846 C23.3126154,13.1550769 21.2596923,16.0424615 21.2596923,16.0424615 C21.0695385,16.3408 20.9879385,16.5036308 21.2596923,16.7883077 C21.4502154,17.032 22.0483692,17.5607385 22.4153846,18.0488615 C23.3126154,18.9977846 23.8971077,19.7975385 23.8971077,20.2450462 C23.8971077,20.584 23.7069538,20.6788923 23.5027692,20.6788923 Z" id="Shape"></path>
        </g>
    </g>
</svg>