<?xml version="1.0" encoding="UTF-8"?>
<svg width="32px" height="32px" viewBox="0 0 32 32" version="1.1" xmlns="http://www.w3.org/2000/svg" xmlns:xlink="http://www.w3.org/1999/xlink">
    <!-- Generator: Sketch 46.2 (44496) - http://www.bohemiancoding.com/sketch -->
    <title>ic_footer_soc_fb</title>
    <desc>Created with Sketch.</desc>
    <defs></defs>
    <g id="Symbols" stroke="none" stroke-width="1" fill="none" fill-rule="evenodd">
        <g id="ic_footer_soc_fb" fill="#C8CCD8">
            <path d="M24.1171257,4 L7.13287435,4 C5.40270528,4 4,5.40268812 4,7.13283603 L4,24.1168796 C4,25.8472408 5.40270528,27.2497156 7.13287435,27.2497156 L15.5093639,27.2497156 L15.5237962,18.9417211 L13.3651373,18.9417211 C13.0845962,18.9417211 12.8568788,18.7147885 12.8560256,18.434322 L12.8455036,15.7560621 C12.8443661,15.4741737 13.0729366,15.2448239 13.3548285,15.2448239 L15.5096483,15.2448239 L15.5096483,12.6570669 C15.5096483,9.65419104 17.3436872,8.01902495 20.0224775,8.01902495 L22.2208786,8.01902495 C22.5019173,8.01902495 22.7302035,8.24702398 22.7302035,8.52834364 L22.7302035,10.7864369 C22.7302035,11.0677566 22.5022017,11.2957556 22.2211629,11.2957556 L20.8719922,11.2965376 C19.4151125,11.2965376 19.1329363,11.9886395 19.1329363,13.0047885 L19.1329363,15.2450372 L22.3342041,15.2450372 C22.6394151,15.2450372 22.8760194,15.5114271 22.8399031,15.814075 L22.5224637,18.4923348 C22.4921773,18.7487004 22.2747686,18.9417211 22.0167647,18.9417211 L19.1474397,18.9417211 L19.1329363,27.25 L24.1171257,27.25 C25.8472947,27.25 27.25,25.8472408 27.25,24.1170929 L27.25,7.13283603 C27.25,5.40268812 25.8472947,4 24.1171257,4" id="Page-1"></path>
        </g>
    </g>
</svg>