<?xml version="1.0" encoding="UTF-8"?>
<svg width="18px" height="18px" viewBox="0 0 18 18" version="1.1" xmlns="http://www.w3.org/2000/svg" xmlns:xlink="http://www.w3.org/1999/xlink">
    <!-- Generator: Sketch 53.2 (72643) - https://sketchapp.com -->
    <title>ic_key_black</title>
    <desc>Created with Sketch.</desc>
    <g id="ic_key_black" stroke="none" stroke-width="1" fill="none" fill-rule="evenodd">
        <path d="M5.5,10 C4.673,10 4,9.327 4,8.5 C4,7.673 4.673,7 5.5,7 C6.327,7 7,7.673 7,8.5 C7,9.327 6.327,10 5.5,10 L5.5,10 Z M9.724,7 C9.103,5.258 7.453,4 5.5,4 C3.019,4 1,6.019 1,8.5 C1,10.981 3.019,13 5.5,13 C7.453,13 9.103,11.742 9.724,10 L13,10 L13,13 L16,13 L16,10 L17,10 L17,7 L9.724,7 Z" id="Fill-1" fill="#000000"></path>
    </g>
</svg>