<?xml version="1.0" encoding="UTF-8"?>
<svg width="24px" height="24px" viewBox="0 0 24 24" version="1.1" xmlns="http://www.w3.org/2000/svg" xmlns:xlink="http://www.w3.org/1999/xlink">
    <!-- Generator: Sketch 50.2 (55047) - http://www.bohemiancoding.com/sketch -->
    <title>ic_key_grey</title>
    <desc>Created with Sketch.</desc>
    <defs></defs>
    <g id="ic_key_grey" stroke="none" stroke-width="1" fill="none" fill-rule="evenodd">
        <path d="M12.5909091,9.66666667 C11.8454545,7.53083333 9.82727273,6 7.45454545,6 C4.44545455,6 2,8.46583333 2,11.5 C2,14.5341667 4.44545455,17 7.45454545,17 C9.82727273,17 11.8454545,15.4691667 12.5909091,13.3333333 L16.5454545,13.3333333 L16.5454545,17 L20.1818182,17 L20.1818182,13.3333333 L22,13.3333333 L22,9.66666667 L12.5909091,9.66666667 Z" id="Stroke-1" stroke="#9299A2" stroke-width="1.4"></path>
        <path d="M7.5,14 C6.125,14 5,12.875 5,11.5 C5,10.125 6.125,9 7.5,9 C8.875,9 10,10.125 10,11.5 C10,12.875 8.875,14 7.5,14 Z" id="Stroke-3" stroke="#9299A2" stroke-width="1.4"></path>
    </g>
</svg>