<?xml version="1.0" encoding="UTF-8"?>
<svg width="24px" height="24px" viewBox="0 0 24 24" version="1.1" xmlns="http://www.w3.org/2000/svg" xmlns:xlink="http://www.w3.org/1999/xlink">
    <!-- Generator: Sketch 53.2 (72643) - https://sketchapp.com -->
    <title>ic_phone_white_bold</title>
    <desc>Created with Sketch.</desc>
    <g id="ic_phone_white_bold" stroke="none" stroke-width="1" fill="none" fill-rule="evenodd">
        <path d="M20.0098,15.3799 C18.7808,15.3799 17.5898,15.1799 16.4808,14.8199 C16.1298,14.6999 15.7398,14.7899 15.4698,15.0599 L13.9008,17.0299 C11.0698,15.6799 8.4198,13.1299 7.0098,10.1999 L8.9598,8.5399 C9.2298,8.2599 9.3098,7.8699 9.1998,7.5199 C8.8298,6.4099 8.6398,5.2199 8.6398,3.9899 C8.6398,3.4499 8.1898,2.9999 7.6498,2.9999 L4.1898,2.9999 C3.6498,2.9999 2.9998,3.2399 2.9998,3.9899 C2.9998,13.2799 10.7298,20.9999 20.0098,20.9999 C20.7198,20.9999 20.9998,20.3699 20.9998,19.8199 L20.9998,16.3699 C20.9998,15.8299 20.5498,15.3799 20.0098,15.3799" id="Fill-1" fill="#FFFFFF"></path>
    </g>
</svg>