<?xml version="1.0" encoding="UTF-8"?>
<svg width="18px" height="18px" viewBox="0 0 18 18" version="1.1" xmlns="http://www.w3.org/2000/svg" xmlns:xlink="http://www.w3.org/1999/xlink">
    <!-- Generator: Sketch 50.2 (55047) - http://www.bohemiancoding.com/sketch -->
    <title>ic_question_grey</title>
    <desc>Created with Sketch.</desc>
    <defs></defs>
    <g id="ic_question_grey" stroke="none" stroke-width="1" fill="none" fill-rule="evenodd">
        <g id="Group-24" transform="translate(1.000000, 1.000000)">
            <path d="M5.35409268,5.42041016 C6.0702421,4.60758057 6.95467336,4.20117188 8.007413,4.20117188 C8.78443511,4.20117188 9.40747576,4.40348105 9.87655362,4.80810547 C10.3456315,5.21272989 10.5801669,5.76236632 10.5801669,6.45703125 C10.5801669,6.79362147 10.5228758,7.09350454 10.4082919,7.35668945 C10.293708,7.61987436 10.133472,7.83829666 9.92757901,8.01196289 C9.72168606,8.18562912 9.48983616,8.32706651 9.23202237,8.4362793 C8.97420858,8.54549208 8.68596277,8.62695286 8.36727628,8.68066406 L8.2598544,9.56689453 L7.36825284,9.56689453 L7.148038,7.7890625 L7.20174893,7.72998047 C8.55885207,7.67626926 9.23739347,7.25911849 9.23739347,6.47851562 C9.23739347,6.16340988 9.12460163,5.91007583 8.89901456,5.71850586 C8.67342749,5.52693589 8.36548787,5.43115234 7.97518643,5.43115234 C7.32707121,5.43115234 6.72909542,5.72118851 6.18124112,6.30126953 L5.35409268,5.42041016 Z M7.05135831,12 L7.05135831,10.4907227 L8.523038,10.4907227 L8.523038,12 L7.05135831,12 Z" id="?" fill="#9299A2"></path>
            <circle id="Oval-3" stroke="#9299A2" stroke-width="1.4" cx="8" cy="8" r="8"></circle>
        </g>
    </g>
</svg>