<?xml version="1.0" encoding="UTF-8"?>
<svg width="24px" height="24px" viewBox="0 0 24 24" version="1.1" xmlns="http://www.w3.org/2000/svg" xmlns:xlink="http://www.w3.org/1999/xlink">
    <!-- Generator: Sketch 46.2 (44496) - http://www.bohemiancoding.com/sketch -->
    <title>ic_soc_widget_vk</title>
    <desc>Created with Sketch.</desc>
    <defs></defs>
    <g id="Symbols" stroke="none" stroke-width="1" fill="none" fill-rule="evenodd">
        <g id="ic_soc_widget_vk" fill="#2D2D2D">
            <path d="M18.2264652,3 L5.77381452,3 C4.24185201,3 3,4.23849489 3,5.76598126 L3,18.1836621 C3,19.7114282 4.24185201,20.9496433 5.77381452,20.9496433 L18.2264652,20.9496433 C19.758148,20.9496433 21,19.7114282 21,18.1836621 L21,5.76598126 C21,4.23849489 19.758148,3 18.2264652,3 Z M17.7768919,15.6372919 L16.262834,15.6372919 C15.7684991,15.6372919 15.7066723,15.2778011 14.8002518,14.4150231 C14.0353896,13.6630298 13.7083508,13.603441 13.5228703,13.603441 C13.358092,13.603441 13.2447895,13.7268149 13.2447895,14.0144076 L13.2447895,15.1647783 C13.2447895,15.5038467 13.0492377,15.6372919 12.2457686,15.6372919 C10.9272626,15.6372919 9.46468037,14.8257099 8.35207721,13.3261995 C6.69366345,11.0973563 6.2715065,9.43306756 6.2715065,9.07357672 C6.2715065,8.87858442 6.4155826,8.74513918 6.61141418,8.74513918 L7.9606938,8.74513918 C8.31095258,8.74513918 8.44467758,8.84781088 8.56833124,9.21737306 C9.18631977,11.0254581 10.2885718,12.6172891 10.7521332,12.6172891 C10.9272626,12.6172891 10.947685,12.4737726 10.947685,12.1039306 L10.947685,10.2653518 C10.947685,9.37403833 10.442999,9.29990208 10.442999,8.97090502 C10.442999,8.84053714 10.5459505,8.74513918 10.7110085,8.74513918 L12.8741083,8.74513918 C13.1625402,8.74513918 13.2036648,8.84781088 13.2036648,9.19695062 L13.2036648,11.6929641 C13.2036648,11.9777591 13.2621346,12.0832284 13.3888656,12.0832284 C13.5463701,12.0832284 13.6912855,11.9881102 13.9760806,11.6725416 C14.8637572,10.6956218 15.5933697,9.14547489 15.5933697,9.14547489 C15.6859701,8.95048258 15.7992726,8.81703735 16.1084068,8.81703735 C16.561617,8.81703735 17.4576864,8.81703735 17.4576864,8.81703735 C17.7254161,8.81703735 17.8387187,8.96083368 17.787243,9.21737306 C17.6328158,9.93663449 16.0773535,12.1243531 16.0773535,12.1243531 C15.9332774,12.3503987 15.8714506,12.4737726 16.0773535,12.6894671 C16.2217093,12.8741083 16.6749196,13.2747237 16.9530004,13.6445657 C17.6328158,14.3635473 18.0756749,14.9695062 18.0756749,15.3085746 C18.0756749,15.5653938 17.9315988,15.6372919 17.7768919,15.6372919 Z" id="Shape"></path>
        </g>
    </g>
</svg>