<?xml version="1.0" encoding="UTF-8"?>
<svg width="24px" height="24px" viewBox="0 0 24 24" version="1.1" xmlns="http://www.w3.org/2000/svg" xmlns:xlink="http://www.w3.org/1999/xlink">
    <!-- Generator: Sketch 46.2 (44496) - http://www.bohemiancoding.com/sketch -->
    <title>ic_soc_widget_inst</title>
    <desc>Created with Sketch.</desc>
    <defs></defs>
    <g id="Symbols" stroke="none" stroke-width="1" fill="none" fill-rule="evenodd">
        <g id="ic_soc_widget_inst" fill="#2D2D2D">
            <path d="M20.9457831,15.4738563 C20.9021243,16.4137694 20.7500317,17.0560105 20.5274572,17.6176556 C20.2974635,18.1986774 19.9895688,18.6912401 19.4893469,19.1821179 C18.9891249,19.6732766 18.4871909,19.9751608 17.895371,20.2009421 C17.3226696,20.4191412 16.668643,20.5685388 15.7107166,20.6115047 C14.7507926,20.6544705 14.4443247,20.6645801 12,20.6645801 C9.55567533,20.6645801 9.24920736,20.6544705 8.28928345,20.6115047 C7.33135701,20.5685388 6.67704502,20.4191412 6.10462904,20.2009421 C5.51280913,19.9751608 5.01087508,19.6732766 4.51065314,19.1821179 C4.01014585,18.6912401 3.70253646,18.1986774 3.4725428,17.6176556 C3.24996829,17.0560105 3.09787571,16.4137694 3.05421687,15.4738563 C3.01027267,14.5316967 3,14.2309358 3,11.8321497 C3,9.43364435 3.01027267,9.13260259 3.05421687,8.1907238 C3.09787571,7.25052994 3.24996829,6.60856962 3.4725428,6.04664372 C3.70253646,5.46590271 4.01014585,4.97333998 4.51065314,4.48246218 C5.01087508,3.99130356 5.51280913,3.68941933 6.10462904,3.46363801 C6.67704502,3.2454389 7.33135701,3.09604131 8.28928345,3.05307546 C9.24920736,3.01010961 9.55567533,3 12,3 C14.4443247,3 14.7507926,3.01010961 15.7107166,3.05307546 C16.668643,3.09604131 17.3226696,3.2454389 17.895371,3.46363801 C18.4871909,3.68941933 18.9891249,3.99130356 19.4893469,4.48246218 C19.9895688,4.97333998 20.2974635,5.46590271 20.5274572,6.04664372 C20.7500317,6.60856962 20.9021243,7.25052994 20.9457831,8.1907238 C20.989442,9.13260259 21,9.43364435 21,11.8321497 C21,14.2309358 20.989442,14.5316967 20.9457831,15.4738563 Z M19.3258402,8.26317601 C19.2858909,7.40217411 19.13922,6.93432376 19.015948,6.62317239 C18.8527267,6.2109249 18.657546,5.91662288 18.3428028,5.60771809 C18.0277743,5.29853248 17.7278694,5.10729233 17.3078313,4.94694266 C16.9908053,4.82590814 16.5142676,4.682127 15.6368104,4.64281185 C14.6877299,4.60040765 14.4029486,4.59142132 12,4.59142132 C9.59676601,4.59142132 9.31227013,4.60040765 8.3631896,4.64281185 C7.4857324,4.682127 7.00919467,4.82590814 6.69216867,4.94694266 C6.27184528,5.10729233 5.97222575,5.29853248 5.65719721,5.60771809 C5.34216867,5.91662288 5.1472733,6.2109249 4.984052,6.62317239 C4.86077996,6.93432376 4.71410907,7.40217411 4.6741598,8.26317601 C4.6307863,9.19466437 4.62165504,9.47380197 4.62165504,11.8321497 C4.62165504,14.1904973 4.6307863,14.4699158 4.6741598,15.4014041 C4.71410907,16.262406 4.86077996,16.7299755 4.984052,17.0414077 C5.1472733,17.4536552 5.34216867,17.7476764 5.65719721,18.056862 C5.97222575,18.3660476 6.27184528,18.5572878 6.69216867,18.7176375 C7.00919467,18.8383912 7.4857324,18.9824531 8.3631896,19.0217683 C9.31198478,19.0641725 9.59676601,19.0731588 12,19.0731588 C14.403234,19.0731588 14.6877299,19.0641725 15.6368104,19.0217683 C16.5142676,18.9824531 16.9908053,18.8383912 17.3078313,18.7176375 C17.7278694,18.5572878 18.0277743,18.3660476 18.3428028,18.056862 C18.657546,17.7476764 18.8527267,17.4536552 19.015948,17.0414077 C19.13922,16.7299755 19.2858909,16.262406 19.3258402,15.4014041 C19.3692137,14.4699158 19.378345,14.1904973 19.378345,11.8321497 C19.378345,9.47380197 19.3692137,9.19466437 19.3258402,8.26317601 Z M16.8041852,8.17752514 C16.2077996,8.17752514 15.7241281,7.70293505 15.7241281,7.11742006 C15.7241281,6.53218589 16.2077996,6.0575958 16.8041852,6.0575958 C17.4005707,6.0575958 17.8842422,6.53218589 17.8842422,7.11742006 C17.8842422,7.70293505 17.4005707,8.17752514 16.8041852,8.17752514 Z M12,16.3677145 C9.44752695,16.3677145 7.37844008,14.3370867 7.37844008,11.8321497 C7.37844008,9.32721261 9.44752695,7.29686566 12,7.29686566 C14.5524731,7.29686566 16.6215599,9.32721261 16.6215599,11.8321497 C16.6215599,14.3370867 14.5524731,16.3677145 12,16.3677145 Z M12,8.88828698 C10.3432467,8.88828698 9.00009512,10.2061872 9.00009512,11.8321497 C9.00009512,13.4581121 10.3432467,14.7762931 12,14.7762931 C13.6567533,14.7762931 14.9999049,13.4581121 14.9999049,11.8321497 C14.9999049,10.2061872 13.6567533,8.88828698 12,8.88828698 Z" id="Shape"></path>
        </g>
    </g>
</svg>