<?xml version="1.0" encoding="UTF-8"?>
<svg width="24px" height="24px" viewBox="0 0 24 24" version="1.1" xmlns="http://www.w3.org/2000/svg" xmlns:xlink="http://www.w3.org/1999/xlink">
    <!-- Generator: Sketch 46.2 (44496) - http://www.bohemiancoding.com/sketch -->
    <title>ic_soc_widget_fb</title>
    <desc>Created with Sketch.</desc>
    <defs></defs>
    <g id="Symbols" stroke="none" stroke-width="1" fill="none" fill-rule="evenodd">
        <g id="ic_soc_widget_fb" fill="#2D2D2D">
            <path d="M18.5745489,3 L5.42545111,3 C4.08596538,3 3,4.0859521 3,5.42542144 L3,18.5743584 C3,19.9139929 4.08596538,20.9997798 5.42545111,20.9997798 L11.9104753,20.9997798 L11.9216487,14.5677841 L10.2504289,14.5677841 C10.0332358,14.5677841 9.85693842,14.3920943 9.85627792,14.1749589 L9.84813181,12.1014674 C9.84725114,11.8832313 10.024209,11.7056701 10.2424479,11.7056701 L11.9106954,11.7056701 L11.9106954,9.70224535 C11.9106954,7.37743822 13.3305966,6.11150319 15.4044987,6.11150319 L17.1064866,6.11150319 C17.324065,6.11150319 17.5008027,6.28801857 17.5008027,6.50581443 L17.5008027,8.25401567 C17.5008027,8.47181154 17.3242852,8.64832692 17.1067068,8.64832692 L16.0621875,8.64893236 C14.9342807,8.64893236 14.7158216,9.18475313 14.7158216,9.97144919 L14.7158216,11.7058352 L17.1942225,11.7058352 C17.4305149,11.7058352 17.6136924,11.9120726 17.5857315,12.1463806 L17.3399719,14.2198721 C17.3165243,14.4183487 17.1482079,14.5677841 16.948463,14.5677841 L14.7270501,14.5677841 L14.7158216,21 L18.5745489,21 C19.9140346,21 21,19.9139929 21,18.5745235 L21,5.42542144 C21,4.0859521 19.9140346,3 18.5745489,3" id="Page-1"></path>
        </g>
    </g>
</svg>