<?xml version="1.0" encoding="UTF-8"?>
<svg width="24px" height="24px" viewBox="0 0 24 24" version="1.1" xmlns="http://www.w3.org/2000/svg" xmlns:xlink="http://www.w3.org/1999/xlink">
    <!-- Generator: Sketch 46.2 (44496) - http://www.bohemiancoding.com/sketch -->
    <title>ic_truck_grey</title>
    <desc>Created with Sketch.</desc>
    <defs></defs>
    <g id="Symbols" stroke="none" stroke-width="1" fill="none" fill-rule="evenodd">
        <g id="ic_truck_grey" stroke="#9299A2">
            <g id="Page-1" transform="translate(12.000000, 12.500000) scale(-1, 1) translate(-12.000000, -12.500000) translate(2.500000, 6.500000)">
                <path d="M17.1428571,9.85714286 C17.1428571,11.0402075 16.1837838,12 14.9995367,12 C13.8162162,12 12.8571429,11.0402075 12.8571429,9.85714286 C12.8571429,8.67407819 13.8162162,7.71428571 14.9995367,7.71428571 C16.1837838,7.71428571 17.1428571,8.67407819 17.1428571,9.85714286 Z" id="Stroke-1"></path>
                <path d="M6,9.85714286 C6,11.0402075 5.04092664,12 3.85667954,12 C2.67335907,12 1.71428571,11.0402075 1.71428571,9.85714286 C1.71428571,8.67407819 2.67335907,7.71428571 3.85667954,7.71428571 C5.04092664,7.71428571 6,8.67407819 6,9.85714286 Z" id="Stroke-3"></path>
                <path d="M7.71428571,9.42857143 L6,9.42857143" id="Stroke-6" stroke-linejoin="round"></path>
                <path d="M8,2 L3.10622388,2 C2.38662855,2 1.73389048,2.41288654 1.43743127,3.0559207 L0,6.17541213 L0,10 L1.92390587,10" id="Stroke-8" stroke-linejoin="round"></path>
                <path d="M12.975303,10.2857143 L7.71428571,10.2857143 L7.71428571,1.79701382 C7.71428571,0.804276498 8.49916422,0 9.4670947,0 L17.6845741,0 C18.3321636,0 18.8571429,0.537953917 18.8571429,1.20154839 L18.8571429,10.2857143 L16.9687718,10.2857143" id="Stroke-11" stroke-linejoin="round"></path>
            </g>
        </g>
    </g>
</svg>