<?xml version="1.0" encoding="UTF-8"?>
<svg width="24px" height="24px" viewBox="0 0 24 24" version="1.1" xmlns="http://www.w3.org/2000/svg" xmlns:xlink="http://www.w3.org/1999/xlink">
    <!-- Generator: Sketch 53.2 (72643) - https://sketchapp.com -->
    <title>ic_topbar_shop_dark</title>
    <desc>Created with Sketch.</desc>
    <g id="ic_topbar_shop_dark" stroke="none" stroke-width="1" fill="none" fill-rule="evenodd">
        <path d="M12,16.2563636 C11.1,16.2563636 10.3636364,15.52 10.3636364,14.62 C10.3636364,13.72 11.1,12.9836364 12,12.9836364 C12.9,12.9836364 13.6363636,13.72 13.6363636,14.62 C13.6363636,15.52 12.9,16.2563636 12,16.2563636 L12,16.2563636 Z M9.54545455,9.71090909 L12,6.11090909 L14.4545455,9.71090909 L9.54545455,9.71090909 Z M16.2627273,9.71090909 L12.6790909,4.34363636 C12.5236364,4.11454545 12.2618182,4 12,4 C11.7381818,4 11.4763636,4.11454545 11.3209091,4.35181818 L7.73727273,9.71090909 L3.81818182,9.71090909 C3.36818182,9.71090909 3,10.0790909 3,10.5290909 C3,10.6027273 3.00818182,10.6763636 3.03272727,10.75 L5.11090909,18.3345455 C5.29909091,19.0218182 5.92909091,19.5290909 6.68181818,19.5290909 L17.3181818,19.5290909 C18.0709091,19.5290909 18.7009091,19.0218182 18.8972727,18.3345455 L20.9754545,10.75 L21,10.5290909 C21,10.0790909 20.6318182,9.71090909 20.1818182,9.71090909 L16.2627273,9.71090909 Z" id="Fill-1" fill="#1A171B"></path>
    </g>
</svg>