<?xml version="1.0" encoding="UTF-8"?>
<svg width="24px" height="24px" viewBox="0 0 24 24" version="1.1" xmlns="http://www.w3.org/2000/svg" xmlns:xlink="http://www.w3.org/1999/xlink">
    <!-- Generator: Sketch 46.2 (44496) - http://www.bohemiancoding.com/sketch -->
    <title>ic_vauto_logo_dark</title>
    <desc>Created with Sketch.</desc>
    <defs></defs>
    <g id="Symbols" stroke="none" stroke-width="1" fill="none" fill-rule="evenodd">
        <g id="ic_vauto_logo_dark" fill-rule="nonzero" fill="#1A171B">
            <g id="v-auto_logo_dark" transform="translate(4.000000, 4.000000)">
                <path d="M8.14537189,0 C12.6453161,0 16.2932355,3.64791942 16.2932355,8.14786364 C16.2932355,10.0009525 15.6742066,11.7091859 14.6322335,13.0780785 C14.6350785,13.0163987 14.6367149,12.9544215 14.6367149,12.8919979 C14.6367149,10.7409979 12.8929463,8.99722936 10.7419463,8.99722936 L9.51584504,8.99722936 C8.84800413,7.46890287 7.32335951,6.40067356 5.54887189,6.40067356 L5.54749587,6.40067356 L0.185950413,6.40067356 C0.98572314,2.74046281 4.24528513,0 8.14537189,0" id="Fill-1"></path>
                <path d="M8.14780784,14.1762087 C8.62584916,14.1762087 9.01331405,14.5636736 9.01331405,15.0416963 C9.01331405,15.5196818 8.62584916,15.9072025 8.14780784,15.9072025 C7.66984091,15.9072025 7.28230167,15.5196818 7.28230167,15.0416963 C7.28230167,14.5636736 7.66984091,14.1762087 8.14780784,14.1762087 L8.14780784,14.1762087 Z M5.69925,14.1761529 L2.68211157,14.1761529 C3.54118388,14.9537231 4.56688636,15.5505124 5.699157,15.9068864 C6.05553098,16.9155 7.01722936,17.6382149 8.14780784,17.6382149 C9.27834916,17.6382149 10.2399359,16.9156673 10.5964215,15.9072025 L10.7443822,15.9072025 C12.4173967,15.9072025 13.7737004,14.5509731 13.7737004,12.8778843 C13.7737004,11.2048699 12.4173967,9.84858469 10.7443822,9.84858469 L8.90425413,9.84858469 C8.51995042,8.35540287 7.16450209,7.25206609 5.55130784,7.25206609 L0.0472871901,7.25206609 C0.0160847108,7.54170245 0,7.83583882 0,8.13375 C0,8.42059713 0.0149132231,8.70391118 0.0438657025,8.98311573 L5.55130784,8.98307853 C6.192,8.98307853 6.75135742,9.33121489 7.05070042,9.84858469 L0.180911157,9.84858469 C0.31046281,10.4532211 0.507086777,11.0329773 0.762619833,11.5796343 L10.7443822,11.5796343 C11.4613885,11.5796343 12.0426322,12.1608781 12.0426322,12.8778843 C12.0426322,13.5949091 11.4613885,14.1761529 10.7443822,14.1761529 L10.5964215,14.1761529 C10.2399359,13.1677438 9.27834916,12.4451405 8.14780784,12.4451405 C7.01734091,12.4451405 6.05573553,13.1677438 5.69925,14.1761529 L5.69925,14.1761529 Z" id="Fill-2"></path>
            </g>
        </g>
    </g>
</svg>