<?xml version="1.0" encoding="UTF-8"?>
<svg width="18px" height="18px" viewBox="0 0 18 18" version="1.1" xmlns="http://www.w3.org/2000/svg" xmlns:xlink="http://www.w3.org/1999/xlink">
    <!-- Generator: Sketch 53.2 (72643) - https://sketchapp.com -->
    <title>ic_user_black</title>
    <desc>Created with Sketch.</desc>
    <defs>
        <polygon id="path-1" points="0 0.00014 14 0.00014 14 14 0 14"></polygon>
    </defs>
    <g id="ic_user_black" stroke="none" stroke-width="1" fill="none" fill-rule="evenodd">
        <g id="Group-3" transform="translate(2.000000, 2.000000)">
            <mask id="mask-2" fill="white">
                <use xlink:href="#path-1"></use>
            </mask>
            <g id="Clip-2"></g>
            <path d="M7,12.04014 C5.25,12.04014 3.703,11.14414 2.8,9.78614 C2.821,8.39314 5.6,7.63014 7,7.63014 C8.393,7.63014 11.179,8.39314 11.2,9.78614 C10.297,11.14414 8.75,12.04014 7,12.04014 M7,2.10014 C8.162,2.10014 9.1,3.03814 9.1,4.20014 C9.1,5.36214 8.162,6.30014 7,6.30014 C5.838,6.30014 4.9,5.36214 4.9,4.20014 C4.9,3.03814 5.838,2.10014 7,2.10014 M7,0.00014 C3.136,0.00014 0,3.13614 0,7.00014 C0,10.86344 3.136,14.00014 7,14.00014 C10.864,14.00014 14,10.86344 14,7.00014 C14,3.13614 10.864,0.00014 7,0.00014" id="Fill-1" fill="#000000" mask="url(#mask-2)"></path>
        </g>
    </g>
</svg>