<?xml version="1.0" encoding="UTF-8"?>
<svg width="24px" height="24px" viewBox="0 0 24 24" version="1.1" xmlns="http://www.w3.org/2000/svg" xmlns:xlink="http://www.w3.org/1999/xlink">
    <!-- Generator: Sketch 46.2 (44496) - http://www.bohemiancoding.com/sketch -->
    <title>ic_vbiz_logo_dark</title>
    <desc>Created with Sketch.</desc>
    <defs></defs>
    <g id="Symbols" stroke="none" stroke-width="1" fill="none" fill-rule="evenodd">
        <g id="ic_vbiz_logo_dark" fill-rule="nonzero" fill="#1A171B">
            <g id="v-biz_dark" transform="translate(3.000000, 4.000000)">
                <path d="M8.34143709,14.3669602 C8.82983101,14.3669602 9.22566473,14.7561412 9.22566473,15.2363269 C9.22566473,15.7165125 8.82983101,16.1056935 8.34143709,16.1056935 C7.85304312,16.1056935 7.45763597,15.7165125 7.45763597,15.2363269 C7.45763597,14.7561412 7.85304312,14.3669602 8.34143709,14.3669602 L8.34143709,14.3669602 Z M8.34143709,12.6290656 C6.87710831,12.6290656 5.68960725,13.7961893 5.68960725,15.2363269 C5.68960725,16.6764644 6.87710831,17.8435881 8.34143709,17.8435881 C9.80619239,17.8435881 10.9932669,16.6764644 10.9932669,15.2363269 C10.9932669,13.7961893 9.80619239,12.6290656 8.34143709,12.6290656 L8.34143709,12.6290656 Z M16.6633287,8.29942669 C16.6633287,3.78106849 12.9374587,0.117818182 8.34143709,0.117818182 C6.04022719,0.117818182 3.95655519,1.03667123 2.4499985,2.52126266 L2.44402687,2.59045971 C2.71061745,2.77917896 2.96142587,2.98886702 3.1943194,3.21700762 L4.18774254,2.95531693 L4.5451872,3.43801883 C4.851873,3.8527818 5.11121232,4.29983673 5.31766006,4.7707961 L5.55439252,5.31221066 L4.82030868,6.03437629 C4.90049912,6.34723091 4.95552342,6.66553735 4.98495502,6.98719882 L5.91823532,7.41496244 L5.87643392,8.01047656 C5.84017759,8.52211538 5.74633774,9.02872173 5.59662043,9.51981115 L5.59150193,9.53658622 L5.80776022,9.68546471 C6.1076213,9.55294184 6.418146,9.44432345 6.73549542,9.36044825 L7.00208599,8.38372129 L7.60564706,8.32081484 C8.12389916,8.26713469 8.64812289,8.27007033 9.16594843,8.32962175 L9.76140518,8.39881882 L10.0297019,9.38267515 C10.3457717,9.47074413 10.6545902,9.58355635 10.9523186,9.72027295 L11.7951714,9.1398564 L12.298921,9.47367976 C12.731011,9.76011365 13.1306836,10.0930983 13.4881282,10.466343 L13.8993175,10.8953648 L13.4608294,11.8200891 C13.6455233,12.0872317 13.8084635,12.3682137 13.9479436,12.6609382 L14.9729311,12.7490072 L15.0770081,13.1054769 C16.0746966,11.7559246 16.6633287,10.0956146 16.6633287,8.29942669 L16.6633287,8.29942669 Z M1.11832522,8.82616309 C1.77477787,7.70810635 1.49368476,6.31074518 0.514337603,5.51476931 C0.194428904,6.38413598 0.019972028,7.32186098 0.019972028,8.29942669 C0.019972028,8.80393615 0.0664654256,9.2975418 0.155186771,9.77646933 C0.542489568,9.55545813 0.878180428,9.2346354 1.11832522,8.82616309 L1.11832522,8.82616309 Z M4.99433901,7.95050575 L4.12546699,7.55209844 C4.1284528,6.949455 4.02437584,6.35184404 3.821767,5.78694442 L4.50551852,5.11468451 C4.32764928,4.70830906 4.10243356,4.31703115 3.83029789,3.94923831 L2.90426885,4.19289583 C2.59630341,3.82719986 2.23288713,3.49840899 1.81785891,3.21994325 C1.45188336,3.67328883 1.13410739,4.16563638 0.871782255,4.68943714 C2.34250917,5.71606985 2.80360424,7.69426696 1.88397338,9.26063673 C1.51671819,9.88550711 0.982257389,10.3560471 0.368032691,10.6487716 C0.539077208,11.211155 0.770264559,11.7479564 1.0534904,12.2520465 C1.18102733,12.1941726 1.30643154,12.1308468 1.42927648,12.0629079 L2.22051733,12.6076774 C2.59630341,12.3648587 2.94905606,12.0788441 3.2702444,11.7513114 L2.86545326,10.8974617 C3.25958078,10.4399223 3.57351785,9.91486342 3.78849649,9.35289944 L4.74992876,9.26986298 C4.87917188,8.84629315 4.96234814,8.40427069 4.99433901,7.95050575 L4.99433901,7.95050575 Z M12.4362684,11.923675 L12.8448984,11.0622765 C12.5365065,10.740615 12.1888724,10.4487292 11.8049819,10.1941679 L11.0192862,10.7351631 C10.500181,10.4357285 9.92477187,10.221008 9.31267986,10.1094539 L9.06272455,9.1926978 C8.61570546,9.14111455 8.15887584,9.13734016 7.69863388,9.18514904 L7.45038473,10.0956146 C6.83573348,10.1979423 6.25733855,10.4042753 5.7339679,10.6953224 L4.94272707,10.1509722 L4.90775039,10.1740379 L4.85528536,10.2088461 L4.80282033,10.2440737 L4.7512084,10.28014 L4.71665826,10.3040445 L4.68253466,10.3287877 L4.64841107,10.3535308 L4.61428747,10.3786934 L4.58059042,10.403856 L4.54689337,10.4294379 L4.51362287,10.4554393 L4.47992582,10.4814406 L4.43044661,10.5208619 L4.28328861,10.642481 L4.21888033,10.698258 L3.98385407,10.9163336 L3.95356938,10.9461093 L3.893,11.0073382 L4.29864422,11.8624461 C3.90622289,12.3170498 3.59143273,12.8379149 3.37432136,13.4057501 L2.41331563,13.4887867 C2.36980805,13.6317939 2.33141901,13.7773174 2.2981485,13.924099 C3.0177298,14.6714272 3.87935056,15.2853939 4.84035629,15.7240613 C4.81732286,15.5646984 4.80580615,15.4019804 4.80580615,15.2363269 C4.80580615,13.3168424 6.38914096,11.7601183 8.34143709,11.7601183 C10.2941597,11.7601183 11.8774946,13.3168424 11.8774946,15.2363269 C11.8774946,15.4019804 11.8655513,15.5646984 11.8429444,15.7240613 C12.8035236,15.2853939 13.6647178,14.6714272 14.3847257,13.9245184 C14.3570002,13.8037381 14.3258624,13.6829578 14.2908858,13.5625969 L13.3362782,13.4803991 C13.1285508,12.9087895 12.8214385,12.3833112 12.4362684,11.923675 L12.4362684,11.923675 Z" id="Fill-46"></path>
            </g>
        </g>
    </g>
</svg>