<?xml version="1.0" encoding="utf-8"?>
<!-- Generator: Adobe Illustrator 19.0.0, SVG Export Plug-In . SVG Version: 6.00 Build 0)  -->
<svg version="1.1" id="Layer_1" xmlns="http://www.w3.org/2000/svg" xmlns:xlink="http://www.w3.org/1999/xlink" x="0px" y="0px"
	 viewBox="0 1000 328 128" style="enable-background:new 0 1000 328 128;" xml:space="preserve">
<style type="text/css">
	.st0{fill:#FFFFFF;}
</style>
<g id="Layer_4">
</g>
<g id="Layer_2_1_">
	<g id="XMLID_1_">
		<path id="XMLID_12_" class="st0" d="M257.2,1039.9c-13.7,0-24.8,11.1-24.8,24.8s11.1,24.8,24.8,24.8s24.8-11.1,24.8-24.8
			S270.8,1039.9,257.2,1039.9z M257.2,1075.7c-6.1,0-11-4.9-11-11c0-6.1,4.9-11,11-11c6.1,0,11,4.9,11,11S263.2,1075.7,257.2,1075.7
			z"/>
		<polygon id="XMLID_9_" class="st0" points="323,1052.1 316.4,1040 304.6,1046.5 304.6,1040.8 290.8,1040.8 290.8,1086.7 
			304.6,1086.7 304.6,1062.2 		"/>
		<polygon id="XMLID_6_" class="st0" points="41.8,1053.1 35.3,1040.8 18.8,1049.9 18.8,1040.8 5,1040.8 5,1086.7 18.8,1086.7 
			18.8,1065.6 29.6,1059.6 33.9,1067.7 33.9,1086.7 47.6,1086.7 47.6,1065.6 58.5,1059.6 62.7,1067.7 62.7,1086.7 76.5,1086.7 
			76.5,1064.4 64.2,1040.8 		"/>
		<path id="XMLID_5_" class="st0" d="M110.1,1039.9c-13.7,0-24.8,11.1-24.8,24.8s11.1,24.8,24.8,24.8c5.1,0,10.1-1.6,14.3-4.6
			l-8-11.2c-1.9,1.3-4.1,2-6.3,2c-3.9,0-7.3-2-9.3-5.1h32.8c1-2.7,1.2-3.7,1.2-5.9C134.9,1051,123.8,1039.9,110.1,1039.9z
			 M100.4,1059.6c1.8-3.5,5.5-5.9,9.7-5.9s7.9,2.4,9.7,5.9H100.4z"/>
		<path id="XMLID_4_" class="st0" d="M203.6,1039.9c-13.7,0-24.8,11.1-24.8,24.8s11.1,24.8,24.8,24.8c5.1,0,10.1-1.6,14.3-4.6
			l-8-11.2c-1.9,1.3-4.1,2-6.3,2c-3.9,0-7.3-2-9.3-5.1h32.8c1-2.7,1.2-3.7,1.2-5.9C228.3,1051,217.2,1039.9,203.6,1039.9z
			 M193.8,1059.6c1.8-3.5,5.5-5.9,9.7-5.9s7.9,2.4,9.7,5.9H193.8z"/>
		<path id="XMLID_3_" class="st0" d="M145.2,1042.5l-7.9,13.8h7.9v15.4c0,10.3,8.3,18.6,18.6,18.6h8.9v-13.8h-8.9
			c-2.7,0-4.8-2.1-4.8-4.8v-15.4h13.8v-13.8H159v-9.6h-13.8L145.2,1042.5L145.2,1042.5z"/>
		
			<rect id="XMLID_2_" x="268.2" y="1011.2" transform="matrix(-0.4819 -0.8762 0.8762 -0.4819 -489.417 1758.1287)" class="st0" width="13.7" height="25.1"/>
	</g>
</g>
</svg>
