<?xml version="1.0" encoding="UTF-8"?>
<svg width="128px" height="32px" viewBox="0 0 128 32" version="1.1" xmlns="http://www.w3.org/2000/svg" xmlns:xlink="http://www.w3.org/1999/xlink">
    <!-- Generator: Sketch 46.2 (44496) - http://www.bohemiancoding.com/sketch -->
    <title>v-auto_logo</title>
    <desc>Created with Sketch.</desc>
    <defs></defs>
    <g id="Symbols" stroke="none" stroke-width="1" fill="none" fill-rule="evenodd">
        <g id="gr_v-auto_logo">
            <g id="v-auto_logo">
                <g id="v-avto_logo">
                    <g id="Group-28">
                        <circle id="Oval" fill="#FFFFFF" fill-rule="nonzero" cx="16.0933547" cy="16.0750199" r="15.6444444"></circle>
                        <path d="M16.0933547,4.12835328 C22.6355769,4.12835328 27.9831324,9.41901995 27.9831324,15.9612422 C27.9831324,18.6350199 27.0729102,21.1950199 25.5937991,23.1861311 L25.5937991,22.9585755 C25.5937991,19.8296866 23.0337991,17.3265755 19.8480213,17.3265755 L18.1413547,17.3265755 C17.1742436,15.0510199 14.9555769,13.4581311 12.338688,13.4581311 L12.338688,13.4581311 L4.48802133,13.4581311 C5.682688,8.1105755 10.4613547,4.12835328 16.0933547,4.12835328 L16.0933547,4.12835328 Z" id="Shape" fill="#D8232A" fill-rule="nonzero"></path>
                        <path d="M16.0933547,24.7790199 C16.8329102,24.7790199 17.4017991,25.3479088 17.4017991,26.0305755 C17.4017991,26.7701311 16.8329102,27.3390199 16.0933547,27.3390199 C15.410688,27.3390199 14.8417991,26.7701311 14.8417991,26.0305755 C14.8417991,25.3479088 15.410688,24.7790199 16.0933547,24.7790199 L16.0933547,24.7790199 Z M12.5662436,24.7790199 L8.12891022,24.7790199 C9.38046578,25.9167977 10.8595769,26.8270199 12.5662436,27.3390199 C13.0782436,28.8181311 14.4435769,29.8990199 16.0933547,29.8990199 C17.7431324,29.8990199 19.1084658,28.8181311 19.6773547,27.3390199 L19.8480213,27.3390199 C22.2942436,27.3390199 24.2853547,25.3479088 24.2853547,22.9016866 C24.2853547,20.4554644 22.2942436,18.4643533 19.8480213,18.4643533 L17.2311324,18.4643533 C16.6622436,16.2456866 14.6711324,14.7096866 12.338688,14.7096866 L4.31735467,14.7096866 C4.26046578,15.1079088 4.26046578,15.5061311 4.26046578,15.9612422 C4.26046578,16.4732422 4.26046578,16.8714644 4.31735467,17.2696866 L12.338688,17.2696866 C13.2489102,17.2696866 14.0453547,17.7816866 14.5573547,18.5212422 L4.48802133,18.5212422 C4.71557689,19.4314644 5.00002133,20.2279088 5.39824356,21.0812422 L19.9049102,21.0812422 C20.9857991,21.0812422 21.8960213,21.8776866 21.8960213,22.9585755 C21.8960213,24.0394644 20.9857991,24.8359088 19.9049102,24.8359088 L19.7342436,24.8359088 C19.1653547,23.3567977 17.7431324,22.2759088 16.1502436,22.2759088 C14.4435769,22.2759088 13.0782436,23.3567977 12.5662436,24.7790199 L12.5662436,24.7790199 Z" id="Shape_1_" fill="#2063A6" fill-rule="nonzero"></path>
                    </g>
                    <g id="Group" transform="translate(37.426688, 8.395020)" fill="#FFFFFF">
                        <path d="M13.1982222,4.94933333 C13.1982222,2.50311111 11.2071111,0.512 8.76088889,0.512 L3.52711111,0.512 L2.61688889,0.512 L0,0.512 L0,14.5635556 L1.99111111,14.5635556 L3.52711111,14.5635556 L9.67111111,14.5635556 C12.1173333,14.5635556 14.1084444,12.5724444 14.1084444,10.1262222 C14.1084444,8.87466667 13.5395556,7.73688889 12.7431111,6.94044444 C13.0844444,6.37155556 13.1982222,5.68888889 13.1982222,4.94933333 Z M3.584,4.03911111 L8.81777778,4.03911111 C9.32977778,4.03911111 9.728,4.43733333 9.728,4.94933333 C9.728,5.46133333 9.32977778,5.74577778 8.81777778,5.74577778 L3.584,5.74577778 L3.584,4.03911111 Z M9.728,11.0933333 L3.584,11.0933333 L3.584,9.27288889 L9.728,9.27288889 C10.24,9.27288889 10.6382222,9.67111111 10.6382222,10.1831111 C10.5813333,10.6951111 10.1831111,11.0933333 9.728,11.0933333 Z" id="Shape" fill-rule="nonzero"></path>
                        <path d="M88.4053333,11.0933333 L88.4053333,0.512 L81.3511111,0.512 C78.5066667,0.512 76.1173333,2.90133333 76.1173333,5.74577778 L76.1173333,11.0364444 L74.2968889,11.0364444 L74.2968889,16.2702222 L77.824,16.2702222 L77.824,14.5635556 L86.6417778,14.5635556 L86.6417778,16.2702222 L90.1688889,16.2702222 L90.1688889,11.0364444 L88.4053333,11.0364444 L88.4053333,11.0933333 Z M84.8782222,11.0933333 L79.6444444,11.0933333 L79.6444444,5.80266667 C79.6444444,4.89244444 80.384,4.096 81.3511111,4.096 L84.8782222,4.096 L84.8782222,11.0933333 Z" id="Shape" fill-rule="nonzero"></path>
                        <path d="M41.6995556,9.27288889 C41.6995556,10.24 40.9031111,11.0933333 39.8791111,11.0933333 L36.4088889,11.0933333 C35.4417778,11.0933333 34.7022222,10.2968889 34.7022222,9.27288889 L34.7022222,5.74577778 C34.7022222,4.83555556 35.4417778,4.03911111 36.4088889,4.03911111 L39.936,4.03911111 C40.9031111,4.03911111 41.7564444,4.83555556 41.7564444,5.74577778 L45.1697778,5.74577778 C45.1697778,2.90133333 42.7804444,0.512 39.936,0.512 L36.4088889,0.512 C33.5644444,0.512 31.1751111,2.90133333 31.1751111,5.74577778 L31.1751111,9.27288889 C31.1751111,12.2311111 33.5644444,14.5635556 36.4088889,14.5635556 L39.936,14.5635556 C42.7804444,14.5635556 45.1697778,12.1742222 45.1697778,9.27288889 L41.6995556,9.27288889 Z" id="Shape" fill-rule="nonzero"></path>
                        <path d="M24.2915556,0.512 L20.8782222,0.512 C17.92,0.512 15.5306667,2.90133333 15.5306667,5.74577778 L15.5306667,9.27288889 C15.5306667,12.2311111 17.92,14.5635556 20.8782222,14.5635556 L24.2915556,14.5635556 C27.2497778,14.5635556 29.6391111,12.1742222 29.6391111,9.27288889 L29.6391111,5.74577778 C29.5822222,2.90133333 27.2497778,0.512 24.2915556,0.512 Z M26.0551111,9.27288889 C26.0551111,10.24 25.2586667,11.0933333 24.2346667,11.0933333 L20.8213333,11.0933333 C19.8542222,11.0933333 19.0008889,10.2968889 19.0008889,9.27288889 L19.0008889,5.74577778 C19.0008889,4.83555556 19.7973333,4.03911111 20.8213333,4.03911111 L24.2346667,4.03911111 C25.2017778,4.03911111 26.0551111,4.83555556 26.0551111,5.74577778 L26.0551111,9.27288889 Z" id="Shape" fill-rule="nonzero"></path>
                        <polygon id="Shape" fill-rule="nonzero" points="59.8471111 0.512 55.4666667 0.512 52.2808889 4.72177778 49.152 0.512 44.7715556 0.512 50.0622222 7.56622222 44.7715556 14.6204444 49.152 14.6204444 52.2808889 10.4106667 55.4666667 14.6204444 59.8471111 14.6204444 54.4995556 7.56622222"></polygon>
                        <path d="M68.1528889,0.512 L64.6257778,0.512 C61.7813333,0.512 59.392,2.90133333 59.392,5.74577778 L59.392,9.27288889 C59.392,12.2311111 61.7813333,14.5635556 64.6257778,14.5635556 L68.1528889,14.5635556 C70.9973333,14.5635556 73.3866667,12.1742222 73.3866667,9.27288889 L73.3866667,5.74577778 C73.4435556,2.90133333 71.0542222,0.512 68.1528889,0.512 Z M69.9733333,9.27288889 C69.9733333,10.24 69.1768889,11.0933333 68.1528889,11.0933333 L64.6257778,11.0933333 C63.6586667,11.0933333 62.9191111,10.2968889 62.9191111,9.27288889 L62.9191111,5.74577778 C62.9191111,4.83555556 63.6586667,4.03911111 64.6257778,4.03911111 L68.1528889,4.03911111 C69.12,4.03911111 69.9733333,4.83555556 69.9733333,5.74577778 L69.9733333,9.27288889 Z" id="Shape" fill-rule="nonzero"></path>
                    </g>
                </g>
            </g>
        </g>
    </g>
</svg>